<svg width="973" height="1026" viewBox="0 0 973 1026" fill="none" xmlns="http://www.w3.org/2000/svg">
<path fill-rule="evenodd" clip-rule="evenodd" d="M758.49 821.458C580.389 800.014 387.021 750.469 291.104 598.878C193.03 443.877 236.363 247.073 282.776 69.6199C329.563 -109.262 390.108 -299.706 550.289 -392.065C710.411 -484.391 916.506 -471.014 1083.68 -392.179C1229.12 -323.595 1275.38 -155.014 1352.36 -13.8362C1426.14 121.492 1550.55 249.832 1515.57 399.947C1480.09 552.203 1321.1 630.396 1184.51 706.445C1050.91 780.828 910.305 839.736 758.49 821.458Z" fill="url(#paint0_linear_305_9641)" fill-opacity="0.24"/>
<path fill-rule="evenodd" clip-rule="evenodd" d="M512.89 736.615C364.267 676.974 208.972 589.571 161.288 436.692C112.531 280.374 195.37 120.68 276.394 -21.6145C358.07 -165.055 454.281 -315.287 613.745 -357.918C773.152 -400.534 947.778 -341.381 1073.72 -234.774C1183.29 -142.029 1184.23 14.0282 1217.98 153.552C1250.34 287.294 1327.97 426.708 1263.12 548.071C1197.34 671.164 1042.18 701.856 906.826 735.873C774.435 769.145 639.577 787.455 512.89 736.615Z" fill="url(#paint1_linear_305_9641)"/>
<defs>
<linearGradient id="paint0_linear_305_9641" x1="739.504" y1="830.81" x2="1071.12" y2="-406.806" gradientUnits="userSpaceOnUse">
<stop stop-color="#F7DF74"/>
<stop offset="1" stop-color="#573D81" stop-opacity="0"/>
</linearGradient>
<linearGradient id="paint1_linear_305_9641" x1="708.339" y1="869.431" x2="1668.93" y2="383.689" gradientUnits="userSpaceOnUse">
<stop stop-color="#FEBE01"/>
<stop offset="1" stop-color="#F37502"/>
</linearGradient>
</defs>
</svg>
