<svg width="38" height="38" viewBox="0 0 38 38" fill="none" xmlns="http://www.w3.org/2000/svg">
<g clip-path="url(#clip0_718_26940)">
<path d="M32.7305 0H3.33984C1.49825 0 0 1.49825 0 3.33984V32.7305C0 34.5721 1.49825 36.0703 3.33984 36.0703H25.3086C25.6039 36.0703 25.8871 35.953 26.0958 35.7442L35.7442 26.0958C35.953 25.887 36.0703 25.6038 36.0703 25.3086V3.33984C36.0703 1.49825 34.5721 0 32.7305 0Z" fill="#696969"/>
<path d="M18.0352 0H3.33984C1.49825 0 0 1.49825 0 3.33984V18.0352H18.0352V0Z" fill="#696969"/>
<path d="M36.0703 18.0352V3.33984C36.0703 1.49825 34.5721 0 32.7305 0H18.0352V18.0352H36.0703Z" fill="#555555"/>
<path d="M18.0352 18.0352V36.0703H25.3086C25.6039 36.0703 25.8871 35.953 26.0958 35.7442L35.7442 26.0958C35.953 25.887 36.0703 25.6038 36.0703 25.3086V18.0352H18.0352ZM34.957 25.3086H34.9578H34.957Z" fill="#414141"/>
<path d="M0 18.0352V32.7305C0 34.5721 1.49825 36.0703 3.33984 36.0703H18.0352V18.0352H0Z" fill="#555555"/>
<path d="M11.6152 7.9043H10.1309V6.41992C10.1309 5.80509 9.63241 5.30664 9.01758 5.30664C8.40275 5.30664 7.9043 5.80509 7.9043 6.41992V7.9043H6.41992C5.80509 7.9043 5.30664 8.40275 5.30664 9.01758C5.30664 9.63241 5.80509 10.1309 6.41992 10.1309H7.9043V11.6152C7.9043 12.2301 8.40275 12.7285 9.01758 12.7285C9.63241 12.7285 10.1309 12.2301 10.1309 11.6152V10.1309H11.6152C12.2301 10.1309 12.7285 9.63241 12.7285 9.01758C12.7285 8.40275 12.2301 7.9043 11.6152 7.9043Z" fill="#DCF5FA"/>
<path d="M29.6504 10.1309H24.4551C23.8402 10.1309 23.3418 9.63241 23.3418 9.01758C23.3418 8.40275 23.8402 7.9043 24.4551 7.9043H29.6504C30.2652 7.9043 30.7637 8.40275 30.7637 9.01758C30.7637 9.63241 30.2652 10.1309 29.6504 10.1309Z" fill="#BEDCE6"/>
<path d="M10.592 27.0528L11.6603 25.9845C12.0951 25.5497 12.0951 24.8448 11.6603 24.4101C11.2256 23.9753 10.5207 23.9753 10.0859 24.4101L9.01762 25.4784L7.94931 24.4101C7.51461 23.9753 6.80968 23.9753 6.37491 24.4101C5.94013 24.8448 5.94013 25.5497 6.37491 25.9845L7.44321 27.0528L6.37491 28.1211C5.94013 28.5559 5.94013 29.2607 6.37491 29.6955C6.59229 29.9129 6.87722 30.0216 7.16207 30.0216C7.44692 30.0216 7.73192 29.9129 7.94924 29.6955L9.01754 28.6272L10.0858 29.6955C10.3032 29.9129 10.5882 30.0216 10.873 30.0216C11.1579 30.0216 11.4429 29.9129 11.6602 29.6955C12.0949 29.2607 12.0949 28.5559 11.6602 28.1211L10.592 27.0528Z" fill="#DCF5FA"/>
<path d="M26.4961 38C20.1528 38 14.9922 32.8393 14.9922 26.4961C14.9922 20.1528 20.1528 14.9922 26.4961 14.9922C32.8394 14.9922 38 20.1528 38 26.4961C38 32.8393 32.8394 38 26.4961 38Z" fill="#5FC314"/>
<path d="M29.0938 29.8359H23.8984C23.2836 29.8359 22.7852 29.3375 22.7852 28.7227C22.7852 28.1078 23.2836 27.6094 23.8984 27.6094H29.0938C29.7086 27.6094 30.207 28.1078 30.207 28.7227C30.207 29.3375 29.7086 29.8359 29.0938 29.8359Z" fill="#BEDCE6"/>
<path d="M29.0938 25.3828H23.8984C23.2836 25.3828 22.7852 24.8844 22.7852 24.2695C22.7852 23.6547 23.2836 23.1562 23.8984 23.1562H29.0938C29.7086 23.1562 30.207 23.6547 30.207 24.2695C30.207 24.8844 29.7086 25.3828 29.0938 25.3828Z" fill="#BEDCE6"/>
</g>
<defs>
<clipPath id="clip0_718_26940">
<rect width="38" height="38" fill="white"/>
</clipPath>
</defs>
</svg>
