<svg width="24" height="24" viewBox="0 0 24 24" fill="none" xmlns="http://www.w3.org/2000/svg">
<g clip-path="url(#clip0_1_870)">
<path d="M20.3033 3.14624L9.4356 14.014C9.14267 14.3069 8.66774 14.3069 8.37481 14.014L3.69655 9.33571L-6.10352e-05 13.0323L7.05683 20.0893C7.54705 20.5795 8.21192 20.8549 8.90516 20.8549C9.59835 20.8549 10.2633 20.5795 10.7534 20.0893L23.9999 6.8428L20.3033 3.14624Z" fill="#A5EB78"/>
<g opacity="0.1">
<path d="M22.7775 5.62012L8.79324 19.6044C8.40634 19.9913 7.91982 20.2551 7.39417 20.3728C7.83306 20.6838 8.36016 20.8546 8.90518 20.8546C9.59837 20.8546 10.2633 20.5792 10.7535 20.089L24 6.84252L22.7775 5.62012Z" fill="black"/>
</g>
</g>
<defs>
<clipPath id="clip0_1_870">
<rect width="24" height="24" fill="white" transform="translate(-6.10352e-05 0.000488281)"/>
</clipPath>
</defs>
</svg>
