<svg width="96" height="68" viewBox="0 0 96 68" fill="none" xmlns="http://www.w3.org/2000/svg">
<path d="M54.2221 22.0727C60.7209 33.329 56.8643 47.7227 45.6079 54.2215C34.3515 60.7204 19.9579 56.8635 13.4591 45.6073C6.96028 34.3509 10.817 19.9574 22.0734 13.4586C33.3298 6.9597 47.7233 10.8164 54.2221 22.0727Z" fill="url(#paint0_linear_1602_44801)"/>
<path fill-rule="evenodd" clip-rule="evenodd" d="M55.295 21.4537C62.1359 33.3025 58.0761 48.4536 46.2273 55.2945C34.3785 62.1354 19.2275 58.0757 12.3866 46.2269C5.54564 34.378 9.60538 19.227 21.4542 12.3861C33.303 5.54523 48.4541 9.60485 55.295 21.4537ZM45.608 54.2218C56.8644 47.7229 60.721 33.3292 54.2223 22.073C47.7234 10.8167 33.3299 6.95995 22.0735 13.4588C10.8171 19.9577 6.96039 34.3512 13.4593 45.6076C19.958 56.8638 34.3516 60.7207 45.608 54.2218Z" fill="url(#paint1_linear_1602_44801)"/>
<path d="M43.1307 49.9309C52.0173 44.8002 55.0621 33.4369 49.9314 24.5503C44.8007 15.6637 33.4375 12.6189 24.5508 17.7496C15.6642 22.8803 12.6195 34.2436 17.7501 43.1302C22.8808 52.0168 34.2441 55.0616 43.1307 49.9309Z" fill="url(#paint2_linear_1602_44801)"/>
<path d="M42.4538 30.8315L39.8298 33.4559L42.4538 36.0803L45.0788 33.4559L42.4538 30.8315Z" fill="url(#paint3_linear_1602_44801)"/>
<path d="M24.9911 30.8333L22.3669 33.4576L24.9911 36.082L27.6161 33.4576L24.9911 30.8333Z" fill="url(#paint4_linear_1602_44801)"/>
<path d="M33.6247 39.4371L29.3084 34.9795L26.7041 37.6682L33.6247 44.8143L40.5462 37.6682L37.9419 34.9795L33.6247 39.4371Z" fill="url(#paint5_linear_1602_44801)"/>
<path d="M33.6247 27.2435L37.9419 31.701L40.5462 29.0124L33.6247 21.8662L26.7041 29.0124L29.3084 31.701L33.6247 27.2435Z" fill="url(#paint6_linear_1602_44801)"/>
<path d="M33.7207 30.8657L31.1296 33.4572L33.7207 36.0488L36.3128 33.4572L33.7207 30.8657Z" fill="url(#paint7_linear_1602_44801)"/>
<path d="M82.2221 22.0727C88.7209 33.329 84.8643 47.7227 73.6079 54.2215C62.3515 60.7204 47.9579 56.8635 41.4591 45.6073C34.9603 34.3509 38.817 19.9574 50.0734 13.4586C61.3298 6.9597 75.7233 10.8164 82.2221 22.0727Z" fill="url(#paint8_linear_1602_44801)"/>
<path fill-rule="evenodd" clip-rule="evenodd" d="M83.295 21.4537C90.1359 33.3025 86.0761 48.4536 74.2273 55.2945C62.3785 62.1354 47.2275 58.0757 40.3866 46.2269C33.5456 34.378 37.6054 19.227 49.4542 12.3861C61.303 5.54523 76.4541 9.60485 83.295 21.4537ZM73.608 54.2218C84.8644 47.7229 88.721 33.3292 82.2223 22.073C75.7234 10.8167 61.3299 6.95995 50.0735 13.4588C38.8171 19.9577 34.9604 34.3512 41.4593 45.6076C47.958 56.8638 62.3516 60.7207 73.608 54.2218Z" fill="url(#paint9_linear_1602_44801)"/>
<path d="M71.1307 49.9309C80.0173 44.8002 83.0621 33.4369 77.9314 24.5503C72.8007 15.6637 61.4375 12.6189 52.5508 17.7496C43.6642 22.8803 40.6195 34.2436 45.7501 43.1302C50.8808 52.0168 62.2441 55.0616 71.1307 49.9309Z" fill="url(#paint10_linear_1602_44801)"/>
<g clip-path="url(#clip0_1602_44801)">
<path d="M61.7089 27.5691C61.8697 27.7299 62.1304 27.7299 62.2913 27.5691L64.2243 25.636C64.3851 25.4752 64.3851 25.2145 64.2243 25.0537L62.2913 23.1206C62.1304 22.9598 61.8697 22.9598 61.7089 23.1206L59.7759 25.0537C59.6151 25.2145 59.6151 25.4752 59.7759 25.636L61.7089 27.5691Z" fill="url(#paint11_linear_1602_44801)"/>
<path d="M61.7089 31.7759L59.7759 33.709C59.6151 33.8698 59.6151 34.1305 59.7759 34.2913L61.7089 36.2244C61.8697 36.3852 62.1304 36.3852 62.2913 36.2244L64.2243 34.2913C64.3851 34.1305 64.3851 33.8698 64.2243 33.709L62.2913 31.7759C62.1304 31.6151 61.8697 31.6151 61.7089 31.7759Z" fill="url(#paint12_linear_1602_44801)"/>
<path d="M62.2913 40.4309C62.1304 40.2701 61.8697 40.2701 61.7089 40.4309L59.7759 42.3639C59.6151 42.5248 59.6151 42.7855 59.7759 42.9463L61.7089 44.8793C61.8697 45.0401 62.1304 45.0401 62.2913 44.8793L64.2243 42.9463C64.3851 42.7855 64.3851 42.5248 64.2243 42.3639L62.2913 40.4309Z" fill="url(#paint13_linear_1602_44801)"/>
<path d="M59.8924 38.0324L56.0333 34.1732C55.9377 34.0776 55.9377 33.9226 56.0333 33.8269L59.8924 29.9678C60.0555 29.8047 60.0555 29.5403 59.8924 29.3771L57.9677 27.4524C57.8046 27.2893 57.5402 27.2893 57.377 27.4524L51.1248 33.7047C50.9617 33.8678 50.9617 34.1323 51.1248 34.2954L57.3771 40.5477C57.5402 40.7108 57.8046 40.7108 57.9678 40.5477L59.8925 38.623C60.0556 38.4599 60.0556 38.1955 59.8924 38.0324Z" fill="url(#paint14_linear_1602_44801)"/>
<path d="M72.8752 33.7047L66.6228 27.4524C66.4598 27.2893 66.1953 27.2893 66.0322 27.4524L64.1074 29.3771C63.9443 29.5402 63.9443 29.8047 64.1074 29.9678L67.9666 33.8269C68.0622 33.9225 68.0622 34.0776 67.9666 34.1732L64.1074 38.0323C63.9443 38.1954 63.9443 38.4599 64.1074 38.623L66.0322 40.5477C66.1953 40.7108 66.4597 40.7108 66.6228 40.5477L72.8751 34.2954C73.0383 34.1323 73.0383 33.8678 72.8752 33.7047Z" fill="url(#paint15_linear_1602_44801)"/>
</g>
<defs>
<linearGradient id="paint0_linear_1602_44801" x1="13.0352" y1="18.4465" x2="10.6544" y2="62.7274" gradientUnits="userSpaceOnUse">
<stop stop-color="#F0DA15"/>
<stop offset="0.835592" stop-color="#D86800"/>
</linearGradient>
<linearGradient id="paint1_linear_1602_44801" x1="11.9403" y1="17.6366" x2="9.4342" y2="64.248" gradientUnits="userSpaceOnUse">
<stop stop-color="#FFF494"/>
<stop offset="0.63021" stop-color="#FFD4AD"/>
</linearGradient>
<linearGradient id="paint2_linear_1602_44801" x1="17.4154" y1="21.6874" x2="15.5358" y2="56.6458" gradientUnits="userSpaceOnUse">
<stop stop-color="#FFEB3C"/>
<stop offset="1" stop-color="#FF881B"/>
</linearGradient>
<linearGradient id="paint3_linear_1602_44801" x1="33.7225" y1="21.8662" x2="33.7225" y2="44.8141" gradientUnits="userSpaceOnUse">
<stop stop-color="white" stop-opacity="0.99"/>
<stop offset="1" stop-color="white" stop-opacity="0.49"/>
</linearGradient>
<linearGradient id="paint4_linear_1602_44801" x1="33.7225" y1="21.8664" x2="33.7225" y2="44.8143" gradientUnits="userSpaceOnUse">
<stop stop-color="white" stop-opacity="0.99"/>
<stop offset="1" stop-color="white" stop-opacity="0.49"/>
</linearGradient>
<linearGradient id="paint5_linear_1602_44801" x1="33.7225" y1="21.8664" x2="33.7225" y2="44.8143" gradientUnits="userSpaceOnUse">
<stop stop-color="white" stop-opacity="0.99"/>
<stop offset="1" stop-color="white" stop-opacity="0.49"/>
</linearGradient>
<linearGradient id="paint6_linear_1602_44801" x1="33.7225" y1="21.8662" x2="33.7225" y2="44.8141" gradientUnits="userSpaceOnUse">
<stop stop-color="white" stop-opacity="0.99"/>
<stop offset="1" stop-color="white" stop-opacity="0.49"/>
</linearGradient>
<linearGradient id="paint7_linear_1602_44801" x1="33.7226" y1="21.866" x2="33.7226" y2="44.8139" gradientUnits="userSpaceOnUse">
<stop stop-color="white" stop-opacity="0.99"/>
<stop offset="1" stop-color="white" stop-opacity="0.49"/>
</linearGradient>
<linearGradient id="paint8_linear_1602_44801" x1="41.0352" y1="18.4465" x2="38.6544" y2="62.7274" gradientUnits="userSpaceOnUse">
<stop stop-color="#F0DA15"/>
<stop offset="0.835592" stop-color="#D86800"/>
</linearGradient>
<linearGradient id="paint9_linear_1602_44801" x1="39.9403" y1="17.6366" x2="37.4342" y2="64.248" gradientUnits="userSpaceOnUse">
<stop stop-color="#FFF494"/>
<stop offset="0.63021" stop-color="#FFD4AD"/>
</linearGradient>
<linearGradient id="paint10_linear_1602_44801" x1="45.4154" y1="21.6874" x2="43.5358" y2="56.6458" gradientUnits="userSpaceOnUse">
<stop stop-color="#FFEB3C"/>
<stop offset="1" stop-color="#FF881B"/>
</linearGradient>
<linearGradient id="paint11_linear_1602_44801" x1="62.0001" y1="23" x2="62.0001" y2="27.6897" gradientUnits="userSpaceOnUse">
<stop stop-color="#FFFCEB"/>
<stop offset="1" stop-color="#FFF3CC"/>
</linearGradient>
<linearGradient id="paint12_linear_1602_44801" x1="62.0001" y1="31.6553" x2="62.0001" y2="36.345" gradientUnits="userSpaceOnUse">
<stop stop-color="#FFFCEB"/>
<stop offset="1" stop-color="#FFF3CC"/>
</linearGradient>
<linearGradient id="paint13_linear_1602_44801" x1="62.0001" y1="40.3103" x2="62.0001" y2="44.9999" gradientUnits="userSpaceOnUse">
<stop stop-color="#FFFCEB"/>
<stop offset="1" stop-color="#FFF3CC"/>
</linearGradient>
<linearGradient id="paint14_linear_1602_44801" x1="55.5086" y1="27.3301" x2="55.5086" y2="40.6701" gradientUnits="userSpaceOnUse">
<stop stop-color="#FFFCEB"/>
<stop offset="1" stop-color="#FFF3CC"/>
</linearGradient>
<linearGradient id="paint15_linear_1602_44801" x1="68.4913" y1="27.3301" x2="68.4913" y2="40.6701" gradientUnits="userSpaceOnUse">
<stop stop-color="#FFFCEB"/>
<stop offset="1" stop-color="#FFF3CC"/>
</linearGradient>
<clipPath id="clip0_1602_44801">
<rect width="22" height="22" fill="white" transform="translate(51 23)"/>
</clipPath>
</defs>
</svg>
