<svg width="38" height="38" viewBox="0 0 38 38" fill="none" xmlns="http://www.w3.org/2000/svg">
<g clip-path="url(#clip0_690_26997)">
<path d="M32.1687 6.91884C29.7467 5.80756 27.1495 4.98878 24.4339 4.51979C24.3845 4.51074 24.335 4.53337 24.3096 4.57857C23.9755 5.17269 23.6056 5.94768 23.3465 6.55687C20.4257 6.11958 17.5199 6.11958 14.6591 6.55687C14.3999 5.93418 14.0165 5.17269 13.6809 4.57857C13.6555 4.53486 13.6061 4.51222 13.5566 4.51979C10.8426 4.98722 8.24539 5.806 5.82185 6.91884C5.80085 6.92789 5.78288 6.94296 5.77093 6.96255C0.844591 14.3225 -0.505003 21.5015 0.157029 28.5915C0.159997 28.6261 0.179517 28.6593 0.206458 28.6804C3.45672 31.0673 6.60523 32.5164 9.69518 33.4769C9.74461 33.492 9.797 33.4739 9.82847 33.4332C10.5594 32.435 11.2109 31.3825 11.7696 30.2757C11.8025 30.2109 11.7711 30.134 11.7037 30.1083C10.6702 29.7163 9.68612 29.2383 8.73946 28.6955C8.66458 28.6518 8.65856 28.5447 8.72751 28.4934C8.92672 28.3442 9.12599 28.1888 9.31622 28.032C9.35065 28.0033 9.3986 27.9973 9.43905 28.0154C15.658 30.8548 22.3907 30.8548 28.5363 28.0154C28.5767 27.9958 28.6247 28.0019 28.6606 28.0304C28.8509 28.1873 29.0501 28.3441 29.2508 28.4933C29.3197 28.5446 29.3151 28.6517 29.2403 28.6954C28.2937 29.2488 27.3096 29.7162 26.2746 30.1068C26.2072 30.1324 26.1772 30.2108 26.2103 30.2756C26.7809 31.3809 27.4325 32.4334 28.1499 33.4316C28.1799 33.4739 28.2338 33.492 28.2832 33.4768C31.3881 32.5164 34.5366 31.0672 37.7869 28.6803C37.8154 28.6592 37.8334 28.6275 37.8363 28.5929C38.6287 20.3961 36.5092 13.2759 32.218 6.96396C32.2076 6.94296 32.1896 6.92789 32.1687 6.91884ZM12.6984 24.2744C10.8261 24.2744 9.28334 22.5555 9.28334 20.4444C9.28334 18.3333 10.7961 16.6144 12.6984 16.6144C14.6156 16.6144 16.1434 18.3484 16.1135 20.4444C16.1135 22.5555 14.6006 24.2744 12.6984 24.2744ZM25.3251 24.2744C23.4528 24.2744 21.91 22.5555 21.91 20.4444C21.91 18.3333 23.4228 16.6144 25.3251 16.6144C27.2423 16.6144 28.7701 18.3484 28.7402 20.4444C28.7402 22.5555 27.2423 24.2744 25.3251 24.2744Z" fill="#2B3CCE"/>
</g>
<defs>
<clipPath id="clip0_690_26997">
<rect width="38" height="38" fill="white"/>
</clipPath>
</defs>
</svg>
