<svg width="45" height="44" viewBox="0 0 45 44" fill="none" xmlns="http://www.w3.org/2000/svg">
<g clip-path="url(#clip0_693_27000)">
<path d="M14.91 24.0366L14.2815 32.8779C15.1808 32.8779 15.5703 32.4916 16.0374 32.0277L20.2538 27.9981L28.9906 34.3963C30.593 35.2893 31.7219 34.8191 32.1541 32.9222L37.889 6.04991L37.8905 6.04832C38.3988 3.67966 37.034 2.75341 35.4728 3.33449L1.76363 16.2402C-0.536957 17.1332 -0.502123 18.4157 1.37254 18.9968L9.99063 21.6774L30.0087 9.15166C30.9508 8.52782 31.8074 8.87299 31.1028 9.49682L14.91 24.0366Z" fill="#039BE5"/>
<path d="M40.2608 37.7532C41.3857 36.5463 41.9989 35.0543 41.9989 33.4997C41.9989 31.5546 41.0381 29.7931 39.4992 28.5432C39.464 32.9998 35.273 36.6244 30.1251 36.6244H26.6411C27.9886 38.8469 30.7266 40.374 33.8748 40.374H41.374C41.6279 40.374 41.8544 40.2217 41.9521 39.9874C42.0497 39.753 41.995 39.4835 41.8154 39.3077L40.2608 37.7532Z" fill="#64B5F6"/>
<path d="M30.1252 21.626C25.6452 21.626 22.001 24.7077 22.001 28.5003C22.001 30.0548 22.6142 31.5429 23.7391 32.7538L22.1846 34.3083C22.0049 34.488 21.9502 34.7575 22.0479 34.9879C22.1455 35.2223 22.3721 35.3746 22.626 35.3746H30.1252C34.6052 35.3746 38.2494 32.2929 38.2494 28.5003C38.2494 24.7077 34.6052 21.626 30.1252 21.626Z" fill="#2196F3"/>
<path fill-rule="evenodd" clip-rule="evenodd" d="M21.0012 28.5003C21.0012 24.0052 25.2564 20.626 30.1254 20.626C34.9944 20.626 39.2496 24.0052 39.2496 28.5003C39.2496 32.9954 34.9944 36.3746 30.1254 36.3746H22.6261C21.966 36.3746 21.3783 35.9774 21.1262 35.3753C20.867 34.7605 21.0182 34.0606 21.4777 33.6012L22.3916 32.6873C21.4955 31.4529 21.0012 30.0111 21.0012 28.5003ZM23.7393 32.7538C22.6144 31.5429 22.0012 30.0548 22.0012 28.5003C22.0012 24.7077 25.6454 21.626 30.1254 21.626C34.6054 21.626 38.2496 24.7077 38.2496 28.5003C38.2496 32.2929 34.6054 35.3746 30.1254 35.3746H22.6261C22.3723 35.3746 22.1457 35.2223 22.0481 34.9879C21.9504 34.7575 22.0051 34.488 22.1848 34.3083L23.7393 32.7538Z" fill="white"/>
<path d="M33.8752 26.6255H26.3759C26.0322 26.6255 25.751 26.9067 25.751 27.2504C25.751 27.5941 26.0322 27.8754 26.3759 27.8754H33.8752C34.2189 27.8754 34.5001 27.5941 34.5001 27.2504C34.5001 26.9067 34.2189 26.6255 33.8752 26.6255Z" fill="#FAFAFA"/>
<path d="M31.3754 29.1252H26.3759C26.0322 29.1252 25.751 29.4065 25.751 29.7502C25.751 30.0939 26.0322 30.3751 26.3759 30.3751H31.3754C31.7191 30.3751 32.0003 30.0939 32.0003 29.7502C32.0003 29.4065 31.7191 29.1252 31.3754 29.1252Z" fill="#FAFAFA"/>
</g>
<defs>
<clipPath id="clip0_693_27000">
<rect width="45" height="44" fill="white"/>
</clipPath>
</defs>
</svg>
