<svg width="44" height="41" viewBox="0 0 44 41" fill="none" xmlns="http://www.w3.org/2000/svg">
<g clip-path="url(#clip0_693_27009)">
<path d="M14.9103 24.0366L14.2817 32.8779C15.181 32.8779 15.5705 32.4916 16.0376 32.0277L20.254 27.9981L28.9909 34.3963C30.5932 35.2893 31.7221 34.8191 32.1544 32.9222L37.8892 6.04991L37.8908 6.04832C38.399 3.67966 37.0342 2.75341 35.473 3.33449L1.76387 16.2402C-0.536713 17.1332 -0.501879 18.4157 1.37279 18.9968L9.99087 21.6774L30.009 9.15166C30.951 8.52782 31.8076 8.87299 31.103 9.49682L14.9103 24.0366Z" fill="#039BE5"/>
</g>
<g clip-path="url(#clip1_693_27009)">
<path d="M31.962 35.1974L30.0164 37.1361C29.212 37.9404 27.8988 37.9404 27.0945 37.1361L25.1488 35.1904C24.3512 34.3931 24.3512 33.0799 25.1488 32.2756L27.0945 30.3299L31.962 35.1974ZM41.1949 29.8418L32.4431 21.0966C32.292 20.9385 32.0718 20.863 31.8586 20.8972C31.6388 20.9318 31.4531 21.0624 31.3501 21.2548L27.4107 28.7004L33.6049 34.895L41.0298 30.9348C41.2225 30.8388 41.3534 30.6461 41.3876 30.433C41.4219 30.2131 41.346 29.9999 41.1949 29.8418ZM26.125 38.1056L24.1793 36.1599C23.9044 35.8849 23.6912 35.5825 23.5331 35.2525C23.1894 36.2149 23.4092 37.3355 24.1793 38.1056C24.702 38.6279 25.3895 38.9169 26.125 38.9169C26.4412 38.9169 26.7507 38.8619 27.0394 38.7588C26.7024 38.6004 26.3932 38.3805 26.125 38.1056ZM34.1481 37.3768L32.9382 36.1669L30.9855 38.1123C30.8207 38.2774 30.6417 38.4218 30.4494 38.5457L31.7143 39.8105C32.0376 40.1338 32.4706 40.3124 32.9312 40.3124C33.3918 40.3124 33.8251 40.1338 34.1481 39.8105C34.8148 39.1368 34.8148 38.0505 34.1481 37.3768ZM36.4375 21.7502V20.3752C36.4375 19.9956 36.13 19.6877 35.75 19.6877C35.37 19.6877 35.0625 19.9956 35.0625 20.3752V21.7502C35.0625 22.1299 35.37 22.4377 35.75 22.4377C36.13 22.4377 36.4375 22.1299 36.4375 21.7502ZM42.625 26.5624C42.625 26.1827 42.3175 25.8749 41.9375 25.8749H40.5625C40.1825 25.8749 39.875 26.1827 39.875 26.5624C39.875 26.9421 40.1825 27.2499 40.5625 27.2499H41.9375C42.3175 27.2499 42.625 26.9421 42.625 26.5624ZM38.9861 24.2985L40.3611 22.9235C40.6296 22.6549 40.6296 22.2199 40.3611 21.9513C40.0925 21.6828 39.6575 21.6828 39.3889 21.9513L38.0139 23.3263C37.7454 23.5949 37.7454 24.0299 38.0139 24.2985C38.1482 24.4328 38.3241 24.4999 38.5 24.4999C38.6759 24.4999 38.8518 24.4328 38.9861 24.2985Z" fill="#2196F3"/>
<path fill-rule="evenodd" clip-rule="evenodd" d="M34.0021 35.8165L34.8553 36.6697L34.1481 37.3768L32.9384 36.1671L30.9856 38.1123C30.8208 38.2774 30.6418 38.4218 30.4495 38.5457L31.7144 39.8105C32.0376 40.1338 32.4707 40.3124 32.9313 40.3124C33.3918 40.3124 33.8252 40.1338 34.1481 39.8105C34.8148 39.1368 34.8148 38.0505 34.1481 37.3768L34.859 36.6734C35.9112 37.7368 35.9112 39.4505 34.859 40.5139L34.8556 40.5173C34.3432 41.0302 33.6545 41.3124 32.9313 41.3124C32.2077 41.3124 31.5196 41.03 31.0073 40.5177L29.4498 38.9602L27.3757 39.7006C26.9804 39.8417 26.5572 39.9169 26.1251 39.9169C25.1197 39.9169 24.1793 39.5192 23.4725 38.8129C22.4219 37.7623 22.1212 36.2327 22.5915 34.9161L23.3984 32.6569L23.6148 33.1085C23.7312 32.5447 24.0062 32.0077 24.4388 31.5714L24.4418 31.5685L26.6532 29.3571L26.1816 28.8854L30.4687 20.7825C30.7227 20.3084 31.18 19.9922 31.7018 19.9096C32.2414 19.8235 32.7837 20.0122 33.1564 20.3956L34.0626 21.3012V20.3752C34.0626 19.4436 34.8175 18.6877 35.7501 18.6877C36.6827 18.6877 37.4376 19.4436 37.4376 20.3752V21.7502C37.4376 22.5433 36.8905 23.209 36.1525 23.3895L36.832 24.0685C36.7537 23.5558 36.912 23.0141 37.3069 22.6192L38.6819 21.2442C39.341 20.5851 40.4092 20.5851 41.0683 21.2442C41.7273 21.9033 41.7273 22.9715 41.0683 23.6306L39.6933 25.0056C39.3641 25.3348 38.9306 25.4999 38.5001 25.4999C38.415 25.4999 38.3297 25.4935 38.2452 25.4805L38.9237 26.1585C39.1046 25.4218 39.7693 24.8749 40.5626 24.8749H41.9376C42.8702 24.8749 43.6251 25.6308 43.6251 26.5624C43.6251 27.494 42.8702 28.2499 41.9376 28.2499H41.0167L41.9101 29.1426L41.9181 29.151C42.2651 29.5142 42.462 30.0332 42.3758 30.5868L42.3751 30.5916C42.2955 31.0869 41.9906 31.5668 41.491 31.8222L34.0021 35.8165ZM31.8587 20.8972C31.6388 20.9318 31.4532 21.0624 31.3501 21.2548L27.4108 28.7004L33.605 34.895L41.0299 30.9348C41.2226 30.8388 41.3535 30.6461 41.3877 30.433C41.422 30.2131 41.3461 29.9999 41.195 29.8418L32.4432 21.0966C32.2921 20.9385 32.0719 20.863 31.8587 20.8972ZM23.4644 36.8591C23.3266 36.3304 23.3488 35.7687 23.5332 35.2525C23.6913 35.5825 23.9045 35.8849 24.1794 36.1599L26.1251 38.1056C26.3933 38.3805 26.7025 38.6004 27.0395 38.7588C26.7508 38.8619 26.4413 38.9169 26.1251 38.9169C25.8885 38.9169 25.6568 38.887 25.4341 38.8291C24.9643 38.7068 24.5339 38.4599 24.1794 38.1056C23.8224 37.7485 23.5836 37.3161 23.4644 36.8591ZM30.0164 37.1361L31.9621 35.1974L27.0946 30.3299L25.1489 32.2756C24.3513 33.0799 24.3513 34.3931 25.1489 35.1904L27.0946 37.1361C27.8989 37.9404 29.2121 37.9404 30.0164 37.1361ZM36.4376 20.3752V21.7502C36.4376 22.1299 36.1301 22.4377 35.7501 22.4377C35.3701 22.4377 35.0626 22.1299 35.0626 21.7502V20.3752C35.0626 19.9956 35.3701 19.6877 35.7501 19.6877C36.1301 19.6877 36.4376 19.9956 36.4376 20.3752ZM41.9376 25.8749C42.3176 25.8749 42.6251 26.1827 42.6251 26.5624C42.6251 26.9421 42.3176 27.2499 41.9376 27.2499H40.5626C40.1826 27.2499 39.8751 26.9421 39.8751 26.5624C39.8751 26.1827 40.1826 25.8749 40.5626 25.8749H41.9376ZM40.3612 22.9235L38.9862 24.2985C38.8519 24.4328 38.676 24.4999 38.5001 24.4999C38.3242 24.4999 38.1483 24.4328 38.014 24.2985C37.7454 24.0299 37.7454 23.5949 38.014 23.3263L39.389 21.9513C39.6575 21.6828 40.0926 21.6828 40.3612 21.9513C40.6297 22.2199 40.6297 22.6549 40.3612 22.9235Z" fill="white"/>
</g>
<defs>
<clipPath id="clip0_693_27009">
<rect width="38" height="38" fill="white"/>
</clipPath>
<clipPath id="clip1_693_27009">
<rect width="22" height="23" fill="white" transform="translate(22 18)"/>
</clipPath>
</defs>
</svg>
