<svg width="23" height="22" viewBox="0 0 23 22" fill="none" xmlns="http://www.w3.org/2000/svg">
<g clip-path="url(#clip0_1508_44819)">
<path d="M7.62069 12.0183L7.29942 16.439C7.75908 16.439 7.95816 16.2458 8.19689 16.0138L10.3519 13.999L14.8174 17.1982C15.6364 17.6447 16.2134 17.4095 16.4343 16.4611L19.3655 3.02495L19.3663 3.02416C19.6261 1.83983 18.9285 1.3767 18.1305 1.66725L0.901415 8.12012C-0.274439 8.56662 -0.256635 9.20787 0.701528 9.49841L5.10633 10.8387L15.3378 4.57583C15.8193 4.26391 16.2571 4.4365 15.897 4.74841L7.62069 12.0183Z" fill="white"/>
<g clip-path="url(#clip1_1508_44819)">
<path d="M20.5776 18.8765C21.1526 18.273 21.466 17.527 21.466 16.7497C21.466 15.7772 20.9749 14.8964 20.1884 14.2715C20.1704 16.4998 18.0283 18.3121 15.3972 18.3121H13.6165C14.3052 19.4233 15.7046 20.1869 17.3136 20.1869H21.1466C21.2764 20.1869 21.3921 20.1107 21.442 19.9936C21.492 19.8764 21.464 19.7416 21.3722 19.6538L20.5776 18.8765Z" fill="#64B5F6"/>
<path d="M15.3973 10.313C12.924 10.313 10.7449 11.9933 10.7449 14.2501C10.7449 15.0064 10.9972 15.7269 11.4529 16.343L10.9891 16.7967C10.755 17.0257 10.675 17.3793 10.8094 17.6913C10.9394 17.9949 11.2378 18.1873 11.5643 18.1873H15.3973C17.8705 18.1873 20.0496 16.5069 20.0496 14.2501C20.0496 11.9933 17.8705 10.313 15.3973 10.313Z" fill="#2196F3" stroke="white"/>
<path d="M17.3137 13.3127H13.4808C13.3051 13.3127 13.1614 13.4534 13.1614 13.6252C13.1614 13.7971 13.3051 13.9377 13.4808 13.9377H17.3137C17.4894 13.9377 17.6331 13.7971 17.6331 13.6252C17.6331 13.4534 17.4894 13.3127 17.3137 13.3127Z" fill="#FAFAFA"/>
<path d="M16.0361 14.5625H13.4808C13.3051 14.5625 13.1614 14.7031 13.1614 14.875C13.1614 15.0468 13.3051 15.1874 13.4808 15.1874H16.0361C16.2118 15.1874 16.3555 15.0468 16.3555 14.875C16.3555 14.7031 16.2118 14.5625 16.0361 14.5625Z" fill="#FAFAFA"/>
</g>
</g>
<defs>
<clipPath id="clip0_1508_44819">
<rect width="23" height="22" fill="white"/>
</clipPath>
<clipPath id="clip1_1508_44819">
<rect width="12.2667" height="11" fill="white" transform="translate(9.19995 9.5)"/>
</clipPath>
</defs>
</svg>
