<svg width="42" height="35" viewBox="0 0 42 35" fill="none" xmlns="http://www.w3.org/2000/svg">
<path d="M42 4.14315C40.4545 4.84586 38.7941 5.32087 37.0511 5.53444C38.83 4.44093 40.1963 2.70939 40.8397 0.646014C39.1746 1.65869 37.3307 2.39395 35.3679 2.79014C33.7962 1.0729 31.5566 0 29.0782 0C24.3195 0 20.4615 3.95591 20.4615 8.8355C20.4615 9.52803 20.5377 10.2024 20.6846 10.8492C13.5233 10.4806 7.17403 6.96299 2.92416 1.61714C2.18244 2.92212 1.75743 4.43992 1.75743 6.05924C1.75743 9.12478 3.27862 11.8293 5.59075 13.4138C4.17825 13.3679 2.8496 12.9704 1.68795 12.3086C1.68713 12.3454 1.68713 12.3824 1.68713 12.4197C1.68713 16.7007 4.6574 20.2718 8.59915 21.0837C7.87621 21.2855 7.11488 21.3938 6.32903 21.3938C5.77376 21.3938 5.23399 21.3383 4.70776 21.235C5.80436 24.7452 8.9865 27.3001 12.7571 27.3712C9.80813 29.7413 6.09269 31.1537 2.05554 31.1537C1.35999 31.1537 0.674132 31.112 0 31.03C3.8133 33.5372 8.34264 35 13.2087 35C29.058 35 37.7252 21.5362 37.7252 9.85996C37.7252 9.47689 37.7167 9.09584 37.7002 8.71682C39.3839 7.47114 40.8448 5.91498 42 4.14315Z" fill="#4A98E7"/>
</svg>
