<svg width="5" height="10" viewBox="0 0 5 10" fill="none" xmlns="http://www.w3.org/2000/svg">
<path d="M2.21458 9.88542C2.21446 9.88531 2.21431 9.88521 2.21419 9.88507L0.117418 7.84398C-0.0396586 7.69107 -0.039074 7.44375 0.118789 7.29154C0.276632 7.13935 0.531934 7.13994 0.689031 7.29285L2.09677 8.66324L2.09677 0.390625C2.09677 0.174883 2.2773 0 2.5 0C2.7227 0 2.90323 0.174883 2.90323 0.390625L2.90323 8.66322L4.31097 7.29287C4.46807 7.13996 4.72337 7.13937 4.88121 7.29156C5.03909 7.44377 5.03964 7.69111 4.88258 7.844L2.78581 9.88509C2.78569 9.88521 2.78554 9.88531 2.78542 9.88544C2.6278 10.0384 2.37167 10.0379 2.21458 9.88542Z" fill="#282828"/>
</svg>
