<svg width="1920" height="1278" viewBox="0 0 1920 1278" fill="none" xmlns="http://www.w3.org/2000/svg">
<path fill-rule="evenodd" clip-rule="evenodd" d="M967.999 31.1197C767.012 60.3237 539.632 93.3625 182.935 46.0698C155.212 42.4256 130.403 39.0428 107.659 35.9414C-41.3044 15.6289 -101.715 7.39137 -312.455 16.8857C-555.37 27.8297 -588 89.9977 -588 89.9977L0 89.9977V1278H1920V89.9977L2708 89.998C2708 89.998 2613.73 -6.82601 2411.69 10.198C2340.11 16.115 2308.91 22.6301 2270.35 30.683C2233.62 38.3521 2190.22 47.4159 2098.9 58.6859C2090.9 59.6663 2083.24 60.6149 2075.87 61.5273C1909.6 82.1169 1892.33 84.2563 1485.18 16.4299C1289.92 -15.656 1138.45 6.35283 967.999 31.1197Z" fill="url(#paint0_linear_1_654)"/>
<defs>
<linearGradient id="paint0_linear_1_654" x1="1060" y1="0.413086" x2="1060" y2="1278" gradientUnits="userSpaceOnUse">
<stop stop-color="#F7DF74"/>
<stop offset="1" stop-color="white" stop-opacity="0"/>
</linearGradient>
</defs>
</svg>
