<svg width="207" height="294" viewBox="0 0 207 294" fill="none" xmlns="http://www.w3.org/2000/svg">
<ellipse cx="91.6703" cy="284.793" rx="91.223" ry="9.18154" fill="url(#paint0_radial_707_26939)"/>
<g clip-path="url(#clip0_707_26939)">
<path d="M188.147 89.6199C191.162 96.8896 186.934 113.592 184.052 117.853C184.191 114.734 184.347 111.609 184.358 108.484C184.358 105.487 184.358 102.525 184.098 99.5796C184.05 98.5467 184.136 97.512 184.353 96.5012L184.971 92.9011L183.989 95.5099C183.845 96.0102 183.588 96.4705 183.238 96.8549C183.29 96.8027 181.251 92.7214 181.014 92.3909C180.186 91.3838 179.144 90.5756 177.964 90.0257C170.536 86.3676 186.467 85.5791 188.147 89.6199Z" fill="url(#paint1_linear_707_26939)"/>
<path d="M112.788 134.566C112.978 132.572 113.163 130.578 113.365 128.583C113.874 123.13 114.38 117.675 114.884 112.218C115.058 110.392 116.842 90.3272 116.889 90.3272C117.302 90.4077 117.695 90.5714 118.044 90.8084C118.404 91.0484 118.84 91.1474 119.268 91.0867C118.639 90.5069 117.697 89.9272 117.241 89.2084C116.785 88.4895 117.102 87.3532 117.172 86.5532C117.368 84.2343 117.593 81.8864 117.928 79.5675C118.327 76.8022 118.379 74.0427 118.731 71.2832C120.152 71.6697 121.575 72.031 123 72.3673C121.413 71.428 119.927 70.3286 118.564 69.086C118.475 69.0146 118.403 68.9258 118.35 68.8251C118.303 68.6721 118.303 68.5086 118.35 68.3556C119.246 63.2261 120.641 58.1971 122.514 53.3406C123.525 50.7376 124.623 48.1636 125.882 45.6766C126.246 44.9577 127.164 42.4591 128.106 42.2736C129.486 41.9953 132.357 66.3729 131.404 70.2513C130.451 74.1296 121.827 134.485 120.002 135.181C118.177 135.876 112.788 134.566 112.788 134.566Z" fill="url(#paint2_linear_707_26939)"/>
<path d="M139.422 18.0063C138.844 18.0063 138.266 20.789 138.139 21.1601C137.337 24.0587 136.701 26.9573 136.077 29.9024C135.742 31.4386 135.425 32.9807 135.113 34.5402C134.83 35.9315 134.668 37.062 135.407 38.3432L138.365 43.4854C137.017 42.067 135.702 40.6196 134.42 39.1432C134.472 39.1954 133.68 41.5897 133.64 41.8969C133.545 42.6684 133.402 43.4332 133.212 44.1868C132.877 45.5666 132.681 46.9985 132.421 48.3957C131.867 51.3639 131.324 54.3321 130.792 57.3003C129.66 63.6077 128.565 69.9171 127.506 76.2284C126.447 82.5397 125.43 88.8046 124.456 95.0232C123.59 100.6 122.752 106.189 121.978 111.777C121.401 116.027 120.823 120.282 120.395 124.531C120.176 126.752 119.789 129.169 120.043 131.384C122.44 133.407 128.199 133.024 128.199 133.024C128.199 133.024 143.517 79.4227 145.365 58.0539C147.213 36.6852 141.432 18.0991 139.422 18.0063Z" fill="url(#paint3_linear_707_26939)"/>
<path d="M124.287 135.992C124.287 135.992 132.951 75.3356 139.726 45.897C141.806 36.4501 144.719 27.2076 148.43 18.2788C149.048 19.5366 150.098 20.5273 151.388 21.0673C150.539 19.7479 149.856 18.3284 149.355 16.841C149.069 16.1745 148.991 15.4371 149.129 14.725C149.321 14.1891 149.62 13.6979 150.007 13.2815C152.376 10.3075 153.727 6.82335 155.835 3.65804C156.367 2.85222 157.99 -0.110193 159.255 0.00575253C161.259 0.191265 161.074 43.5607 159.255 46.8246L154.957 46.8825C154.957 46.8825 158.504 48.0768 159.37 47.9144C159.561 52.7552 149.106 121.876 141.626 130.926C139.623 133.479 136.875 135.34 133.766 136.248C130.657 137.157 127.343 137.067 124.287 135.992Z" fill="url(#paint4_linear_707_26939)"/>
<path d="M164.933 35.0446C164.13 34.7953 161.999 41.0622 161.803 41.5839C161.069 43.5028 160.411 44.7724 161.3 46.6797C162.258 48.6695 162.946 50.7792 163.345 52.9524C162.336 51.5383 161.199 50.2206 159.949 49.016C159.878 48.9362 159.792 48.8729 159.694 48.8305C159.585 48.8048 159.471 48.8139 159.368 48.8565C159.264 48.8991 159.176 48.9731 159.117 49.0682C159.003 49.266 158.93 49.4849 158.903 49.7117C158.447 52.0306 157.338 54.2104 156.622 56.4655C155.749 59.2134 154.889 61.9614 154.069 64.7325C152.913 68.6572 151.602 72.7153 151.129 76.8024C150.17 85.0809 142.493 137.494 142.493 137.494C142.493 137.494 146.906 141.749 151.799 141.43C156.691 141.112 168.872 80.2808 168.774 75.6023C166.666 74.7791 162.831 74.298 162.831 74.298C162.831 74.298 167.452 73.5269 168.774 73.8168C170.097 74.1067 168.67 36.1983 164.933 35.0446Z" fill="url(#paint5_linear_707_26939)"/>
<path d="M149.224 144.688C149.224 144.688 163.392 84.1705 174.205 84.3966C187.005 84.6575 188.137 89.6142 188.148 89.6142C187.969 88.8373 185.59 88.5475 185.058 88.5533C183.863 88.6033 182.712 89.0246 181.766 89.7591C181.088 90.2644 180.471 90.8482 179.929 91.4983C179.409 92.1186 179.063 92.9244 178.167 92.9766L174.944 93.1795L177.89 94.5824C176.059 97.3999 175.441 100.913 174.529 104.119C173.691 107.081 172.923 110.061 172.172 113.041C170.549 119.464 169.013 125.905 167.239 132.288C165.928 136.984 164.681 142.091 162.18 146.335C161.793 147.052 161.289 147.699 160.689 148.248C154.607 153.367 149.224 144.688 149.224 144.688Z" fill="url(#paint6_linear_707_26939)"/>
<path d="M138.513 115.65C138.513 115.65 147.679 48.0073 152.375 30.5459C148.418 39.323 138.859 96.2001 137.201 112.867C137.201 114.346 138.513 115.65 138.513 115.65Z" fill="url(#paint7_radial_707_26939)"/>
<path d="M149.222 122.224C149.222 122.224 160.121 66.0251 162.703 60.9409C161.687 71.8456 150.458 125.459 150.458 125.459L149.222 122.224Z" fill="url(#paint8_radial_707_26939)"/>
<path d="M157.638 135.164C157.638 135.164 167.301 89.91 176 87.0461C167.215 99.2958 166.475 110.131 158.094 138.062C156.72 137.314 157.638 135.164 157.638 135.164Z" fill="url(#paint9_radial_707_26939)"/>
<path d="M117.961 123.981C117.961 123.981 124.5 74.1936 125.609 60.1294C126.989 68.7036 119.625 125.459 119.625 125.459L117.961 123.981Z" fill="url(#paint10_radial_707_26939)"/>
<path d="M138.936 252.332L140.461 264.414C140.461 264.414 141.582 263.219 143.927 263.353C146.272 263.486 143.557 267.283 141.934 268.57C140.311 269.857 142.044 280.257 141.414 283.168C140.785 286.078 137.469 287.226 136.695 284.907C135.921 282.588 137.319 273.312 137.319 273.312C137.319 273.312 133.576 287.017 130.642 286.982C127.708 286.948 126.766 285.04 127.881 282.576C128.996 280.113 134.524 272.141 134.524 272.141C134.524 272.141 126.379 282.681 124.127 281.84C121.874 281 122.51 278.176 123.278 276.756C124.046 275.336 132.843 269.219 132.843 269.219L128.661 259.306C128.661 259.306 133.426 252.836 138.936 252.332Z" fill="url(#paint11_radial_707_26939)"/>
<path d="M138.317 254.512C138.317 254.512 140.004 263.614 139.553 264.837C139.103 266.06 136.238 267.382 136.238 267.382C136.238 267.382 138.629 267.22 139.865 266.269C139.992 268.136 140.27 274.86 140.322 278.153C140.374 281.446 141.113 283.429 137.809 284.443C136.105 283.122 137.387 271.689 137.387 271.689C137.387 271.689 137.844 269.695 137.139 271.11C136.434 272.524 134.251 283.666 130.895 284.733C127.539 285.8 127.69 283.724 128.758 281.121C129.827 278.519 134.817 270.599 134.817 270.599C134.817 270.599 126.188 281.759 123.3 279.73C122.676 278.866 123.375 276.414 123.375 276.414L132.744 268.802L131.588 264.095C131.588 264.095 133.564 265.011 136.931 261.237C133.431 262.57 131.092 262.762 130.578 260.883C130.063 259.005 131.894 257.341 138.317 254.512Z" fill="url(#paint12_radial_707_26939)"/>
<path d="M138.895 280.739C140.477 280.507 139.802 285.864 138.288 286.983C136.238 284.403 137.364 280.96 138.895 280.739Z" fill="url(#paint13_radial_707_26939)"/>
<path d="M130.422 281.365C131.987 281.707 129.475 286.479 127.667 286.995C126.656 283.864 128.92 281.041 130.422 281.365Z" fill="url(#paint14_radial_707_26939)"/>
<path d="M125.646 275.214C127.13 275.794 123.861 280.101 121.995 280.304C121.516 277.046 124.219 274.64 125.646 275.214Z" fill="url(#paint15_radial_707_26939)"/>
<path d="M81.9141 255.097L75.3583 265.335C75.3583 265.335 76.9813 265.144 78.6795 266.75C80.3776 268.356 75.8724 269.521 73.8277 269.44C71.7829 269.359 66.4228 278.46 64.072 280.281C61.7211 282.101 58.4635 280.826 59.3472 278.542C60.2309 276.258 67.2603 270.054 67.2603 270.054C67.2603 270.054 55.6159 278.136 53.3979 276.217C51.1799 274.298 51.6651 272.228 54.1084 271.063C56.5516 269.898 65.8683 267.37 65.8683 267.37C65.8683 267.37 52.8839 270.188 51.7171 268.101C50.5504 266.014 52.3294 264.489 53.8369 263.898C55.3444 263.306 66.469 264.077 66.469 264.077L69.5823 253.81C69.5823 253.81 77.3741 251.926 81.9141 255.097Z" fill="url(#paint16_radial_707_26939)"/>
<path d="M80.0391 256.361C80.0391 256.361 75.4991 264.419 74.367 265.057C73.2349 265.695 70.2025 264.872 70.2025 264.872C70.2025 264.872 72.1375 266.286 73.6681 266.356C72.5649 267.869 68.4697 273.197 66.4019 275.753C64.3341 278.31 63.6294 280.304 60.4468 278.953C59.9905 276.831 68.6661 268.565 68.6661 268.565C68.6661 268.565 69.983 267.498 68.5275 268.136C67.0719 268.773 58.2289 276.084 54.9539 274.721C51.6789 273.359 53.146 271.875 55.6297 270.576C58.1133 269.278 67.0142 266.431 67.0142 266.431C67.0142 266.431 52.8976 269.22 51.9965 265.788C51.9965 263.318 56.317 263.724 56.317 263.724L66.5521 263.846L68.7759 259.376C68.7759 259.376 69.7 261.353 74.702 260.64C71.1671 259.399 69.2495 258.037 70.0812 256.286C70.913 254.535 73.3158 254.39 80.0391 256.361Z" fill="url(#paint17_radial_707_26939)"/>
<path d="M63.2292 276.003C64.7656 276.455 61.9354 281.046 60.0986 281.435C59.3188 278.235 61.7679 275.568 63.2292 276.003Z" fill="url(#paint18_radial_707_26939)"/>
<path d="M56.0896 271.916C57.3604 272.896 53.0514 276.13 51.2031 275.817C51.6248 272.553 54.8767 270.971 56.0896 271.916Z" fill="url(#paint19_radial_707_26939)"/>
<path d="M56.0899 264.791C56.7946 266.234 51.5153 267.243 49.9904 266.147C51.7983 263.394 55.4083 263.394 56.0899 264.791Z" fill="url(#paint20_radial_707_26939)"/>
<path d="M162.157 134.85C162.157 134.85 164.588 122.421 163.421 111.998C160.986 116.242 159.059 120.761 157.68 125.459C157.68 125.459 154.757 109.325 157.386 99.5972C155.286 103.355 153.684 107.372 152.62 111.545C152.62 111.545 149.894 92.6405 152.62 84.0258C149.366 92.7398 146.954 101.748 145.418 110.925C146.197 96.2116 144.736 75.7183 144.736 75.7183C144.736 75.7183 136.274 98.6755 135.2 110.044C132.67 102.461 133.6 91.4289 133.6 91.4289C133.6 91.4289 129.77 112.345 126.986 117.853C125.254 107.54 126.247 93.197 126.247 93.197C126.247 93.197 120.899 112.328 118.565 117.215C117.959 109.992 116.156 108.479 116.156 108.479C116.156 108.479 115.966 117.528 113.846 123.181C111.726 128.833 116.156 130.497 116.156 130.497C116.156 130.497 121.979 133.279 126.64 133.395C131.301 133.511 135.431 134.642 141.6 135.853C147.769 137.065 148.242 140.526 152.62 140.01C156.999 139.494 160.406 139.604 162.157 134.85Z" fill="url(#paint21_linear_707_26939)"/>
<path d="M104.893 242.877C104.893 242.877 103.737 257.312 104.893 261.075C101.363 261.254 100.272 259.191 100.272 259.191C100.272 259.191 99.9079 263.585 97.5166 265.196C96.2899 263.201 94.8593 261.34 93.2481 259.643C93.2481 259.643 91.8215 264.663 83.504 266.02C84.0372 263.982 83.8326 261.821 82.9264 259.921C82.9264 259.921 73.1072 263.15 73.2343 265.481C69.2893 263.417 69.6936 257.857 69.6936 257.857C69.6936 257.857 64.4432 261.712 63.9176 263.237C62.1543 261.847 61.0019 259.821 60.7061 257.59C60.7061 257.59 60.2614 261.069 56.2124 261.649C56.3164 259.138 56.2124 255.167 56.2124 255.167C56.2124 255.167 50.8118 255.747 50.188 258.419C48.6285 255.909 48.9404 251.335 48.9404 251.335C48.9404 251.335 45.4055 252.495 44.3716 252.495C46.3412 248.466 48.9 232.506 56.7091 228.111C63.9234 229.19 75.4581 228.268 82.6607 233.12C89.8634 237.972 104.893 242.877 104.893 242.877Z" fill="url(#paint22_linear_707_26939)"/>
<path style="mix-blend-mode:multiply" opacity="0.5" d="M104.893 242.877C104.893 242.877 103.737 257.312 104.893 261.075C101.363 261.254 100.272 259.191 100.272 259.191C100.272 259.191 99.9079 263.585 97.5166 265.196C96.2899 263.201 94.8593 261.34 93.2481 259.643C93.2481 259.643 91.8215 264.663 83.504 266.02C84.0372 263.982 83.8326 261.821 82.9264 259.921C82.9264 259.921 73.1072 263.15 73.2343 265.481C69.2893 263.417 69.6936 257.857 69.6936 257.857C69.6936 257.857 64.4432 261.712 63.9176 263.237C62.1543 261.847 61.0019 259.821 60.7061 257.59C60.7061 257.59 60.2614 261.069 56.2124 261.649C56.3164 259.138 56.2124 255.167 56.2124 255.167C56.2124 255.167 50.8118 255.747 50.188 258.419C48.6285 255.909 48.9404 251.335 48.9404 251.335C48.9404 251.335 45.4055 252.495 44.3716 252.495C46.3412 248.466 48.9 232.506 56.7091 228.111C63.9234 229.19 75.4581 228.268 82.6607 233.12C89.8634 237.972 104.893 242.877 104.893 242.877Z" fill="url(#paint23_radial_707_26939)"/>
<path d="M96.3367 264.049L98.5258 263.15C98.5258 263.15 99.1438 267.898 103.216 268.617C104.371 266.744 116.085 265.846 116.085 265.846C116.085 265.846 116.807 268.524 115.467 270.686C121.168 271.22 124.183 269.956 124.183 269.956C124.183 269.956 126.268 274.356 129.918 273.736C129.104 270.321 133.43 265.312 133.43 265.312C135.434 267.103 137.756 268.497 140.275 269.423C142.978 267.55 146.403 263.046 146.403 263.046C146.403 263.046 147.864 264.657 152.329 266.524C155.968 260.402 154.183 255.509 154.183 255.509C154.183 255.509 158.452 256.669 161.692 257.214C160.95 254.764 159.385 252.65 157.262 251.231C157.805 251.41 165.412 254.228 170.408 253.422C167.087 253.422 155.616 226.25 150.978 228.685C123.83 242.912 102.459 241.254 100.189 242.517C98.9706 243.184 97.9655 249.202 97.3013 254.692C96.6717 259.614 96.3367 264.049 96.3367 264.049Z" fill="url(#paint24_linear_707_26939)"/>
<path style="mix-blend-mode:multiply" opacity="0.5" d="M97.307 254.756C97.3119 254.813 97.3235 254.869 97.3416 254.924C96.764 263.086 103.851 265.005 105.705 264.883C105.619 262.402 111.406 255.88 111.707 256.048C112.007 256.216 113.33 261.718 116.102 263.237C114.566 257.88 120.758 253.248 121.185 252.941C121.041 253.248 119.221 256.964 121.185 258.274C121.185 254.437 135.492 249.289 142.978 251.179C150.464 253.069 151.093 260.344 151.093 260.344C151.093 260.344 151.89 252.958 149.17 248.9C155.633 251.642 161.686 257.26 161.686 257.26C160.945 254.811 159.379 252.696 157.256 251.277C157.799 251.457 165.406 254.274 170.402 253.469C167.081 253.469 155.61 226.297 150.972 228.732C123.825 242.958 102.453 241.3 100.183 242.564C98.9647 243.231 97.9597 249.248 97.2954 254.738L97.307 254.756Z" fill="url(#paint25_radial_707_26939)"/>
<path d="M10.754 181.188C10.7945 181.611 10.8407 182.04 10.8753 182.463C10.9678 183.333 11.0717 184.255 11.2104 185.211C11.2854 185.756 11.3548 186.272 11.4241 186.753C13.2782 198.389 18.8 215.659 34.5801 231.491C31.6921 225.184 31.5246 221.131 31.5246 221.131C31.5246 221.131 43.5444 238.326 78.8878 251.19C73.9662 247.802 69.7825 243.445 66.5907 238.384C67.6477 239.885 82.3823 259.869 121.509 252.373C158.989 245.219 167.018 215.746 168.046 211.212C167.55 213.038 165.591 218.749 158.805 222.598C162.738 217.589 172.089 205.844 174.949 189.496C175.634 185.574 175.896 181.589 175.728 177.611C175.411 155.118 161.219 144.717 161.219 144.717C161.219 144.717 120.244 138.114 105.896 150.422C103.372 152.584 100.34 155.274 96.7877 158.144C95.6614 159.066 94.4773 159.987 93.2412 160.944C91.8319 161.987 90.3532 163.072 88.811 164.132C86.4486 165.761 83.9072 167.373 81.2098 168.898C80.4647 169.321 79.708 169.744 78.9514 170.138C76.1826 171.615 73.3301 172.927 70.4086 174.069C69.9639 174.243 69.5076 174.423 69.0686 174.579C62.0467 177.218 54.669 178.782 47.1833 179.217L45.8953 179.287C41.8767 179.44 37.8522 179.281 33.8581 178.811C32.4834 178.666 31.0741 178.457 29.6416 178.231H29.5376C29.168 178.179 28.7983 178.104 28.4229 178.034C28.4147 178.038 28.4058 178.04 28.3969 178.04C28.3879 178.04 28.379 178.038 28.3709 178.034C22.3214 176.895 16.3935 175.181 10.6674 172.915C10.6674 172.915 10.0263 173.837 10.754 181.188Z" fill="url(#paint26_linear_707_26939)"/>
<path d="M96.3721 165.559C95.3035 181.826 99.468 196.603 102.928 200.29C96.5396 197.78 93.1606 190.4 93.1606 190.4C93.1606 190.4 94.3678 206.14 110.396 210.592C101.732 213.363 92.196 205.821 92.196 205.821C92.196 205.821 99.7106 221.073 122.422 219.914C113.758 222.43 102.928 222.233 102.928 222.233C102.928 222.233 102.217 227.931 119.101 228.1C114.757 233.966 99.0175 234.61 99.0175 234.61C99.0175 234.61 99.2254 239.329 106.076 242.512C102.945 244.523 91.5665 239.613 91.5665 239.613C91.5665 239.613 91.5664 246.06 99.5951 249.08C92.7679 250.587 77.6174 246.761 70.5938 236.691C74.2096 243.439 77.9235 245.857 77.9235 245.857C77.9235 245.857 59.0591 243.439 50.1987 219.873C50.5222 230.929 53.9878 235.781 53.9878 235.781C53.9878 235.781 28.5098 227.827 27.4586 201.438C25.2059 209.902 26.6673 214.835 26.6673 214.835C26.6673 214.835 13.7405 204.058 15.3578 183.211C20.2905 172.637 41.3499 166.828 55.9574 166.19C70.5649 165.553 97.2789 151.732 96.3721 165.559Z" fill="url(#paint27_radial_707_26939)"/>
<path d="M106.393 236.755C106.393 236.755 114.902 237.972 122.422 235.369C115.733 240.5 110.211 239.625 106.393 236.755Z" fill="url(#paint28_radial_707_26939)"/>
<path d="M98.7346 243.944C98.7346 243.944 105.088 245.312 111.066 244.332C109.64 246.778 101.646 245.828 101.646 245.828C101.646 245.828 103.084 247.503 106.55 247.741C104.978 248.75 98.4978 247.254 98.7346 243.944Z" fill="url(#paint29_radial_707_26939)"/>
<path d="M139.727 227.155C139.727 227.155 146.109 224.836 148.391 221.937C148.136 224.401 145.104 227.578 139.727 227.155Z" fill="url(#paint30_radial_707_26939)"/>
<path d="M133.598 234.083C133.598 234.083 138.219 232.593 139.727 231.764C138.537 233.862 135.776 234.233 133.598 234.083Z" fill="url(#paint31_radial_707_26939)"/>
<path d="M84.918 240.349C84.918 240.349 75.4396 235.404 73.0367 227.792C73.3717 233.972 74.7175 238.129 84.918 240.349Z" fill="url(#paint32_linear_707_26939)"/>
<path d="M94.4785 235.369C94.4785 235.369 87.2354 232.106 83.094 227.195C83.764 232.14 88.1538 234.535 94.4785 235.369Z" fill="url(#paint33_linear_707_26939)"/>
<path d="M66.0703 229.242C66.0703 229.242 59.555 223.758 56.8287 217.224C56.5226 222.384 60.2134 227.793 66.0703 229.242Z" fill="url(#paint34_linear_707_26939)"/>
<path d="M67.2723 212.035C67.2723 212.035 68.26 218.331 75.4512 219.641C74.0649 220.615 67.8788 217.577 67.8788 217.577C67.8788 217.577 69.0051 221.827 71.9509 223.438C68.0637 222.006 65.7359 219.601 67.2723 212.035Z" fill="url(#paint35_linear_707_26939)"/>
<path d="M62.074 196.197C62.074 196.197 61.1325 202.499 67.6074 205.908C65.9901 206.418 60.9939 201.664 60.9939 201.664C60.9939 201.664 60.8033 206.058 63.131 208.482C59.8791 205.942 58.3716 202.951 62.074 196.197Z" fill="url(#paint36_linear_707_26939)"/>
<path d="M99 133.65C99 133.65 102.252 122.792 107.381 118.577C107.577 124.038 107.774 128.769 107.774 128.769C107.774 128.769 119.412 113.18 118.621 104.85C122.173 115.424 117.639 128.769 117.639 128.769C117.639 128.769 127.302 116.102 126.707 109.058C129.965 118.717 128.585 131.088 128.585 131.088C128.585 131.088 135.782 88.8954 143.475 84.2576C144.053 94.9304 142.291 123.337 146.138 131.355C146.924 119.377 150.574 106.937 150.574 106.937C150.574 106.937 154.04 132.097 157.378 136.503C165.17 129.204 166.354 116.832 166.354 116.832C166.354 116.832 174.44 138.114 156.685 148.903C138.93 159.692 117.408 162.167 117.408 162.167C117.408 162.167 128.255 159.819 129.642 155.251C125.503 157.209 120.965 158.165 116.391 158.042C111.818 157.919 107.337 156.721 103.309 154.544C102.945 147.57 99 133.65 99 133.65Z" fill="url(#paint37_radial_707_26939)"/>
<path d="M100.68 141.471C104.425 138.349 107.486 134.485 109.673 130.12C112.446 136.526 110.17 139.929 110.17 139.929C110.17 139.929 118.834 135.436 122.421 128.282C124.916 130.769 120.001 141.454 120.001 141.454C120.001 141.454 130.311 140.103 132.858 129.476C135.989 134.016 129.485 142.358 129.485 142.358C129.485 142.358 138.473 137.1 143.717 134.874C142.233 138.613 135.868 142.746 135.868 142.746C135.868 142.746 145.629 142.41 148.078 143.79C146.571 144.949 136.878 146.248 131.593 148.051C125.344 150.19 111.302 151.379 111.302 151.379C114.951 152.185 118.701 152.423 122.421 152.086C118.88 155.622 108.085 155.071 105.266 152.544C102.448 150.016 100.68 141.471 100.68 141.471Z" fill="url(#paint38_radial_707_26939)"/>
<path d="M96.8516 113.824C96.8516 113.824 110.136 150.225 111.066 163.819C109.785 159.04 107.161 154.731 103.506 151.407C108.022 158.55 108.126 177.495 108.126 177.495C108.126 177.495 103.355 163.483 101.016 161.588C101.594 171.176 101.831 177.704 104.875 182.759C97.1058 180.127 94.2698 170.185 94.2698 170.185C94.2698 170.185 96.3838 189.316 85.9292 197.513C87.4483 185.501 86.7148 179.072 86.7148 179.072C86.7148 179.072 81.4644 190.875 74.8508 193.084C78.4204 184.446 77.375 177.176 77.375 177.176C77.375 177.176 72.7541 187.142 68.8727 188.533C71.8069 182.655 66.5623 174.336 66.5623 174.336C66.5623 174.336 88.4014 152.996 96.8516 113.824Z" fill="url(#paint39_radial_707_26939)"/>
<path d="M10.7535 181.188C10.4185 177.86 10.2568 174.475 10.6496 172.915C12.4806 186.997 14.531 195.907 23.3568 202.319C20.8153 195.501 20.4052 185.142 20.4052 185.142C20.4052 185.142 23.8997 202.319 30.623 208.221C28.9999 200.458 29.5313 188.237 29.5313 188.237C29.5313 188.237 33.4301 199.519 33.3262 209.154C35.1976 207.792 36.4856 203.983 37.3694 199.93C38.1983 195.812 38.7521 191.642 39.0271 187.449C39.8314 192.59 40.1428 197.797 39.957 202.997C39.957 203.652 39.8877 204.29 39.8357 204.928C40.2147 204.608 40.5735 204.266 40.9101 203.902C46.276 198.174 48.2109 186.376 48.2109 186.376C48.2109 186.376 51.3011 196.423 50.2787 202.638C58.729 192.597 59.9478 178.289 59.9478 178.289C62.3192 181.362 63.5324 185.177 63.373 189.061C67.1331 185.449 68.5714 178.434 69.0739 174.533C69.2991 172.869 69.3569 171.773 69.3569 171.773C69.3569 171.773 69.8132 172.602 70.4139 174.022C71.7886 177.298 73.9604 183.779 73.042 190.51C76.9061 186.881 79.1126 177.443 78.9566 170.092C78.9878 167.738 78.5965 165.397 77.8014 163.182C79.3378 164.422 80.4295 166.55 81.1919 168.851C82.2492 172.254 82.8874 175.774 83.0922 179.333C83.0922 179.333 87.5571 172.075 88.8047 164.086C89.2441 161.523 89.2207 158.901 88.7354 156.347C90.6755 157.35 92.2503 158.943 93.2349 160.897C94.0815 162.511 94.6147 164.272 94.806 166.086C95.7973 163.517 96.461 160.833 96.7814 158.097C97.4354 153.403 96.9945 148.62 95.4933 144.126C99.8195 144.126 100.807 150.236 100.807 150.236C100.807 150.236 102.783 137.482 94.4536 123.418C90.1852 116.189 71.8117 109.742 54.0216 107.052C37.1845 104.502 20.8789 105.313 17.6328 112.067C17.6328 112.067 16.8357 113.87 15.6574 117.058C11.4659 128.537 8.62218 140.467 7.18397 152.607C5.64755 172.075 11.8048 189.89 11.8048 189.89C11.8048 189.89 11.5911 188.614 11.3427 186.742C11.2734 186.26 11.2041 185.745 11.129 185.2C10.9903 184.243 10.8864 183.321 10.794 182.452C10.8402 182.04 10.7882 181.617 10.7535 181.188Z" fill="url(#paint40_linear_707_26939)"/>
<path d="M10.7365 162.753C10.5748 156.126 11.4931 154.266 11.4931 154.266C11.4931 154.266 14.0866 170.614 21.3123 174.794C20.8394 169.317 21.2292 163.8 22.4675 158.445C22.4675 158.445 28.4284 170.759 28.3418 177.947C28.3458 178.512 28.2935 179.075 28.1858 179.629C28.1789 179.707 28.1673 179.784 28.1511 179.861L28.3071 179.704C28.7927 179.242 29.2301 178.731 29.6125 178.179C30.3103 177.212 30.9029 176.172 31.3799 175.078C31.4122 175.022 31.4412 174.963 31.4666 174.904C33.725 169.686 34.2217 163.53 34.2217 163.53L34.3777 163.848C35.2094 165.443 38.7559 172.707 37.9935 178.017C42.8106 171.095 43.5211 161.831 43.5211 161.831C43.5211 161.831 47.4026 170.915 45.8662 179.223C45.7456 179.905 45.5816 180.579 45.3752 181.24C46.0138 180.585 46.6081 179.888 47.1542 179.153C51.9021 172.776 56.5633 160.451 56.8059 158.109C60.3351 164.59 61.2881 172.301 61.2881 172.301C61.2881 172.301 65.7529 164.434 64.8923 157.489C68.1731 156.729 70.5528 165.547 70.5528 165.547C70.5528 165.547 76.6407 152.068 74.596 144.677C80.2969 151.234 83.0867 161.06 83.0867 161.06C83.0867 161.06 87.7075 151.639 83.0867 141.314C88.1639 141.471 90.48 146.532 90.48 146.532C90.48 146.532 92.0338 137.587 87.8866 131.105C93.5471 130.966 95.3954 141.448 95.3954 141.448C95.3954 141.448 97.5325 131.726 94.4597 123.401C97.7405 125.331 102.598 136.735 102.898 137.448C102.546 135.784 91.0576 82.6112 77.4147 72.6572C76.3519 71.8746 75.2949 71.15 74.2379 70.4601C61.5653 62.2569 49.7592 60.7496 39.7551 67.1093C26.9093 75.295 20.0416 100.623 15.7212 117.059C15.0281 119.679 14.41 122.073 13.8324 124.125C9.66215 139.158 7.20156 152.422 10.7365 162.753Z" fill="url(#paint41_radial_707_26939)"/>
<path d="M25.4478 176.759C25.4478 176.759 24.6738 186.614 26.0254 191.536C20.7288 184.579 25.4478 176.759 25.4478 176.759Z" fill="url(#paint42_radial_707_26939)"/>
<path d="M16.7099 174.15C16.7099 174.15 16.9757 184.678 18.1309 188.348C15.1504 185.646 13.4176 179.269 13.4176 179.269C13.4176 179.269 15.0118 182.539 16.271 183.907C15.4854 180.197 16.1843 174.695 16.7099 174.15Z" fill="url(#paint43_radial_707_26939)"/>
<path style="mix-blend-mode:multiply" opacity="0.5" d="M11.869 189.849C11.8344 189.565 11.638 188.4 11.4243 186.748C13.2784 198.389 18.8003 215.659 34.5803 231.491C34.1413 230.517 33.7486 229.595 33.4251 228.726V228.639C31.6634 224.001 31.5537 221.131 31.5537 221.131C31.5537 221.131 41.0668 234.732 68.0523 246.779C68.0523 246.779 68.0869 246.779 68.1042 246.813C71.437 248.297 75.0355 249.77 78.94 251.184C74.054 247.838 69.8896 243.538 66.6949 238.541C68.4277 240.912 83.4049 259.672 121.503 252.373C158.054 245.416 166.591 217.195 167.937 211.583C167.284 213.728 165.164 218.952 158.776 222.598C162.709 217.589 172.061 205.844 174.92 189.496C171.888 203.45 155.333 218.418 151.591 221.624C153.058 220.134 156.113 215.995 155.634 207.577C148.911 222.685 132.461 227.648 129.128 228.5C130.984 227.901 132.677 226.877 134.071 225.508C135.466 224.14 136.524 222.465 137.162 220.615C125.391 228.888 101.004 228.233 101.004 228.233C101.004 228.233 108.698 226.94 110.974 220.546C91.035 226.604 63.1484 218.47 60.607 217.694C65.6552 219.056 77.4094 219.183 85.9174 216.65C63.6798 216.772 48.8932 211.23 40.8993 203.896C40.5643 203.595 40.2466 203.293 39.9462 202.992C38.9972 202.051 38.1296 201.031 37.3528 199.942C36.0082 198.103 34.9919 196.043 34.3493 193.855C32.9053 188.823 33.2576 183.577 33.8756 178.782C34.6669 172.62 35.9203 167.188 34.4186 163.872L34.2626 163.553C34.2309 167.503 33.2711 171.39 31.4613 174.898C31.437 174.96 31.408 175.02 31.3746 175.078C30.8234 176.149 30.1981 177.179 29.5032 178.162C29.13 178.695 28.7289 179.208 28.3018 179.698L28.1458 179.861C28.162 179.784 28.1736 179.707 28.1805 179.629C28.2325 179.345 28.3191 178.776 28.3942 177.965C28.7861 173.21 28.4708 168.423 27.4585 163.762C25.46 154.428 30.1905 143.338 28.4462 139.616C28.3364 143.674 24.5069 150.863 24.5069 150.863C24.5069 144.486 28.7119 124.74 32.3797 126.723C36.0474 128.705 37.2661 128.387 42.8111 124.984C39.669 132.792 43.6948 145.065 50.6087 145.315C57.5226 145.564 59.7637 139.407 53.9877 129.476C48.2117 119.546 50.8629 115.093 54.6404 110.38C55.3797 109.441 55.0794 108.311 54.0628 107.087C49.9849 102.09 34.459 95.5566 32.6396 95.0406C35.0713 84.2577 40.726 83.1214 44.0587 77.4169C47.3915 71.7124 55.9169 71.3761 61.9643 72.6167C68.0118 73.8574 68.2429 69.3934 74.5445 71.2022C74.5445 71.2022 74.4405 70.9529 74.2268 70.5123C61.5543 62.3092 49.7481 60.8019 39.744 67.1615C27.9552 74.698 21.2146 96.5827 16.8537 112.844C16.4668 114.311 16.0798 115.743 15.7274 117.093C11.5379 128.573 8.69431 140.503 7.25403 152.642C5.76381 171.466 11.4994 188.771 11.869 189.849Z" fill="url(#paint44_radial_707_26939)"/>
<path d="M27.6322 81.9675C27.6322 81.9675 28.8509 86.1473 27.6322 92.4026C26.4134 98.6579 23.7969 104.751 23.2193 105.307C22.6417 105.864 17.7956 112.38 16.9523 112.693C16.109 113.006 11.9561 108.873 13.0015 100.814C11.4478 98.5593 13.7293 94.7737 14.8556 95.3302C16.2708 92.7794 23.2713 81.411 27.6322 81.9675Z" fill="url(#paint45_radial_707_26939)"/>
<path d="M15.1434 98.6638C16.8762 102.026 22.3865 104.368 22.9988 104.594C23.0334 104.629 23.0507 104.629 23.0507 104.629C23.0507 104.629 23.0507 104.629 23.0507 104.594C23.5767 103.693 24.0474 102.759 24.4601 101.8C25.5352 99.1509 26.3609 96.4064 26.9264 93.6027C27.1344 92.5766 27.325 91.5621 27.4636 90.5882C28.2434 85.4228 28.1047 81.2372 27.2903 81.1154C18.8978 80.3676 15.1954 93.1853 14.6755 96.0492C14.5449 96.9486 14.7091 97.8662 15.1434 98.6638Z" fill="url(#paint46_radial_707_26939)"/>
<path opacity="0.3" d="M22.486 82.1707C22.486 82.1707 25.4433 81.6605 26.4195 83.7243C27.3956 85.7882 27.6209 89.5216 27.6209 89.5216C27.6209 89.5216 28.3429 84.3041 26.6043 82.2866C24.8657 80.2692 22.486 82.1707 22.486 82.1707Z" fill="#100F16"/>
<path d="M27.6218 89.6199C27.6218 89.6199 29.1813 84.8082 27.8124 80.924C26.5821 78.2457 21.684 80.7443 20.7252 79.5269C20.5577 81.1269 21.3028 82.3038 22.3425 82.182C23.3822 82.0603 25.4673 81.9675 26.2124 82.3211C27.6275 83.098 27.6218 89.6199 27.6218 89.6199Z" fill="url(#paint47_radial_707_26939)"/>
<path d="M15.1429 98.6637C16.8757 102.026 22.386 104.368 22.9983 104.594H23.0676C23.5936 103.692 24.0643 102.759 24.477 101.8C25.5521 99.1507 26.3778 96.4063 26.9433 93.6026C27.1512 92.5765 27.3418 91.562 27.4805 90.588C26.5599 89.4132 25.2542 88.6039 23.7954 88.3039C19.9543 87.4981 16.0786 90.5359 15.1776 95.0346C14.9262 96.23 14.9144 97.4636 15.1429 98.6637Z" fill="url(#paint48_radial_707_26939)"/>
<path d="M26.9512 93.5913C26.3876 96.3956 25.5558 99.1388 24.4675 101.783C23.9379 102.142 23.3428 102.393 22.7165 102.522C22.0901 102.65 21.4446 102.653 20.8171 102.531C17.9291 101.951 16.1962 98.7335 16.8605 95.3653C17.5247 91.997 20.4301 89.7419 23.3065 90.339C24.1365 90.532 24.905 90.9308 25.5418 91.499C26.1785 92.0672 26.6631 92.7865 26.9512 93.5913Z" fill="#100F16"/>
<path d="M20.8386 92.594C19.6168 92.594 18.6264 91.5999 18.6264 90.3737C18.6264 89.1474 19.6168 88.1533 20.8386 88.1533C22.0603 88.1533 23.0508 89.1474 23.0508 90.3737C23.0508 91.5999 22.0603 92.594 20.8386 92.594Z" fill="white"/>
<path d="M14.3364 96.2461C14.3364 96.2461 13.8512 98.107 15.7342 100.223C17.6172 102.339 22.4863 104.965 22.4863 104.965C22.4863 104.965 18.189 109.684 14.6425 108.925C13.366 105.336 13.2274 103.678 13.2563 101.933C13.2563 101.481 14.9371 102.513 14.9371 102.513C14.9371 102.513 12.4014 100.391 12.9964 98.3621C13.5913 96.3331 14.0072 96.2287 14.3364 96.2461Z" fill="url(#paint49_radial_707_26939)"/>
<path d="M14.3583 98.2061C14.5813 99.1683 15.1305 100.023 15.912 100.624C16.2008 101.128 15.681 101.168 15.5481 101.731C15.488 102.142 15.563 102.561 15.7618 102.925C15.7618 102.925 12.6081 101.07 14.3583 98.2061Z" fill="url(#paint50_radial_707_26939)"/>
<path d="M15.3809 103.116C15.3809 103.116 14.682 102.38 14.2776 102.403C13.8733 102.426 13.9426 106.641 14.913 108.479C14.9593 106.683 15.1156 104.892 15.3809 103.116Z" fill="url(#paint51_radial_707_26939)"/>
<path d="M66.9787 107.522C63.924 103.909 62.0453 99.444 61.5955 94.7273C61.0179 87.1213 62.8026 82.553 66.8516 80.8602C70.9006 79.1674 81.4187 86.0778 83.0938 95.2259C80.7429 100.617 75.8275 103.968 66.9787 107.522Z" fill="url(#paint52_radial_707_26939)"/>
<path d="M83.3711 94.1131C83.3711 94.1131 81.6094 84.2983 71.5765 81.2083C61.5436 78.1184 61.1335 94.2754 62.9933 99.2669C63.9529 102.013 65.3411 104.588 67.1059 106.896C67.1059 106.896 78.7734 102.56 83.3711 94.1131Z" fill="url(#paint53_radial_707_26939)"/>
<path d="M62.1255 94.7275C62.1255 94.7275 59.7689 91.11 61.4959 85.249C62.6511 81.2663 65.4871 79.4517 68.2076 79.0981C72.7475 78.5183 77.4954 81.4692 80.291 80.5996C79.4915 82.0617 78.1807 83.1749 76.6117 83.7243C76.6117 83.7243 70.8357 80.1532 67.243 81.9155C63.4193 83.7881 61.7385 91.1796 62.1255 94.7275Z" fill="url(#paint54_radial_707_26939)"/>
<path d="M65.6105 99.5744C63.4501 95.4912 64.5217 90.6764 68.004 88.8203C71.4863 86.9643 76.0606 88.7698 78.221 92.8531C80.3814 96.9364 79.3099 101.751 75.8276 103.607C72.3453 105.463 67.771 103.658 65.6105 99.5744Z" fill="url(#paint55_radial_707_26939)"/>
<path d="M66.3774 107.226C65.1702 107.719 67.8156 110.125 69.5369 110.363C70.8307 112.311 74.4234 116.427 80.1359 115.522C85.8483 114.618 86.4895 102.861 85.6 97.7768C85.6346 95.4579 85.7444 93.597 82.9777 92.623C83.1691 93.1096 83.301 93.6177 83.3704 94.1361C83.3704 94.1361 79.0615 102.026 66.3774 107.226Z" fill="url(#paint56_radial_707_26939)"/>
<path d="M67.228 98.7123C65.6211 95.6753 66.4174 92.0946 69.0066 90.7146C71.5958 89.3346 74.9974 90.6779 76.6042 93.7149C78.2111 96.7519 77.4147 100.333 74.8255 101.713C72.2364 103.093 68.8348 101.749 67.228 98.7123Z" fill="#100F16"/>
<path d="M67.1276 94.5247C65.9059 94.5247 64.9154 93.5306 64.9154 92.3043C64.9154 91.0781 65.9059 90.084 67.1276 90.084C68.3494 90.084 69.3398 91.0781 69.3398 92.3043C69.3398 93.5306 68.3494 94.5247 67.1276 94.5247Z" fill="white"/>
<path d="M83.371 94.855C83.371 94.855 78.496 103.076 67.3252 107.279C66.6321 107.65 68.879 110.032 70.3519 109.638C71.4629 109.292 72.5307 108.819 73.5345 108.229C72.6708 109.062 71.6994 109.773 70.6465 110.345C70.9699 111.534 74.6897 115.487 79.9978 114.699C85.306 113.911 83.6367 100.693 83.6367 100.693C83.6367 100.693 82.2967 101.899 81.3956 102.531C82.7876 100.49 85.8489 98.171 83.371 94.855Z" fill="url(#paint57_radial_707_26939)"/>
<path d="M74.3359 103.916C72.7475 105.203 72.5569 106.6 74.0817 107.18C74.6593 107.383 76.3113 106.502 76.3113 106.502C76.3113 106.502 75.2831 107.47 75.081 107.661C74.8788 107.852 78.3328 111.719 79.1242 112.78C79.9155 113.841 79.6613 106.09 78.9682 104.705C78.5545 105.071 78.0918 105.377 77.5935 105.615C78.118 105.125 78.5956 104.588 79.0202 104.009C79.309 103.551 80.5104 99.9856 78.1307 101.139C77.3394 101.499 77.4318 101.394 74.3359 103.916Z" fill="url(#paint58_radial_707_26939)"/>
<path opacity="0.3" d="M62.127 94.7274C62.127 94.7274 63.2014 84.2923 68.2901 82.2111C71.9174 80.8372 76.6133 83.7242 76.6133 83.7242C76.6133 83.7242 72.8762 80.5125 67.9493 80.9705C63.0223 81.4285 61.4975 90.8317 62.127 94.7274Z" fill="#100F16"/>
<path d="M29.1234 97.9566C30.4172 95.1623 34.3218 92.9999 37.9433 93.2144C41.5649 93.4289 53.9487 100.235 57.4547 102.809C60.9607 105.383 57.3045 108.409 55.1443 110.531C52.9841 112.653 49.3163 118.427 55.5833 128.12C61.8502 137.813 60.4351 142.387 56.0973 144.172C50.5639 146.457 43.5345 140.694 44.2161 129.5C44.7013 120.757 48.0745 116.253 48.0745 116.253C48.0745 116.253 40.7851 125.204 37.1982 125.789C33.6113 126.375 29.9147 122.45 28.696 117.998C26.9632 119.349 25.9812 123.517 26.426 131.21C26.813 137.836 23.2088 143.697 17.9815 142.225C12.7542 140.752 14.9722 129.563 20.8348 121.03C26.6975 112.496 26.5184 103.592 29.1234 97.9566Z" fill="url(#paint59_radial_707_26939)"/>
<path d="M28.8447 98.1304C28.8447 98.1304 31.0454 93.4462 37.2373 93.5332C42.3606 93.8462 46.9121 97.1333 51.3538 99.4116C55.8938 101.731 58.8627 103.684 58.5739 105.383C58.2851 107.081 53.9877 110.363 52.7516 113.134C51.5156 115.905 51.0188 120.862 54.4844 126.96C57.95 133.059 61.9239 140.682 54.8368 143.193C47.7496 145.703 43.7237 134.45 44.9598 127.586C45.8122 123.135 47.0789 118.774 48.7431 114.56C48.7431 114.56 41.5924 124.665 36.8618 125.175C32.1313 125.685 29.0065 119.482 28.4751 117.598C27.7415 118.386 26.4535 119.888 26.1011 125.175C25.7488 130.462 26.8809 140.294 19.7937 141.21C12.7066 142.126 16.3281 128.914 18.7136 124.525C21.0991 120.137 24.2239 115.111 25.6448 108.247C27.0657 101.383 28.8447 98.1304 28.8447 98.1304Z" fill="url(#paint60_radial_707_26939)"/>
<path d="M25.2927 112.618C25.2927 112.618 22.4047 118.201 20.1231 122.549C17.8416 126.897 14.0006 134.659 16.7442 139.268C17.4315 141.112 24.1779 139.738 24.7902 131.732C25.4024 123.726 24.8999 122.369 27.7302 116.473C28.5157 113.476 25.2927 112.618 25.2927 112.618Z" fill="url(#paint61_radial_707_26939)"/>
<path d="M49.6268 113.748C49.6268 113.748 44.5612 123.024 45.5431 133.221C46.2824 140.949 51.9314 143.459 55.0966 142.045C59.5095 140.062 57.1356 134.016 53.7739 128.247C50.4123 122.479 50.4527 115.099 53.4909 110.925C55.4085 108.728 58.0597 106.444 58.0251 104.879C57.1355 103.47 53.4447 103.047 53.4447 103.047C53.4447 103.047 52.4917 109.087 49.6268 113.748Z" fill="url(#paint62_radial_707_26939)"/>
<path d="M29.3359 98.0377C29.6882 96.8783 32.8015 93.5854 37.5032 93.8057C42.2048 94.026 54.4904 101.528 56.5236 102.809C58.5567 104.09 57.8982 105.099 57.8982 105.099C57.8982 105.099 54.5482 105.192 53.3756 104.722C52.2031 104.252 33.7083 98.5769 30.133 99.2667C28.4233 99.3769 29.3359 98.0377 29.3359 98.0377Z" fill="url(#paint63_radial_707_26939)"/>
<path d="M55.5522 106.003C55.6562 108.583 39.0675 124.612 36.3528 124.201C26.4932 122.601 23.3741 107.667 23.3741 107.667C26.7762 105.678 24.2752 108.31 29.3061 108.38C30.7382 108.382 32.168 108.264 33.5803 108.026C43.0126 106.612 55.3501 104.049 55.5522 106.003Z" fill="url(#paint64_radial_707_26939)"/>
<path d="M55.5522 106.003C55.6562 108.583 39.0675 124.612 36.3528 124.201C29.3927 117.186 29.1213 109.099 29.1213 109.099C29.1213 109.099 29.1848 108.82 29.3061 108.38C30.7382 108.382 32.1679 108.264 33.5803 108.026C43.0125 106.612 55.3501 104.049 55.5522 106.003Z" fill="url(#paint65_radial_707_26939)"/>
<g style="mix-blend-mode:multiply" opacity="0.3">
<path d="M23.3746 107.667C23.3746 107.667 26.0547 110.212 29.1217 110.873C32.1888 111.534 43.7986 105.858 55.5527 106.003C54.4495 104.061 44.4397 102.577 41.8174 102.426C39.1951 102.275 31.4206 103.702 29.6069 103.962C27.7933 104.223 27.9261 104.061 26.563 104.38C25.1998 104.699 23.3746 107.667 23.3746 107.667Z" fill="#420D00"/>
</g>
<path d="M56.8413 105.023C56.7374 105.852 55.5533 106.003 55.5533 106.003C55.5533 104.102 29.1627 109.719 28.4407 109.719C27.7187 109.719 20.3543 107.342 21.3073 104.461C22.1911 101.841 31.5251 96.2812 34.1301 95.284C34.3144 95.2063 34.5089 95.1555 34.7077 95.1333C41.2808 95.2319 56.9395 104.206 56.8413 105.023Z" fill="url(#paint66_radial_707_26939)"/>
<path d="M56.8413 105.023C56.7374 105.852 55.5533 106.003 55.5533 106.003C55.5533 104.102 29.1627 109.719 28.4407 109.719C28.9707 104.472 30.9401 99.4751 34.1301 95.284C34.3144 95.2063 34.5089 95.1555 34.7077 95.1333C41.2808 95.2319 56.9395 104.206 56.8413 105.023Z" fill="url(#paint67_radial_707_26939)"/>
<path d="M47.4845 119.824C47.4845 119.824 44.1517 130.178 47.0975 137.494C48.53 141.036 52.0591 140.879 52.1399 139.517C52.2208 138.155 45.0817 136.172 47.4845 119.824Z" fill="url(#paint68_radial_707_26939)"/>
<path d="M24.5293 115.209C24.5293 115.209 16.5526 127.384 16.2985 134.746C16.3851 137.199 18.1006 138.062 18.7417 132.253C19.3829 126.445 24.0268 116.723 24.5293 115.209Z" fill="url(#paint69_radial_707_26939)"/>
<path d="M32.4141 97.3711C32.4141 97.3711 28.3709 103.064 28.4402 108.34C28.3304 109.29 26.1818 108.977 26.8056 106.258C27.4294 103.539 29.1506 100.687 32.4141 97.3711Z" fill="url(#paint70_radial_707_26939)"/>
<path d="M44.1687 97.9043C44.1687 97.9043 56.5525 103.064 57.1878 104.78C57.3438 105.232 56.6102 106.334 55.8594 106.403C55.2298 107.331 54.3172 109.302 49.9678 113.25C52.2782 110.351 54.9583 106.809 54.889 106.131C54.8197 105.452 42.4359 107.371 28.4118 109.719C41.454 106.821 51.0653 105.006 55.6803 105.232C56.2001 105.093 54.6175 103.104 44.1687 97.9043Z" fill="url(#paint71_radial_707_26939)"/>
<path d="M36.2098 97.4582C36.6084 97.1567 40.5476 98.4785 39.7332 99.5742C39.3347 99.7017 37.03 99.2437 36.6026 98.5828C36.3578 98.2583 36.2205 97.865 36.2098 97.4582Z" fill="url(#paint72_radial_707_26939)"/>
<path d="M36.2094 97.458C35.8513 98.6754 37.2375 100.189 38.9356 99.9508C40.6338 99.7132 39.3111 98.6291 38.358 98.716C37.405 98.803 36.3653 98.3682 36.2094 97.458Z" fill="url(#paint73_radial_707_26939)"/>
<path d="M30.6465 97.8521C30.6465 97.8521 29.5953 98.9593 29.087 99.4811C28.5787 100.003 28.1166 98.9999 28.8328 98.7796C29.468 98.5349 30.0759 98.2241 30.6465 97.8521Z" fill="url(#paint74_radial_707_26939)"/>
<path d="M78.7088 134.851C81.1177 138.79 82.0704 143.455 81.4004 148.028C79.6473 144.472 76.9589 141.465 73.6259 139.332C73.6259 139.332 78.1427 139.332 79.6214 141.836C79.4595 139.491 79.1547 137.158 78.7088 134.851Z" fill="url(#paint75_linear_707_26939)"/>
<path d="M66.9315 139.993C68.9259 142.549 70.3196 145.524 71.0087 148.696C71.6978 151.868 71.6645 155.155 70.9112 158.312C69.8253 152.868 64.5229 147.784 64.5229 147.784C64.5229 147.784 67.7055 147.842 69.3343 150.445C69.7675 147.06 66.9315 139.993 66.9315 139.993Z" fill="url(#paint76_linear_707_26939)"/>
<path d="M49.6898 155.646C49.6898 155.646 52.4046 161.82 49.3317 170.295C49.5108 165.657 46.796 158.619 46.796 158.619C46.796 158.619 48.9678 160.249 49.3317 161.518C49.6631 159.579 49.7831 157.61 49.6898 155.646Z" fill="url(#paint77_linear_707_26939)"/>
<path d="M32.75 154.863C32.75 154.863 29.2497 162.063 29.5559 165.814C28.1012 163.425 27.2101 160.734 26.9509 157.947C27.5422 159.02 28.2618 160.017 29.0938 160.915C29.4346 158.463 31.2425 156.144 32.75 154.863Z" fill="url(#paint78_linear_707_26939)"/>
<path d="M16.3112 148.271C16.3112 148.271 14.9077 158.979 18.5234 165.814C15.3928 163.332 13.429 155.831 16.3112 148.271Z" fill="url(#paint79_linear_707_26939)"/>
<path d="M12.4766 143.79C12.4766 143.79 10.3221 150.086 10.5358 152.567C10.0189 149.499 10.7152 146.35 12.4766 143.79Z" fill="url(#paint80_linear_707_26939)"/>
<path d="M56.8417 169.31C56.8417 169.31 59.0135 178.069 54.953 185.542C54.5025 178.666 53.3704 176.782 53.3704 176.782L55.9753 179.333C56.7005 176.044 56.9918 172.674 56.8417 169.31Z" fill="url(#paint81_radial_707_26939)"/>
<path d="M93.1554 145.97C93.1554 145.97 95.512 150.138 93.9351 157.043C93.1689 154.798 91.9653 152.729 90.3944 150.955C90.3944 150.955 92.9532 151.68 93.4788 152.567C93.4788 149.819 93.1554 145.97 93.1554 145.97Z" fill="url(#paint82_radial_707_26939)"/>
<path d="M89.7985 195.565C89.7985 195.565 94.6215 204.627 98.9766 206.001C94.581 206.273 89.4346 202.945 89.4346 202.945C89.4346 202.945 91.3927 203.044 93.0619 203.264C90.3761 201.438 89.7985 195.565 89.7985 195.565Z" fill="url(#paint83_linear_707_26939)"/>
<path d="M88.8123 210.412C88.8123 210.412 94.0858 214.598 99.3535 215.92C97.9442 218.059 90.3949 216.922 90.3949 216.922C92.2761 216.782 94.1338 216.416 95.9283 215.833C94.4137 215.521 92.9881 214.872 91.7566 213.934C90.525 212.996 89.5189 211.792 88.8123 210.412Z" fill="url(#paint84_linear_707_26939)"/>
<path d="M76.5145 196.934C76.5145 196.934 77.2943 203.641 80.0898 208.308C77.5888 208.824 73.0489 202.667 73.0489 202.667C74.4803 203.901 76.0528 204.96 77.7332 205.821C76.8798 204.526 76.3273 203.055 76.1163 201.516C75.9054 199.978 76.0415 198.412 76.5145 196.934Z" fill="url(#paint85_linear_707_26939)"/>
<path d="M112.157 213.815C112.157 213.815 123.53 215.479 131.402 211.154C124.991 217.015 118.736 217.781 112.157 213.815Z" fill="url(#paint86_radial_707_26939)"/>
<path d="M113.377 224.772C113.377 224.772 124.017 225.421 128.973 222.569C127.511 225.827 119.835 227.972 113.377 224.772Z" fill="url(#paint87_radial_707_26939)"/>
<path d="M146.358 206C143.274 206.58 154.918 199.762 154.918 199.762C154.086 201.409 152.876 202.833 151.388 203.918C149.899 205.003 148.175 205.716 146.358 206Z" fill="url(#paint88_radial_707_26939)"/>
<path d="M138.243 215.908C138.243 215.908 144.596 213.752 147.074 211.665C146.11 214.644 143.811 216.134 138.243 215.908Z" fill="url(#paint89_radial_707_26939)"/>
<path d="M107.369 178.365C107.369 178.365 110.783 181.345 115.236 180.747C113.971 182.232 110.113 182.539 107.369 178.365Z" fill="url(#paint90_radial_707_26939)"/>
<path d="M102.91 188.968C102.91 188.968 103.731 192.295 107.664 194.307C106.255 195.426 102.454 194.649 102.91 188.968Z" fill="url(#paint91_radial_707_26939)"/>
<path d="M141.597 150.677C141.597 150.677 178.142 139.929 190.693 130.497C190.22 136.787 160.606 154.236 153.484 156.7C146.363 159.164 141.597 150.677 141.597 150.677Z" fill="url(#paint92_linear_707_26939)"/>
<path d="M147.859 158.034C147.859 158.034 186.114 139.454 198.457 126.688C198.186 126.96 198.082 127.9 197.943 128.276C197.712 128.891 197.464 129.5 197.186 130.091C196.909 130.682 196.609 131.303 196.274 131.882C196.053 132.371 195.782 132.835 195.465 133.268C195.252 133.487 195.016 133.681 194.76 133.848C193.449 134.787 192.073 135.631 190.642 136.375C191.357 136.448 192.074 136.272 192.675 135.877C193.269 135.48 193.897 135.139 194.552 134.856C191.439 139.393 187.886 143.611 183.948 147.448C180.008 151.413 175.821 155.135 171.506 158.689C167.717 161.808 163.824 164.805 159.81 167.634C158.077 168.863 156.298 170.063 154.484 171.194C146.057 172.8 147.859 158.034 147.859 158.034Z" fill="url(#paint93_linear_707_26939)"/>
<path d="M158.077 179.779C158.077 179.779 193.802 154.747 207 123.76C206.549 124.804 205.059 125.928 204.274 126.746C203.119 127.905 201.963 129.065 200.808 130.178C198.532 132.329 195.974 134.091 193.704 136.265C193.499 136.399 193.34 136.592 193.248 136.819C193.156 137.046 193.136 137.296 193.19 137.535L193.426 139.911C193.165 139.006 192.757 138.15 192.219 137.378C187.997 141.471 183.261 144.984 178.559 148.503C174.435 151.587 170.253 154.602 165.985 157.489C164.113 158.753 162.23 159.999 160.295 161.158C151.371 166.509 153.202 178.173 158.077 179.779Z" fill="url(#paint94_linear_707_26939)"/>
<path d="M194.184 143.262C193.791 143.656 193.739 145.581 193.606 146.161C193.144 148.575 192.454 150.94 191.544 153.222C191.476 153.41 191.369 153.581 191.232 153.726C191.045 153.875 190.828 153.982 190.597 154.039L188.639 154.66C189.392 154.858 190.172 154.934 190.949 154.886C190.973 155.174 190.911 155.463 190.77 155.715C187.108 164.098 182.788 171.947 176.261 178.446C173.736 180.973 170.965 183.24 167.989 185.211C159.637 184.452 158.499 178.834 158.499 178.834L160.146 177.194C166.782 170.591 173.581 164.086 179.952 157.245C180.027 157.164 180.125 157.071 180.235 157.089C180.344 157.106 180.431 157.234 180.477 157.35C180.937 158.387 181.484 159.384 182.112 160.329C182.175 160.428 182.285 160.544 182.395 160.498C181.944 159.5 181.032 157.802 181.107 156.683C181.176 155.715 182.915 154.526 183.608 153.836L189.054 148.416L194.184 143.262Z" fill="url(#paint95_linear_707_26939)"/>
<path d="M113.48 171.825C111.747 179.6 106.901 195.56 118.615 204.082C117.119 201.183 117.188 196.8 117.188 196.8C117.188 196.8 122.323 210.493 142.475 207.867C140.667 207.322 138.969 206.458 137.462 205.316C137.462 205.316 156.887 206.986 169.507 190.122C178.402 179.988 182.977 172.515 183.26 172.057C182.532 172.498 166.261 182.771 162.466 183.408C167.255 179.653 171.661 175.429 175.618 170.799C175.618 170.799 165.273 172.539 160.953 173.826C163.35 169.698 168.912 166.457 168.912 166.457C163.48 163.835 157.27 163.337 151.492 165.06C155.056 160.614 161.923 157.587 161.923 157.587C161.923 157.587 155.57 151.668 145.404 153.529C146.414 152.294 147.767 151.388 149.291 150.926C144.37 149.9 140.858 148.851 136.532 149.703H136.463C135.36 149.926 134.28 150.246 133.234 150.66C132.772 150.839 132.315 151.031 131.819 151.239C125.892 153.929 121.249 152.654 117.881 154.138C117.758 154.184 117.64 154.242 117.529 154.312C117.144 154.486 116.786 154.714 116.466 154.99L116.397 155.042C108.524 161.738 112.284 171.512 108.31 175.762C108.281 175.808 110.159 175.953 113.48 171.825Z" fill="url(#paint96_linear_707_26939)"/>
<path d="M116.848 181.321C114.538 189.008 121.839 198.359 128.175 200.075C122.318 195.275 124.524 188.139 124.524 188.139C124.524 188.139 125.477 199.6 151.573 192.956C142.753 192.672 137.284 190.742 137.284 190.742C137.284 190.742 154.259 190.162 164.512 177.652C154.15 182.289 149.367 179.194 149.367 179.194C149.367 179.194 157.274 168.121 163.079 167.292C154.929 166.492 145.786 169.077 145.786 169.077C145.786 169.077 148.506 161.57 152.717 159.837C145.624 158.677 142.164 159.037 137.838 160.451C140.432 155.883 143.47 155.813 143.683 155.813C143.169 155.761 134.026 154.712 127.869 156.393C121.567 158.132 130.41 151.274 136.446 149.732C134.852 150.068 133.302 150.586 131.825 151.274C125.899 153.964 121.255 152.689 117.888 154.173C113.481 160.811 119.159 173.617 116.848 181.321Z" fill="url(#paint97_radial_707_26939)"/>
<path d="M116.155 174.022C118.523 172.677 118.344 163.129 118.344 163.129C118.344 163.129 119.528 180.005 126.095 182.452C124.677 179.218 124.294 175.623 124.998 172.161C124.998 172.161 127.187 177.083 139.963 176.04C133.645 173.593 132.056 170.903 132.056 170.903C134.731 170.872 137.354 170.168 139.688 168.856C142.022 167.545 143.991 165.668 145.416 163.396C140.796 163.694 136.163 163.062 131.79 161.535C131.79 161.535 133.523 157.564 137.104 157.303C135.077 155.952 128.689 155.616 126.43 156.631C129.896 154.184 136.827 152.503 136.827 152.503C135.736 151.69 134.512 151.072 133.211 150.677C132.749 150.856 132.293 151.048 131.796 151.256C125.87 153.946 121.226 152.671 117.859 154.155C117.736 154.201 117.618 154.26 117.506 154.329C116.975 154.665 116.605 154.909 116.444 155.007L116.374 155.059C112.435 160.381 116.831 168.196 116.155 174.022Z" fill="url(#paint98_radial_707_26939)"/>
<path d="M31.5249 221.131C31.5249 221.131 41.0379 234.732 68.0234 246.778C42.609 233.688 32.27 220.691 30.3639 218.244C30.5028 219.289 30.9021 220.282 31.5249 221.131Z" fill="url(#paint99_radial_707_26939)"/>
<path d="M11.8688 189.849C11.8342 189.565 11.6378 188.4 11.4241 186.748C13.2782 198.389 18.8 215.659 34.5801 231.491C34.1411 230.517 33.7483 229.595 33.4249 228.726C33.4249 228.726 28.3767 226.14 20.3307 210.146C12.2847 194.151 11.4356 182.939 11.4356 182.939L11.1757 184.945C11.1757 184.945 8.55917 172.614 8.13752 167.976C6.98232 145.946 10.8003 135.703 11.1179 134.932C11.014 135.459 10.0783 140.103 10.2227 143.112C11.4761 133.036 16.9633 112.734 16.9633 112.734L16.8708 112.827C16.4838 114.293 16.0969 115.725 15.7445 117.076C11.555 128.555 8.71141 140.485 7.27112 152.625C5.76358 171.466 11.4992 188.771 11.8688 189.849Z" fill="url(#paint100_radial_707_26939)"/>
<path d="M38.4505 55.7524C37.9942 66.0889 37.8729 76.5472 41.4714 75.5617C45.942 74.3558 43.0598 71.4398 49.5578 69.318C56.0558 67.1962 63.6166 72.1355 67.6887 70.0948C71.7608 68.0542 76.8552 73.179 78.9403 73.4631C81.0255 73.7471 83.2492 71.6137 84.1387 67.2252C85.0282 62.8366 79.5179 63.3468 80.5172 56.8828C81.3836 51.2943 80.2399 51.7696 75.1455 49.9609C74.3715 49.6826 73.4878 49.3464 72.5232 48.9406C65.2165 45.8158 72.5867 39.6244 66.8396 33.7981C61.0925 27.9718 58.4528 32.8068 52.8443 33.5546C47.2358 34.3025 41.3905 19.8209 37.2491 24.3543C33.1077 28.8878 38.7335 30.969 38.8895 42.0882C38.9415 45.6419 38.6816 50.4827 38.4736 55.3814L38.4505 55.7524Z" fill="url(#paint101_radial_707_26939)"/>
<path d="M41.4714 75.5617C45.942 74.3559 43.0598 71.4398 49.5578 69.318C56.0558 67.1962 63.6166 72.1355 67.6887 70.0949C71.7608 68.0542 76.8552 73.179 78.9403 73.4631C81.0255 73.7472 83.2492 71.6138 84.1387 67.2252C85.0282 62.8367 79.5179 63.3469 80.5172 56.8829C81.3836 51.2943 80.2399 51.7697 75.1455 49.9609C79.4659 51.561 79.4082 56.5003 76.6068 58.9409C73.8055 61.3816 83.2146 62.9237 80.9215 67.6368C78.6284 72.35 72.1651 55.0567 67.2555 63.3063C64.1422 68.5238 52.2956 63.3411 46.9008 68.7267C41.506 74.1124 38.1444 65.573 38.4447 55.7408C37.9942 66.089 37.8671 76.5473 41.4714 75.5617Z" fill="url(#paint102_radial_707_26939)"/>
<path d="M42.061 62.4307C40.2935 69.2367 43.3779 40.5344 41.7317 35.6241C40.0856 30.7138 38.0062 25.044 39.7563 25.1484C41.5065 25.2527 44.562 34.4646 49.1019 35.0617C53.6419 35.6589 52.2094 40.6445 48.5994 42.4938C44.9894 44.3432 44.5678 52.7956 42.061 62.4307Z" fill="url(#paint103_radial_707_26939)"/>
<path d="M64.3842 33.978C66.6542 40.268 65.8224 44.9928 62.8016 51.0799C59.7807 57.1671 61.0283 61.8745 62.3048 61.8977C63.5813 61.9209 65.7242 51.9148 71.893 52.1756C73.5161 51.8162 67.7401 50.8539 67.2376 49.277C66.735 47.7001 70.0909 32.9982 64.3842 33.978Z" fill="url(#paint104_radial_707_26939)"/>
</g>
<defs>
<radialGradient id="paint0_radial_707_26939" cx="0" cy="0" r="1" gradientUnits="userSpaceOnUse" gradientTransform="translate(91.6703 284.793) rotate(90) scale(9.18154 91.223)">
<stop stop-color="#D9D9D9"/>
<stop offset="1" stop-color="#D9D9D9" stop-opacity="0"/>
</radialGradient>
<linearGradient id="paint1_linear_707_26939" x1="189.955" y1="115.626" x2="180.681" y2="87.1064" gradientUnits="userSpaceOnUse">
<stop stop-color="#006837"/>
<stop offset="0.41" stop-color="#11452C"/>
<stop offset="0.78" stop-color="#1D2B25"/>
<stop offset="1" stop-color="#222222"/>
</linearGradient>
<linearGradient id="paint2_linear_707_26939" x1="131.947" y1="33.4907" x2="117.252" y2="113.404" gradientUnits="userSpaceOnUse">
<stop stop-color="#006837"/>
<stop offset="0.41" stop-color="#11452C"/>
<stop offset="0.78" stop-color="#1D2B25"/>
<stop offset="1" stop-color="#222222"/>
</linearGradient>
<linearGradient id="paint3_linear_707_26939" x1="105.072" y1="28.6849" x2="141.366" y2="95.3171" gradientUnits="userSpaceOnUse">
<stop stop-color="#006837"/>
<stop offset="0.41" stop-color="#11452C"/>
<stop offset="0.78" stop-color="#1D2B25"/>
<stop offset="1" stop-color="#222222"/>
</linearGradient>
<linearGradient id="paint4_linear_707_26939" x1="172.499" y1="17.5657" x2="134.964" y2="93.8125" gradientUnits="userSpaceOnUse">
<stop stop-color="#006837"/>
<stop offset="0.41" stop-color="#11452C"/>
<stop offset="0.78" stop-color="#1D2B25"/>
<stop offset="1" stop-color="#222222"/>
</linearGradient>
<linearGradient id="paint5_linear_707_26939" x1="155.368" y1="41.6129" x2="155.933" y2="108.913" gradientUnits="userSpaceOnUse">
<stop stop-color="#006837"/>
<stop offset="0.41" stop-color="#11452C"/>
<stop offset="0.78" stop-color="#1D2B25"/>
<stop offset="1" stop-color="#222222"/>
</linearGradient>
<linearGradient id="paint6_linear_707_26939" x1="178.491" y1="83.0459" x2="162.79" y2="135.555" gradientUnits="userSpaceOnUse">
<stop stop-color="#006837"/>
<stop offset="0.41" stop-color="#11452C"/>
<stop offset="0.78" stop-color="#1D2B25"/>
<stop offset="1" stop-color="#222222"/>
</linearGradient>
<radialGradient id="paint7_radial_707_26939" cx="0" cy="0" r="1" gradientUnits="userSpaceOnUse" gradientTransform="translate(144.785 73.0979) rotate(180) scale(30.4569 30.569)">
<stop stop-color="#FEAC01"/>
<stop offset="1" stop-color="#B30301"/>
</radialGradient>
<radialGradient id="paint8_radial_707_26939" cx="0" cy="0" r="1" gradientUnits="userSpaceOnUse" gradientTransform="translate(155.963 93.197) rotate(180) scale(23.2195 23.3051)">
<stop stop-color="#FEAC01"/>
<stop offset="1" stop-color="#B30301"/>
</radialGradient>
<radialGradient id="paint9_radial_707_26939" cx="0" cy="0" r="1" gradientUnits="userSpaceOnUse" gradientTransform="translate(166.672 112.56) rotate(180) scale(19.1359 19.2064)">
<stop stop-color="#FEAC01"/>
<stop offset="1" stop-color="#B30301"/>
</radialGradient>
<radialGradient id="paint10_radial_707_26939" cx="0" cy="0" r="1" gradientUnits="userSpaceOnUse" gradientTransform="translate(121.866 92.7913) rotate(180) scale(23.1791 23.2645)">
<stop stop-color="#FEAC01"/>
<stop offset="1" stop-color="#B30301"/>
</radialGradient>
<radialGradient id="paint11_radial_707_26939" cx="0" cy="0" r="1" gradientUnits="userSpaceOnUse" gradientTransform="translate(151.04 282.879) rotate(162.901) scale(33.8177 33.9207)">
<stop stop-color="#FED501"/>
<stop offset="0.08" stop-color="#FEC401"/>
<stop offset="0.28" stop-color="#FD9B02"/>
<stop offset="0.44" stop-color="#FD8202"/>
<stop offset="0.54" stop-color="#FD7902"/>
<stop offset="1" stop-color="#E06F01"/>
</radialGradient>
<radialGradient id="paint12_radial_707_26939" cx="0" cy="0" r="1" gradientUnits="userSpaceOnUse" gradientTransform="translate(129.545 277.146) rotate(162.901) scale(29.7327 29.8233)">
<stop offset="0.07" stop-color="#FED501"/>
<stop offset="0.79" stop-color="#FD7902"/>
<stop offset="1" stop-color="#E06F01"/>
</radialGradient>
<radialGradient id="paint13_radial_707_26939" cx="0" cy="0" r="1" gradientUnits="userSpaceOnUse" gradientTransform="translate(139.441 284.586) rotate(162.901) scale(5.14228 5.15795)">
<stop offset="0.07" stop-color="#FED501"/>
<stop offset="0.79" stop-color="#FD7902"/>
<stop offset="1" stop-color="#E06F01"/>
</radialGradient>
<radialGradient id="paint14_radial_707_26939" cx="0" cy="0" r="1" gradientUnits="userSpaceOnUse" gradientTransform="translate(129.566 285.155) rotate(-176.427) scale(5.14072 5.15952)">
<stop offset="0.07" stop-color="#FED501"/>
<stop offset="0.79" stop-color="#FD7902"/>
<stop offset="1" stop-color="#E06F01"/>
</radialGradient>
<radialGradient id="paint15_radial_707_26939" cx="0" cy="0" r="1" gradientUnits="userSpaceOnUse" gradientTransform="translate(124.206 278.822) rotate(-166.803) scale(5.14162 5.15857)">
<stop offset="0.07" stop-color="#FED501"/>
<stop offset="0.79" stop-color="#FD7902"/>
<stop offset="1" stop-color="#E06F01"/>
</radialGradient>
<radialGradient id="paint16_radial_707_26939" cx="0" cy="0" r="1" gradientUnits="userSpaceOnUse" gradientTransform="translate(71.5851 286.289) rotate(-156.934) scale(33.9762 34.063)">
<stop stop-color="#FED501"/>
<stop offset="0.08" stop-color="#FEC401"/>
<stop offset="0.28" stop-color="#FD9B02"/>
<stop offset="0.44" stop-color="#FD8202"/>
<stop offset="0.54" stop-color="#FD7902"/>
<stop offset="1" stop-color="#E06F01"/>
</radialGradient>
<radialGradient id="paint17_radial_707_26939" cx="0" cy="0" r="1" gradientUnits="userSpaceOnUse" gradientTransform="translate(58.4656 267.873) rotate(-156.934) scale(29.9944 30.071)">
<stop offset="0.07" stop-color="#FED501"/>
<stop offset="0.79" stop-color="#FD7902"/>
<stop offset="1" stop-color="#E06F01"/>
</radialGradient>
<radialGradient id="paint18_radial_707_26939" cx="0" cy="0" r="1" gradientUnits="userSpaceOnUse" gradientTransform="translate(62.1715 279.749) rotate(-172.523) scale(5.14097 5.15925)">
<stop offset="0.07" stop-color="#FED501"/>
<stop offset="0.79" stop-color="#FD7902"/>
<stop offset="1" stop-color="#E06F01"/>
</radialGradient>
<radialGradient id="paint19_radial_707_26939" cx="0" cy="0" r="1" gradientUnits="userSpaceOnUse" gradientTransform="translate(53.7106 274.971) rotate(-151.011) scale(5.14508 5.15513)">
<stop offset="0.07" stop-color="#FED501"/>
<stop offset="0.79" stop-color="#FD7902"/>
<stop offset="1" stop-color="#E06F01"/>
</radialGradient>
<radialGradient id="paint20_radial_707_26939" cx="0" cy="0" r="1" gradientUnits="userSpaceOnUse" gradientTransform="translate(52.6052 266.479) rotate(-124.951) scale(5.15334 5.14687)">
<stop offset="0.07" stop-color="#FED501"/>
<stop offset="0.79" stop-color="#FD7902"/>
<stop offset="1" stop-color="#E06F01"/>
</radialGradient>
<linearGradient id="paint21_linear_707_26939" x1="149.062" y1="75.6197" x2="135.207" y2="139.548" gradientUnits="userSpaceOnUse">
<stop stop-color="#BABABA"/>
<stop offset="0.09" stop-color="#A7A7A7"/>
<stop offset="0.4" stop-color="#6E6E6E"/>
<stop offset="0.67" stop-color="#454545"/>
<stop offset="0.88" stop-color="#2B2B2B"/>
<stop offset="1" stop-color="#222222"/>
</linearGradient>
<linearGradient id="paint22_linear_707_26939" x1="66.3146" y1="284.443" x2="81.9106" y2="232.804" gradientUnits="userSpaceOnUse">
<stop stop-color="#BABABA"/>
<stop offset="0.15" stop-color="#AAAAAA"/>
<stop offset="0.43" stop-color="#828282"/>
<stop offset="0.83" stop-color="#414141"/>
<stop offset="1" stop-color="#222222"/>
</linearGradient>
<radialGradient id="paint23_radial_707_26939" cx="0" cy="0" r="1" gradientUnits="userSpaceOnUse" gradientTransform="translate(69.1275 258.785) rotate(180) scale(32.8308 28.3385)">
<stop stop-color="#F2F2F2"/>
<stop offset="0.1" stop-color="#EEEDEC"/>
<stop offset="0.23" stop-color="#E2DFDC"/>
<stop offset="0.38" stop-color="#CEC7C2"/>
<stop offset="0.54" stop-color="#B2A69D"/>
<stop offset="0.71" stop-color="#8E7B6E"/>
<stop offset="0.88" stop-color="#634836"/>
<stop offset="1" stop-color="#42210B"/>
</radialGradient>
<linearGradient id="paint24_linear_707_26939" x1="137.271" y1="277" x2="126.667" y2="227.791" gradientUnits="userSpaceOnUse">
<stop stop-color="#BABABA"/>
<stop offset="0.15" stop-color="#AAAAAA"/>
<stop offset="0.43" stop-color="#828282"/>
<stop offset="0.83" stop-color="#414141"/>
<stop offset="1" stop-color="#222222"/>
</linearGradient>
<radialGradient id="paint25_radial_707_26939" cx="0" cy="0" r="1" gradientUnits="userSpaceOnUse" gradientTransform="translate(135.999 252.674) rotate(167.176) scale(41.0326 22.8586)">
<stop stop-color="#F2F2F2"/>
<stop offset="0.1" stop-color="#EEEDEC"/>
<stop offset="0.23" stop-color="#E2DFDC"/>
<stop offset="0.38" stop-color="#CEC7C2"/>
<stop offset="0.54" stop-color="#B2A69D"/>
<stop offset="0.71" stop-color="#8E7B6E"/>
<stop offset="0.88" stop-color="#634836"/>
<stop offset="1" stop-color="#42210B"/>
</radialGradient>
<linearGradient id="paint26_linear_707_26939" x1="114.867" y1="78.5298" x2="70.5606" y2="283.205" gradientUnits="userSpaceOnUse">
<stop stop-color="#BABABA"/>
<stop offset="0.15" stop-color="#AAAAAA"/>
<stop offset="0.43" stop-color="#828282"/>
<stop offset="0.83" stop-color="#414141"/>
<stop offset="1" stop-color="#222222"/>
</linearGradient>
<radialGradient id="paint27_radial_707_26939" cx="0" cy="0" r="1" gradientUnits="userSpaceOnUse" gradientTransform="translate(80.7422 190.122) rotate(180) scale(77.283 77.5676)">
<stop stop-color="#B3B3B3"/>
<stop offset="0.21" stop-color="#AEAEAE"/>
<stop offset="0.45" stop-color="#A0A0A0"/>
<stop offset="0.71" stop-color="#898989"/>
<stop offset="0.98" stop-color="#686868"/>
<stop offset="1" stop-color="#666666"/>
</radialGradient>
<radialGradient id="paint28_radial_707_26939" cx="0" cy="0" r="1" gradientUnits="userSpaceOnUse" gradientTransform="translate(116.19 236.627) rotate(180) scale(8.84307 8.87562)">
<stop stop-color="#B3B3B3"/>
<stop offset="0.21" stop-color="#AEAEAE"/>
<stop offset="0.45" stop-color="#A0A0A0"/>
<stop offset="0.71" stop-color="#898989"/>
<stop offset="0.98" stop-color="#686868"/>
<stop offset="1" stop-color="#666666"/>
</radialGradient>
<radialGradient id="paint29_radial_707_26939" cx="0" cy="0" r="1" gradientUnits="userSpaceOnUse" gradientTransform="translate(106.267 245.347) rotate(180) scale(7.01785 7.04368)">
<stop stop-color="#B3B3B3"/>
<stop offset="0.21" stop-color="#AEAEAE"/>
<stop offset="0.45" stop-color="#A0A0A0"/>
<stop offset="0.71" stop-color="#898989"/>
<stop offset="0.98" stop-color="#686868"/>
<stop offset="1" stop-color="#666666"/>
</radialGradient>
<radialGradient id="paint30_radial_707_26939" cx="0" cy="0" r="1" gradientUnits="userSpaceOnUse" gradientTransform="translate(145.035 223.734) rotate(180) scale(5.54497 5.56539)">
<stop stop-color="#B3B3B3"/>
<stop offset="0.21" stop-color="#AEAEAE"/>
<stop offset="0.45" stop-color="#A0A0A0"/>
<stop offset="0.71" stop-color="#898989"/>
<stop offset="0.98" stop-color="#686868"/>
<stop offset="1" stop-color="#666666"/>
</radialGradient>
<radialGradient id="paint31_radial_707_26939" cx="0" cy="0" r="1" gradientUnits="userSpaceOnUse" gradientTransform="translate(137.341 232.575) rotate(180) scale(3.54647 3.55953)">
<stop stop-color="#B3B3B3"/>
<stop offset="0.21" stop-color="#AEAEAE"/>
<stop offset="0.45" stop-color="#A0A0A0"/>
<stop offset="0.71" stop-color="#898989"/>
<stop offset="0.98" stop-color="#686868"/>
<stop offset="1" stop-color="#666666"/>
</radialGradient>
<linearGradient id="paint32_linear_707_26939" x1="80.9268" y1="224.992" x2="77.3669" y2="241.434" gradientUnits="userSpaceOnUse">
<stop stop-color="#BABABA"/>
<stop offset="0.15" stop-color="#AAAAAA"/>
<stop offset="0.43" stop-color="#828282"/>
<stop offset="0.83" stop-color="#414141"/>
<stop offset="1" stop-color="#222222"/>
</linearGradient>
<linearGradient id="paint33_linear_707_26939" x1="89.9097" y1="226.047" x2="87.8389" y2="235.616" gradientUnits="userSpaceOnUse">
<stop stop-color="#BABABA"/>
<stop offset="0.15" stop-color="#AAAAAA"/>
<stop offset="0.43" stop-color="#828282"/>
<stop offset="0.83" stop-color="#414141"/>
<stop offset="1" stop-color="#222222"/>
</linearGradient>
<linearGradient id="paint34_linear_707_26939" x1="63.4133" y1="214.123" x2="59.8419" y2="230.616" gradientUnits="userSpaceOnUse">
<stop stop-color="#BABABA"/>
<stop offset="0.15" stop-color="#AAAAAA"/>
<stop offset="0.43" stop-color="#828282"/>
<stop offset="0.83" stop-color="#414141"/>
<stop offset="1" stop-color="#222222"/>
</linearGradient>
<linearGradient id="paint35_linear_707_26939" x1="71.4112" y1="207.046" x2="70.8594" y2="226.462" gradientUnits="userSpaceOnUse">
<stop stop-color="#BABABA"/>
<stop offset="0.15" stop-color="#AAAAAA"/>
<stop offset="0.43" stop-color="#828282"/>
<stop offset="0.83" stop-color="#414141"/>
<stop offset="1" stop-color="#222222"/>
</linearGradient>
<linearGradient id="paint36_linear_707_26939" x1="67.5469" y1="192.7" x2="61.1972" y2="211.046" gradientUnits="userSpaceOnUse">
<stop stop-color="#BABABA"/>
<stop offset="0.15" stop-color="#AAAAAA"/>
<stop offset="0.43" stop-color="#828282"/>
<stop offset="0.83" stop-color="#414141"/>
<stop offset="1" stop-color="#222222"/>
</linearGradient>
<radialGradient id="paint37_radial_707_26939" cx="0" cy="0" r="1" gradientUnits="userSpaceOnUse" gradientTransform="translate(126.667 110.519) rotate(180) scale(48.9574 49.1377)">
<stop stop-color="#FFE54D"/>
<stop offset="0.22" stop-color="#FFE14B"/>
<stop offset="0.43" stop-color="#FFD646"/>
<stop offset="0.63" stop-color="#FFC33E"/>
<stop offset="0.82" stop-color="#FEA932"/>
<stop offset="1" stop-color="#FE8A24"/>
</radialGradient>
<radialGradient id="paint38_radial_707_26939" cx="0" cy="0" r="1" gradientUnits="userSpaceOnUse" gradientTransform="translate(126.921 139.512) rotate(180) scale(27.4071 27.5081)">
<stop stop-color="white"/>
<stop offset="0.26" stop-color="#FAFAFA"/>
<stop offset="0.57" stop-color="#ECECEC"/>
<stop offset="0.9" stop-color="#D5D5D5"/>
<stop offset="1" stop-color="#CCCCCC"/>
</radialGradient>
<radialGradient id="paint39_radial_707_26939" cx="0" cy="0" r="1" gradientUnits="userSpaceOnUse" gradientTransform="translate(85.7328 180.127) rotate(180) scale(40.5533 40.7027)">
<stop stop-color="#FE8A24"/>
<stop offset="0.4" stop-color="#FEAC33"/>
<stop offset="1" stop-color="#FFE54D"/>
</radialGradient>
<linearGradient id="paint40_linear_707_26939" x1="34.3601" y1="73.5383" x2="68.1703" y2="214.657" gradientUnits="userSpaceOnUse">
<stop stop-color="#BABABA"/>
<stop offset="0.09" stop-color="#A7A7A7"/>
<stop offset="0.4" stop-color="#6E6E6E"/>
<stop offset="0.67" stop-color="#454545"/>
<stop offset="0.88" stop-color="#2B2B2B"/>
<stop offset="1" stop-color="#222222"/>
</linearGradient>
<radialGradient id="paint41_radial_707_26939" cx="0" cy="0" r="1" gradientUnits="userSpaceOnUse" gradientTransform="translate(61.0051 113.534) rotate(180) scale(77.1617 77.4458)">
<stop stop-color="white"/>
<stop offset="0.26" stop-color="#FAFAFA"/>
<stop offset="0.57" stop-color="#ECECEC"/>
<stop offset="0.9" stop-color="#D5D5D5"/>
<stop offset="1" stop-color="#CCCCCC"/>
</radialGradient>
<radialGradient id="paint42_radial_707_26939" cx="0" cy="0" r="1" gradientUnits="userSpaceOnUse" gradientTransform="translate(24.9048 183.06) rotate(180) scale(7.75718 7.78574)">
<stop stop-color="white"/>
<stop offset="0.26" stop-color="#FAFAFA"/>
<stop offset="0.57" stop-color="#ECECEC"/>
<stop offset="0.9" stop-color="#D5D5D5"/>
<stop offset="1" stop-color="#CCCCCC"/>
</radialGradient>
<radialGradient id="paint43_radial_707_26939" cx="0" cy="0" r="1" gradientUnits="userSpaceOnUse" gradientTransform="translate(16.0284 180.203) rotate(180) scale(7.72252 7.75096)">
<stop stop-color="white"/>
<stop offset="0.26" stop-color="#FAFAFA"/>
<stop offset="0.57" stop-color="#ECECEC"/>
<stop offset="0.9" stop-color="#D5D5D5"/>
<stop offset="1" stop-color="#CCCCCC"/>
</radialGradient>
<radialGradient id="paint44_radial_707_26939" cx="0" cy="0" r="1" gradientUnits="userSpaceOnUse" gradientTransform="translate(99.3293 154.422) rotate(180) scale(123.855 124.311)">
<stop stop-color="#F2F2F2"/>
<stop offset="0.1" stop-color="#EEEDEC"/>
<stop offset="0.23" stop-color="#E2DFDC"/>
<stop offset="0.38" stop-color="#CEC7C2"/>
<stop offset="0.54" stop-color="#B2A69D"/>
<stop offset="0.71" stop-color="#8E7B6E"/>
<stop offset="0.88" stop-color="#634836"/>
<stop offset="1" stop-color="#42210B"/>
</radialGradient>
<radialGradient id="paint45_radial_707_26939" cx="0" cy="0" r="1" gradientUnits="userSpaceOnUse" gradientTransform="translate(18.9797 95.8636) scale(24.4845 24.5747)">
<stop stop-color="#9D0001"/>
<stop offset="0.32" stop-color="#980001"/>
<stop offset="0.7" stop-color="#8A0002"/>
<stop offset="1" stop-color="#790002"/>
</radialGradient>
<radialGradient id="paint46_radial_707_26939" cx="0" cy="0" r="1" gradientUnits="userSpaceOnUse" gradientTransform="translate(26.2479 93.4802) rotate(-164.024) scale(18.0204 24.7651)">
<stop stop-color="#F2F2F2"/>
<stop offset="0.14" stop-color="#EDEDED"/>
<stop offset="0.31" stop-color="#DFDFDF"/>
<stop offset="0.49" stop-color="#C7C7C7"/>
<stop offset="0.59" stop-color="#D8D8D8"/>
<stop offset="0.7" stop-color="#F2F2F2"/>
</radialGradient>
<radialGradient id="paint47_radial_707_26939" cx="0" cy="0" r="1" gradientUnits="userSpaceOnUse" gradientTransform="translate(23.8789 84.0893) scale(9.08565 9.11912)">
<stop stop-color="#730001"/>
<stop offset="0.32" stop-color="#6E0001"/>
<stop offset="0.7" stop-color="#600001"/>
<stop offset="1" stop-color="#4F0001"/>
</radialGradient>
<radialGradient id="paint48_radial_707_26939" cx="0" cy="0" r="1" gradientUnits="userSpaceOnUse" gradientTransform="translate(21.2308 96.3737) rotate(180) scale(7.28354 7.31037)">
<stop stop-color="#FFE54D"/>
<stop offset="0.22" stop-color="#FFE14B"/>
<stop offset="0.43" stop-color="#FFD646"/>
<stop offset="0.63" stop-color="#FFC33E"/>
<stop offset="0.82" stop-color="#FEA932"/>
<stop offset="1" stop-color="#FE8A24"/>
</radialGradient>
<radialGradient id="paint49_radial_707_26939" cx="0" cy="0" r="1" gradientUnits="userSpaceOnUse" gradientTransform="translate(10.8823 103.475) scale(16.3345 16.3947)">
<stop stop-color="#FB6A00"/>
<stop offset="1" stop-color="#EB0401"/>
</radialGradient>
<radialGradient id="paint50_radial_707_26939" cx="0" cy="0" r="1" gradientUnits="userSpaceOnUse" gradientTransform="translate(11.5685 100.908) scale(8.20188 8.23213)">
<stop stop-color="white"/>
<stop offset="1" stop-color="white" stop-opacity="0"/>
</radialGradient>
<radialGradient id="paint51_radial_707_26939" cx="0" cy="0" r="1" gradientUnits="userSpaceOnUse" gradientTransform="translate(11.4821 100.455) scale(8.20194 8.23213)">
<stop stop-color="white"/>
<stop offset="1" stop-color="white" stop-opacity="0"/>
</radialGradient>
<radialGradient id="paint52_radial_707_26939" cx="0" cy="0" r="1" gradientUnits="userSpaceOnUse" gradientTransform="translate(70.4327 92.7736) scale(24.7906 24.8819)">
<stop stop-color="#9D0001"/>
<stop offset="0.32" stop-color="#980001"/>
<stop offset="0.7" stop-color="#8A0002"/>
<stop offset="1" stop-color="#790002"/>
</radialGradient>
<radialGradient id="paint53_radial_707_26939" cx="0" cy="0" r="1" gradientUnits="userSpaceOnUse" gradientTransform="translate(68.7098 95.3721) rotate(-18.6795) scale(24.2351 33.2772)">
<stop stop-color="#F2F2F2"/>
<stop offset="0.14" stop-color="#EDEDED"/>
<stop offset="0.31" stop-color="#DFDFDF"/>
<stop offset="0.49" stop-color="#C7C7C7"/>
<stop offset="0.59" stop-color="#D8D8D8"/>
<stop offset="0.7" stop-color="#F2F2F2"/>
</radialGradient>
<radialGradient id="paint54_radial_707_26939" cx="0" cy="0" r="1" gradientUnits="userSpaceOnUse" gradientTransform="translate(68.9123 86.1244) scale(18.2118 18.2788)">
<stop stop-color="#730001"/>
<stop offset="0.32" stop-color="#6E0001"/>
<stop offset="0.7" stop-color="#600001"/>
<stop offset="1" stop-color="#4F0001"/>
</radialGradient>
<radialGradient id="paint55_radial_707_26939" cx="0" cy="0" r="1" gradientUnits="userSpaceOnUse" gradientTransform="translate(71.9103 96.2083) rotate(-180) scale(7.76295 7.79154)">
<stop stop-color="#FFE54D"/>
<stop offset="0.22" stop-color="#FFE14B"/>
<stop offset="0.43" stop-color="#FFD646"/>
<stop offset="0.63" stop-color="#FFC33E"/>
<stop offset="0.82" stop-color="#FEA932"/>
<stop offset="1" stop-color="#FE8A24"/>
</radialGradient>
<radialGradient id="paint56_radial_707_26939" cx="0" cy="0" r="1" gradientUnits="userSpaceOnUse" gradientTransform="translate(74.2963 103.029) scale(21.8911 21.9717)">
<stop stop-color="#9D0001"/>
<stop offset="0.32" stop-color="#980001"/>
<stop offset="0.7" stop-color="#8A0002"/>
<stop offset="1" stop-color="#790002"/>
</radialGradient>
<radialGradient id="paint57_radial_707_26939" cx="0" cy="0" r="1" gradientUnits="userSpaceOnUse" gradientTransform="translate(63.5824 106.154) scale(28.5508 28.6559)">
<stop stop-color="#FB6A00"/>
<stop offset="1" stop-color="#EB0401"/>
</radialGradient>
<radialGradient id="paint58_radial_707_26939" cx="0" cy="0" r="1" gradientUnits="userSpaceOnUse" gradientTransform="translate(70.4313 99.3653) scale(17.2818 17.3455)">
<stop stop-color="white"/>
<stop offset="1" stop-color="white" stop-opacity="0"/>
</radialGradient>
<radialGradient id="paint59_radial_707_26939" cx="0" cy="0" r="1" gradientUnits="userSpaceOnUse" gradientTransform="translate(38.2206 113.429) scale(40.357 40.5056)">
<stop stop-color="#730001"/>
<stop offset="0.32" stop-color="#6E0001"/>
<stop offset="0.7" stop-color="#600001"/>
<stop offset="1" stop-color="#4F0001"/>
</radialGradient>
<radialGradient id="paint60_radial_707_26939" cx="0" cy="0" r="1" gradientUnits="userSpaceOnUse" gradientTransform="translate(33.2287 121.528) scale(39.6061 39.7519)">
<stop stop-color="#F12A05"/>
<stop offset="1" stop-color="#4F0001"/>
</radialGradient>
<radialGradient id="paint61_radial_707_26939" cx="0" cy="0" r="1" gradientUnits="userSpaceOnUse" gradientTransform="translate(15.0287 123.859) scale(34.0496 34.175)">
<stop stop-color="#FB6A00"/>
<stop offset="1" stop-color="#EB0401"/>
</radialGradient>
<radialGradient id="paint62_radial_707_26939" cx="0" cy="0" r="1" gradientUnits="userSpaceOnUse" gradientTransform="translate(42.7533 125.355) scale(29.0706 29.1777)">
<stop stop-color="#FB6A00"/>
<stop offset="1" stop-color="#EB0401"/>
</radialGradient>
<radialGradient id="paint63_radial_707_26939" cx="0" cy="0" r="1" gradientUnits="userSpaceOnUse" gradientTransform="translate(22.9881 100.194) scale(44.9604 45.126)">
<stop stop-color="#FB6A00"/>
<stop offset="1" stop-color="#EB0401"/>
</radialGradient>
<radialGradient id="paint64_radial_707_26939" cx="0" cy="0" r="1" gradientUnits="userSpaceOnUse" gradientTransform="translate(32.0035 120.114) scale(42.1591 42.3143)">
<stop stop-color="#FED501"/>
<stop offset="0.48" stop-color="#FD7902"/>
<stop offset="1" stop-color="#E06F01"/>
</radialGradient>
<radialGradient id="paint65_radial_707_26939" cx="0" cy="0" r="1" gradientUnits="userSpaceOnUse" gradientTransform="translate(29.0057 121.673) scale(34.8697 34.9982)">
<stop stop-color="#FED501"/>
<stop offset="0.48" stop-color="#FD7902"/>
<stop offset="1" stop-color="#E06F01"/>
</radialGradient>
<radialGradient id="paint66_radial_707_26939" cx="0" cy="0" r="1" gradientUnits="userSpaceOnUse" gradientTransform="translate(33.5467 104.809) scale(42.1186 42.2738)">
<stop offset="0.07" stop-color="#FED501"/>
<stop offset="0.79" stop-color="#FD7902"/>
<stop offset="1" stop-color="#E06F01"/>
</radialGradient>
<radialGradient id="paint67_radial_707_26939" cx="0" cy="0" r="1" gradientUnits="userSpaceOnUse" gradientTransform="translate(27.9613 109.969) scale(37.0762 37.2127)">
<stop stop-color="#FED501"/>
<stop offset="0.08" stop-color="#FEC401"/>
<stop offset="0.28" stop-color="#FD9B02"/>
<stop offset="0.44" stop-color="#FD8202"/>
<stop offset="0.54" stop-color="#FD7902"/>
<stop offset="1" stop-color="#E06F01"/>
</radialGradient>
<radialGradient id="paint68_radial_707_26939" cx="0" cy="0" r="1" gradientUnits="userSpaceOnUse" gradientTransform="translate(43.6781 132.943) scale(15.1158 15.1715)">
<stop stop-color="white"/>
<stop offset="1" stop-color="white" stop-opacity="0"/>
</radialGradient>
<radialGradient id="paint69_radial_707_26939" cx="0" cy="0" r="1" gradientUnits="userSpaceOnUse" gradientTransform="translate(13.4163 128.856) scale(18.1886 18.2556)">
<stop stop-color="white"/>
<stop offset="1" stop-color="white" stop-opacity="0"/>
</radialGradient>
<radialGradient id="paint70_radial_707_26939" cx="0" cy="0" r="1" gradientUnits="userSpaceOnUse" gradientTransform="translate(24.68 104.67) scale(11.7715 11.8148)">
<stop stop-color="white"/>
<stop offset="1" stop-color="white" stop-opacity="0"/>
</radialGradient>
<radialGradient id="paint71_radial_707_26939" cx="0" cy="0" r="1" gradientUnits="userSpaceOnUse" gradientTransform="translate(42.3089 103.933) rotate(180) scale(17.7786 17.844)">
<stop stop-color="#730001"/>
<stop offset="0.32" stop-color="#6E0001"/>
<stop offset="0.7" stop-color="#600001"/>
<stop offset="1" stop-color="#4F0001"/>
</radialGradient>
<radialGradient id="paint72_radial_707_26939" cx="0" cy="0" r="1" gradientUnits="userSpaceOnUse" gradientTransform="translate(40.6112 98.6466) rotate(180) scale(5.7298 5.75089)">
<stop stop-color="#FB6A00"/>
<stop offset="1" stop-color="#EB0401"/>
</radialGradient>
<radialGradient id="paint73_radial_707_26939" cx="0" cy="0" r="1" gradientUnits="userSpaceOnUse" gradientTransform="translate(37.8844 98.4493) rotate(180) scale(2.46058 2.46964)">
<stop stop-color="#730001"/>
<stop offset="0.32" stop-color="#6E0001"/>
<stop offset="0.7" stop-color="#600001"/>
<stop offset="1" stop-color="#4F0001"/>
</radialGradient>
<radialGradient id="paint74_radial_707_26939" cx="0" cy="0" r="1" gradientUnits="userSpaceOnUse" gradientTransform="translate(29.5144 98.5535) rotate(180) scale(1.59995 1.60585)">
<stop stop-color="#730001"/>
<stop offset="0.32" stop-color="#6E0001"/>
<stop offset="0.7" stop-color="#600001"/>
<stop offset="1" stop-color="#4F0001"/>
</radialGradient>
<linearGradient id="paint75_linear_707_26939" x1="75.3356" y1="131.488" x2="79.8316" y2="150.27" gradientUnits="userSpaceOnUse">
<stop stop-color="#BABABA"/>
<stop offset="0.09" stop-color="#A7A7A7"/>
<stop offset="0.4" stop-color="#6E6E6E"/>
<stop offset="0.67" stop-color="#454545"/>
<stop offset="0.88" stop-color="#2B2B2B"/>
<stop offset="1" stop-color="#222222"/>
</linearGradient>
<linearGradient id="paint76_linear_707_26939" x1="64.5576" y1="134.752" x2="70.8217" y2="160.899" gradientUnits="userSpaceOnUse">
<stop stop-color="#BABABA"/>
<stop offset="0.09" stop-color="#A7A7A7"/>
<stop offset="0.4" stop-color="#6E6E6E"/>
<stop offset="0.67" stop-color="#454545"/>
<stop offset="0.88" stop-color="#2B2B2B"/>
<stop offset="1" stop-color="#222222"/>
</linearGradient>
<linearGradient id="paint77_linear_707_26939" x1="46.9462" y1="151.912" x2="51.6807" y2="171.667" gradientUnits="userSpaceOnUse">
<stop stop-color="#BABABA"/>
<stop offset="0.09" stop-color="#A7A7A7"/>
<stop offset="0.4" stop-color="#6E6E6E"/>
<stop offset="0.67" stop-color="#454545"/>
<stop offset="0.88" stop-color="#2B2B2B"/>
<stop offset="1" stop-color="#222222"/>
</linearGradient>
<linearGradient id="paint78_linear_707_26939" x1="28.8801" y1="152.724" x2="32.1895" y2="166.539" gradientUnits="userSpaceOnUse">
<stop stop-color="#BABABA"/>
<stop offset="0.09" stop-color="#A7A7A7"/>
<stop offset="0.4" stop-color="#6E6E6E"/>
<stop offset="0.67" stop-color="#454545"/>
<stop offset="0.88" stop-color="#2B2B2B"/>
<stop offset="1" stop-color="#222222"/>
</linearGradient>
<linearGradient id="paint79_linear_707_26939" x1="13.3192" y1="143.535" x2="19.1937" y2="168.059" gradientUnits="userSpaceOnUse">
<stop stop-color="#BABABA"/>
<stop offset="0.09" stop-color="#A7A7A7"/>
<stop offset="0.4" stop-color="#6E6E6E"/>
<stop offset="0.67" stop-color="#454545"/>
<stop offset="0.88" stop-color="#2B2B2B"/>
<stop offset="1" stop-color="#222222"/>
</linearGradient>
<linearGradient id="paint80_linear_707_26939" x1="10.0102" y1="141.877" x2="12.709" y2="153.148" gradientUnits="userSpaceOnUse">
<stop stop-color="#BABABA"/>
<stop offset="0.09" stop-color="#A7A7A7"/>
<stop offset="0.4" stop-color="#6E6E6E"/>
<stop offset="0.67" stop-color="#454545"/>
<stop offset="0.88" stop-color="#2B2B2B"/>
<stop offset="1" stop-color="#222222"/>
</linearGradient>
<radialGradient id="paint81_radial_707_26939" cx="0" cy="0" r="1" gradientUnits="userSpaceOnUse" gradientTransform="translate(55.6115 176.232) rotate(180) scale(8.65248 8.68432)">
<stop stop-color="white"/>
<stop offset="0.26" stop-color="#FAFAFA"/>
<stop offset="0.57" stop-color="#ECECEC"/>
<stop offset="0.9" stop-color="#D5D5D5"/>
<stop offset="1" stop-color="#CCCCCC"/>
</radialGradient>
<radialGradient id="paint82_radial_707_26939" cx="0" cy="0" r="1" gradientUnits="userSpaceOnUse" gradientTransform="translate(92.6528 150.689) rotate(180) scale(6.08791 6.11032)">
<stop stop-color="white"/>
<stop offset="0.26" stop-color="#FAFAFA"/>
<stop offset="0.57" stop-color="#ECECEC"/>
<stop offset="0.9" stop-color="#D5D5D5"/>
<stop offset="1" stop-color="#CCCCCC"/>
</radialGradient>
<linearGradient id="paint83_linear_707_26939" x1="96.0943" y1="192.945" x2="92.9533" y2="207.451" gradientUnits="userSpaceOnUse">
<stop stop-color="#BABABA"/>
<stop offset="0.15" stop-color="#AAAAAA"/>
<stop offset="0.43" stop-color="#828282"/>
<stop offset="0.83" stop-color="#414141"/>
<stop offset="1" stop-color="#222222"/>
</linearGradient>
<linearGradient id="paint84_linear_707_26939" x1="94.9869" y1="208.963" x2="92.7881" y2="219.116" gradientUnits="userSpaceOnUse">
<stop stop-color="#BABABA"/>
<stop offset="0.15" stop-color="#AAAAAA"/>
<stop offset="0.43" stop-color="#828282"/>
<stop offset="0.83" stop-color="#414141"/>
<stop offset="1" stop-color="#222222"/>
</linearGradient>
<linearGradient id="paint85_linear_707_26939" x1="81.885" y1="200.293" x2="73.1616" y2="205.901" gradientUnits="userSpaceOnUse">
<stop stop-color="#BABABA"/>
<stop offset="0.15" stop-color="#AAAAAA"/>
<stop offset="0.43" stop-color="#828282"/>
<stop offset="0.83" stop-color="#414141"/>
<stop offset="1" stop-color="#222222"/>
</linearGradient>
<radialGradient id="paint86_radial_707_26939" cx="0" cy="0" r="1" gradientUnits="userSpaceOnUse" gradientTransform="translate(123.922 212.905) rotate(180) scale(10.7203 10.7597)">
<stop stop-color="#B3B3B3"/>
<stop offset="0.21" stop-color="#AEAEAE"/>
<stop offset="0.45" stop-color="#A0A0A0"/>
<stop offset="0.71" stop-color="#898989"/>
<stop offset="0.98" stop-color="#686868"/>
<stop offset="1" stop-color="#666666"/>
</radialGradient>
<radialGradient id="paint87_radial_707_26939" cx="0" cy="0" r="1" gradientUnits="userSpaceOnUse" gradientTransform="translate(122.908 223.856) rotate(180) scale(8.62935 8.66115)">
<stop stop-color="#B3B3B3"/>
<stop offset="0.21" stop-color="#AEAEAE"/>
<stop offset="0.45" stop-color="#A0A0A0"/>
<stop offset="0.71" stop-color="#898989"/>
<stop offset="0.98" stop-color="#686868"/>
<stop offset="1" stop-color="#666666"/>
</radialGradient>
<radialGradient id="paint88_radial_707_26939" cx="0" cy="0" r="1" gradientUnits="userSpaceOnUse" gradientTransform="translate(151.389 201.907) rotate(180) scale(6.05326 6.07555)">
<stop stop-color="#B3B3B3"/>
<stop offset="0.21" stop-color="#AEAEAE"/>
<stop offset="0.45" stop-color="#A0A0A0"/>
<stop offset="0.71" stop-color="#898989"/>
<stop offset="0.98" stop-color="#686868"/>
<stop offset="1" stop-color="#666666"/>
</radialGradient>
<radialGradient id="paint89_radial_707_26939" cx="0" cy="0" r="1" gradientUnits="userSpaceOnUse" gradientTransform="translate(143.637 213.12) rotate(180) scale(5.33126 5.35089)">
<stop stop-color="#B3B3B3"/>
<stop offset="0.21" stop-color="#AEAEAE"/>
<stop offset="0.45" stop-color="#A0A0A0"/>
<stop offset="0.71" stop-color="#898989"/>
<stop offset="0.98" stop-color="#686868"/>
<stop offset="1" stop-color="#666666"/>
</radialGradient>
<radialGradient id="paint90_radial_707_26939" cx="0" cy="0" r="1" gradientUnits="userSpaceOnUse" gradientTransform="translate(112.175 179.524) rotate(180) scale(4.64391 4.66102)">
<stop stop-color="#B3B3B3"/>
<stop offset="0.21" stop-color="#AEAEAE"/>
<stop offset="0.45" stop-color="#A0A0A0"/>
<stop offset="0.71" stop-color="#898989"/>
<stop offset="0.98" stop-color="#686868"/>
<stop offset="1" stop-color="#666666"/>
</radialGradient>
<radialGradient id="paint91_radial_707_26939" cx="0" cy="0" r="1" gradientUnits="userSpaceOnUse" gradientTransform="translate(105.798 190.939) rotate(180) scale(4.19915 4.21462)">
<stop stop-color="#B3B3B3"/>
<stop offset="0.21" stop-color="#AEAEAE"/>
<stop offset="0.45" stop-color="#A0A0A0"/>
<stop offset="0.71" stop-color="#898989"/>
<stop offset="0.98" stop-color="#686868"/>
<stop offset="1" stop-color="#666666"/>
</radialGradient>
<linearGradient id="paint92_linear_707_26939" x1="164.008" y1="131.662" x2="169.638" y2="155.172" gradientUnits="userSpaceOnUse">
<stop stop-color="#006837"/>
<stop offset="0.41" stop-color="#11452C"/>
<stop offset="0.78" stop-color="#1D2B25"/>
<stop offset="1" stop-color="#222222"/>
</linearGradient>
<linearGradient id="paint93_linear_707_26939" x1="167.942" y1="123.76" x2="178.976" y2="169.836" gradientUnits="userSpaceOnUse">
<stop stop-color="#006837"/>
<stop offset="0.41" stop-color="#11452C"/>
<stop offset="0.78" stop-color="#1D2B25"/>
<stop offset="1" stop-color="#222222"/>
</linearGradient>
<linearGradient id="paint94_linear_707_26939" x1="173.337" y1="118.467" x2="187.739" y2="178.573" gradientUnits="userSpaceOnUse">
<stop stop-color="#006837"/>
<stop offset="0.41" stop-color="#11452C"/>
<stop offset="0.78" stop-color="#1D2B25"/>
<stop offset="1" stop-color="#222222"/>
</linearGradient>
<linearGradient id="paint95_linear_707_26939" x1="170.883" y1="138.103" x2="182.469" y2="186.456" gradientUnits="userSpaceOnUse">
<stop stop-color="#006837"/>
<stop offset="0.41" stop-color="#11452C"/>
<stop offset="0.78" stop-color="#1D2B25"/>
<stop offset="1" stop-color="#222222"/>
</linearGradient>
<linearGradient id="paint96_linear_707_26939" x1="156.268" y1="125.117" x2="134.7" y2="224.757" gradientUnits="userSpaceOnUse">
<stop stop-color="#BABABA"/>
<stop offset="0.15" stop-color="#AAAAAA"/>
<stop offset="0.43" stop-color="#828282"/>
<stop offset="0.83" stop-color="#414141"/>
<stop offset="1" stop-color="#222222"/>
</linearGradient>
<radialGradient id="paint97_radial_707_26939" cx="0" cy="0" r="1" gradientUnits="userSpaceOnUse" gradientTransform="translate(145.705 166.898) rotate(180) scale(38.8552 38.9983)">
<stop stop-color="#B3B3B3"/>
<stop offset="0.21" stop-color="#AEAEAE"/>
<stop offset="0.45" stop-color="#A0A0A0"/>
<stop offset="0.71" stop-color="#898989"/>
<stop offset="0.98" stop-color="#686868"/>
<stop offset="1" stop-color="#666666"/>
</radialGradient>
<radialGradient id="paint98_radial_707_26939" cx="0" cy="0" r="1" gradientUnits="userSpaceOnUse" gradientTransform="translate(131.092 159.906) rotate(180) scale(22.3069 22.3891)">
<stop stop-color="#FFE54D"/>
<stop offset="0.22" stop-color="#FFE14B"/>
<stop offset="0.43" stop-color="#FFD646"/>
<stop offset="0.63" stop-color="#FFC33E"/>
<stop offset="0.82" stop-color="#FEA932"/>
<stop offset="1" stop-color="#FE8A24"/>
</radialGradient>
<radialGradient id="paint99_radial_707_26939" cx="0" cy="0" r="1" gradientUnits="userSpaceOnUse" gradientTransform="translate(49.1937 232.511) rotate(180) scale(16.6811 16.7425)">
<stop stop-color="white"/>
<stop offset="1" stop-color="white" stop-opacity="0"/>
</radialGradient>
<radialGradient id="paint100_radial_707_26939" cx="0" cy="0" r="1" gradientUnits="userSpaceOnUse" gradientTransform="translate(20.787 172.104) rotate(180) scale(42.9619 43.1201)">
<stop stop-color="white"/>
<stop offset="1" stop-color="white" stop-opacity="0"/>
</radialGradient>
<radialGradient id="paint101_radial_707_26939" cx="0" cy="0" r="1" gradientUnits="userSpaceOnUse" gradientTransform="translate(66.841 38.0338) rotate(175.825) scale(50.0531 45.3953)">
<stop stop-color="#FB6A00"/>
<stop offset="1" stop-color="#EB0401"/>
</radialGradient>
<radialGradient id="paint102_radial_707_26939" cx="0" cy="0" r="1" gradientUnits="userSpaceOnUse" gradientTransform="translate(73.3743 77.5175) rotate(175.825) scale(53.2256 48.2726)">
<stop stop-color="#BE5000"/>
<stop offset="1" stop-color="#AE0301"/>
</radialGradient>
<radialGradient id="paint103_radial_707_26939" cx="0" cy="0" r="1" gradientUnits="userSpaceOnUse" gradientTransform="translate(30.547 43.4984) rotate(175.825) scale(27.8009 25.2138)">
<stop stop-color="white"/>
<stop offset="1" stop-color="white" stop-opacity="0"/>
</radialGradient>
<radialGradient id="paint104_radial_707_26939" cx="0" cy="0" r="1" gradientUnits="userSpaceOnUse" gradientTransform="translate(53.6176 47.3817) rotate(175.825) scale(20.5258 18.6157)">
<stop stop-color="white"/>
<stop offset="1" stop-color="white" stop-opacity="0"/>
</radialGradient>
<clipPath id="clip0_707_26939">
<rect width="200" height="287" fill="white" transform="matrix(-1 0 0 1 207 0)"/>
</clipPath>
</defs>
</svg>
