<svg width="161" height="162" viewBox="0 0 161 162" fill="none" xmlns="http://www.w3.org/2000/svg">
<g filter="url(#filter0_dd_1_642)">
<path fill-rule="evenodd" clip-rule="evenodd" d="M53.022 132.158C37.6945 126.007 21.6789 116.994 16.7613 101.227C11.733 85.106 20.2762 68.6368 28.6322 53.9619C37.0555 39.1689 46.9777 23.6755 63.4233 19.2789C79.863 14.8839 97.8722 20.9844 110.861 31.9788C122.16 41.5436 122.257 57.6378 125.738 72.0268C129.075 85.8198 137.081 100.198 130.393 112.714C123.61 125.408 107.608 128.574 93.6487 132.082C79.9952 135.513 66.0874 137.401 53.022 132.158Z" fill="white"/>
</g>
<path fill-rule="evenodd" clip-rule="evenodd" d="M52.8015 60.2181C52.0295 60.6448 51.7785 61.5742 52.2101 62.4069C52.5262 63.0166 52.7859 63.1136 54.3852 63.2188L55.7434 63.3082L59.939 74.4686C62.2464 80.607 64.1343 85.6734 64.1343 85.7274C64.1343 85.7816 63.6229 85.8684 62.9978 85.9209C61.1562 86.0748 59.8062 86.9815 58.9078 88.6674C58.3852 89.6483 58.3852 91.8022 58.9078 92.783C59.4733 93.8441 60.1845 94.555 61.1541 95.0283C61.8264 95.3563 62.0178 95.5257 61.9386 95.7222C61.6795 96.3663 61.6727 97.8203 61.9245 98.6847C62.2326 99.7421 63.332 101.063 64.3592 101.611C65.2568 102.089 67.8128 102.127 68.6438 101.675C70.6658 100.574 71.8427 98.1419 71.301 96.1844L71.133 95.5778H73.869C76.8476 95.5778 77.3066 95.4777 77.6862 94.7456C78.1203 93.9082 77.8194 92.8948 77.03 92.536C76.7219 92.396 74.7326 92.3427 69.8097 92.3427C62.5079 92.3427 62.3562 92.3267 61.9331 91.5105C61.499 90.6731 61.8 89.6598 62.5893 89.301C62.908 89.1561 66.3476 89.1077 76.3115 89.1077C90.6662 89.1077 90.2811 89.1303 90.6768 88.2643C90.7728 88.054 91.6007 83.3954 92.5165 77.9118C94.3455 66.9611 94.327 67.2236 93.307 66.6974C92.6314 66.3488 66.4546 66.3446 65.7794 66.6929C64.685 67.2574 64.7178 68.9975 65.8324 69.5041C66.1501 69.6486 69.3383 69.6974 78.4316 69.6974H90.6057L90.5201 70.1422C90.4731 70.3868 89.8629 74.0269 89.164 78.231L87.8936 85.8751L77.777 85.8333L67.6603 85.7918L62.9999 73.4177C60.4366 66.612 58.2845 60.9136 58.2174 60.7546C57.9682 60.1641 57.2779 59.992 55.1835 59.998C53.8409 60.0018 53.0624 60.0738 52.8015 60.2181ZM84.4572 92.6323C80.3893 94.0827 80.0336 99.6279 83.8874 101.516C85.1997 102.159 86.8501 102.159 88.1624 101.516C89.9018 100.664 90.8018 99.1905 90.8018 97.1953C90.8018 95.8173 90.465 94.8957 89.6046 93.918C88.442 92.5973 86.1566 92.0264 84.4572 92.6323ZM67.3539 95.8083C68.4482 96.3728 68.4155 98.1129 67.3008 98.6195C66.4688 98.9977 65.5621 98.725 65.1762 97.9806C64.415 96.5124 65.882 95.049 67.3539 95.8083ZM86.8122 95.8083C87.9066 96.3728 87.8738 98.1129 86.7592 98.6195C85.2865 99.2889 83.8547 97.7993 84.6298 96.4043C85.0549 95.6389 85.9893 95.3838 86.8122 95.8083Z" fill="#F78F02"/>
<defs>
<filter id="filter0_dd_1_642" x="7.26128" y="13.8423" width="133.719" height="133.571" filterUnits="userSpaceOnUse" color-interpolation-filters="sRGB">
<feFlood flood-opacity="0" result="BackgroundImageFix"/>
<feColorMatrix in="SourceAlpha" type="matrix" values="0 0 0 0 0 0 0 0 0 0 0 0 0 0 0 0 0 0 127 0" result="hardAlpha"/>
<feOffset dy="4"/>
<feGaussianBlur stdDeviation="4"/>
<feColorMatrix type="matrix" values="0 0 0 0 0 0 0 0 0 0 0 0 0 0 0 0 0 0 0.06 0"/>
<feBlend mode="normal" in2="BackgroundImageFix" result="effect1_dropShadow_1_642"/>
<feColorMatrix in="SourceAlpha" type="matrix" values="0 0 0 0 0 0 0 0 0 0 0 0 0 0 0 0 0 0 127 0" result="hardAlpha"/>
<feOffset/>
<feGaussianBlur stdDeviation="2"/>
<feColorMatrix type="matrix" values="0 0 0 0 0 0 0 0 0 0 0 0 0 0 0 0 0 0 0.04 0"/>
<feBlend mode="normal" in2="effect1_dropShadow_1_642" result="effect2_dropShadow_1_642"/>
<feBlend mode="normal" in="SourceGraphic" in2="effect2_dropShadow_1_642" result="shape"/>
</filter>
</defs>
</svg>
