<svg width="694" height="364" viewBox="0 0 694 364" fill="none" xmlns="http://www.w3.org/2000/svg">
<path d="M292.585 158.322C296.821 178.4 296.188 199.2 290.737 218.983C285.287 238.765 275.178 256.955 261.257 272.03C247.335 287.105 230.006 298.627 210.719 305.632C191.432 312.637 170.747 314.921 150.397 312.293C130.046 309.665 110.62 302.201 93.745 290.527C76.8699 278.853 63.0359 263.307 53.4006 245.19C43.7652 227.073 38.6087 206.912 38.3623 186.394C38.116 165.875 42.787 145.596 51.9846 127.253" stroke="#F78D02"/>
<path d="M291.186 179.094C294.793 199.774 293.396 221.016 287.11 241.045C280.825 261.073 269.834 279.305 255.058 294.216C240.282 309.126 222.15 320.281 202.179 326.747C182.208 333.213 160.979 334.803 140.268 331.383C119.557 327.962 99.9661 319.632 83.1345 307.088C66.3028 294.544 52.7199 278.152 43.5222 259.283C34.3244 240.414 29.7793 219.616 30.267 198.63C30.7548 177.644 36.2612 157.08 46.3257 138.658" stroke="#F78D02" stroke-width="10"/>
<path d="M662.585 206.047C666.821 185.969 666.188 165.168 660.737 145.386C655.287 125.603 645.178 107.413 631.257 92.3383C617.335 77.2633 600.006 65.7414 580.719 58.7366C561.432 51.7318 540.747 49.4479 520.397 52.0758C500.046 54.7037 480.62 62.167 463.745 73.8415C446.87 85.5159 433.036 101.062 423.401 119.179C413.765 137.296 408.609 157.457 408.362 177.975C408.116 198.493 412.787 218.772 421.985 237.115" stroke="#F78D02"/>
<path d="M661.186 185.274C664.793 164.595 663.396 143.352 657.11 123.324C650.825 103.295 639.834 85.0631 625.058 70.1528C610.282 55.2425 592.15 44.0876 572.179 37.6214C552.208 31.1552 530.979 29.5658 510.268 32.986C489.557 36.4062 469.966 44.7367 453.134 57.2804C436.303 69.8242 422.72 86.2164 413.522 105.086C404.324 123.955 399.779 144.753 400.267 165.739C400.755 186.725 406.261 207.289 416.326 225.71" stroke="#F78D02" stroke-width="10"/>
</svg>
