<svg width="320" height="640" viewBox="0 0 320 640" fill="none" xmlns="http://www.w3.org/2000/svg">
<path d="M232.377 302.892C212.105 306.074 191.366 304.355 171.895 297.879C152.424 291.404 134.787 280.359 120.459 265.669C106.132 250.98 95.5301 233.073 89.5419 213.446C83.5537 193.819 82.3528 173.044 86.0397 152.858C89.7266 132.672 98.194 113.663 110.734 97.4205C123.273 81.1779 139.52 68.1746 158.116 59.4983C176.711 50.822 197.114 46.7252 217.617 47.5504C238.12 48.3757 258.127 54.0992 275.965 64.242" stroke="#F78D02"/>
<path d="M211.706 300.41C190.866 302.933 169.725 300.428 150.052 293.106C130.379 285.783 112.746 273.856 98.6275 258.321C84.509 242.787 74.3161 224.097 68.9015 203.816C63.4868 183.534 63.0079 162.251 67.5049 141.747C72.0018 121.243 81.3438 102.114 94.7492 85.9598C108.155 69.806 125.234 57.0975 144.558 48.8975C163.881 40.6975 184.888 37.2445 205.82 38.8273C226.752 40.4101 247 46.9827 264.871 57.9953" stroke="#F78D02" stroke-width="10"/>
<path d="M97.4284 601.892C117.7 605.074 138.439 603.355 157.91 596.879C177.381 590.404 195.018 579.359 209.346 564.669C223.673 549.98 234.275 532.073 240.263 512.446C246.251 492.819 247.452 472.044 243.765 451.858C240.078 431.672 231.611 412.663 219.071 396.42C206.532 380.178 190.285 367.175 171.689 358.498C153.094 349.822 132.691 345.725 112.188 346.55C91.685 347.376 71.6776 353.099 53.8398 363.242" stroke="#F78D02"/>
<path d="M118.099 599.41C138.939 601.933 160.079 599.428 179.753 592.106C199.426 584.783 217.059 572.856 231.177 557.321C245.296 541.787 255.489 523.097 260.903 502.816C266.318 482.534 266.797 461.251 262.3 440.747C257.803 420.243 248.461 401.113 235.056 384.96C221.65 368.806 204.571 356.098 185.247 347.898C165.924 339.698 144.917 336.244 123.985 337.827C103.053 339.41 82.8047 345.983 64.9337 356.995" stroke="#F78D02" stroke-width="10"/>
</svg>
