<svg width="161" height="162" viewBox="0 0 161 162" fill="none" xmlns="http://www.w3.org/2000/svg">
<path fill-rule="evenodd" clip-rule="evenodd" d="M53.022 132.158C37.6945 126.007 21.6789 116.994 16.7613 101.227C11.733 85.106 20.2762 68.6368 28.6322 53.9619C37.0555 39.1689 46.9777 23.6755 63.4233 19.2789C79.8629 14.8839 97.8722 20.9844 110.861 31.9788C122.16 41.5436 122.257 57.6378 125.738 72.0268C129.075 85.8198 137.081 100.198 130.393 112.714C123.61 125.408 107.608 128.574 93.6487 132.082C79.9952 135.513 66.0874 137.401 53.022 132.158Z" fill="url(#paint0_linear_1_618)"/>
<path fill-rule="evenodd" clip-rule="evenodd" d="M72.0881 48.0643C67.4899 48.7234 64.574 49.6043 61.1718 51.3617C52.9054 55.6317 47.1957 63.3443 45.3666 72.7111C44.8778 75.2136 44.8778 80.8363 45.3666 83.3389C46.5564 89.4318 49.5116 95.0652 53.7291 99.2802C57.9483 103.497 63.6027 106.458 69.6803 107.635C72.1802 108.119 77.8149 108.119 80.3148 107.635C83.2672 107.063 85.9095 106.156 88.6079 104.787C97.0037 100.528 102.792 92.778 104.627 83.3389C105.127 80.7643 105.124 75.4057 104.62 72.7111C102.34 60.5269 92.9435 50.9715 80.8369 48.5261C78.9827 48.1515 73.4987 47.862 72.0881 48.0643ZM73.9943 50.9396V51.9278L72.8406 52.0493C72.2061 52.1161 71.1589 52.2643 70.5136 52.3784C69.8684 52.4927 69.3174 52.5573 69.2893 52.522C69.1745 52.3778 68.7774 51.0768 68.7774 50.8446C68.7774 50.6832 69.3637 50.5155 70.4328 50.3712C71.3431 50.2482 72.3139 50.1159 72.5898 50.077C74.003 49.8773 73.9943 49.872 73.9943 50.9396ZM79.763 50.3916C80.6507 50.5238 81.2177 50.7028 81.2177 50.8514C81.2177 51.0786 80.8188 52.38 80.7059 52.522C80.6778 52.5573 80.1268 52.4927 79.4815 52.3784C78.8362 52.2643 77.789 52.1161 77.1546 52.0493L76.0008 51.9278V50.9252V49.9226L77.1546 50.0489C77.789 50.1183 78.9628 50.2725 79.763 50.3916ZM67.0657 52.3578L67.1967 53.0596L64.9962 53.98L62.7956 54.9004L62.3755 54.1533C62.1443 53.7422 61.9553 53.3449 61.9553 53.2703C61.9553 53.1073 64.2668 52.0397 65.6674 51.5561C66.779 51.1722 66.8526 51.2144 67.0657 52.3578ZM86.6854 52.5192C87.4302 52.8577 88.0398 53.1957 88.0398 53.2703C88.0398 53.3449 87.8508 53.7422 87.6197 54.1533L87.1995 54.9004L85.0112 53.9832C83.8077 53.4787 82.8235 52.9742 82.8241 52.8623C82.8247 52.7502 82.9176 52.3259 83.0306 51.9194L83.2361 51.1803L84.2835 51.542C84.8597 51.7409 85.9406 52.1807 86.6854 52.5192ZM80.2145 54.5427C89.4572 56.6289 96.5781 63.8619 98.5946 73.2124C99.1376 75.7298 99.0946 80.6807 98.5083 83.1803C97.4074 87.873 95.3294 91.6214 91.9659 94.9828C88.5481 98.3987 84.5224 100.593 79.8132 101.607C77.2942 102.15 72.3402 102.107 69.8391 101.521C60.4159 99.3131 53.4175 92.2211 51.4019 82.8376C50.8943 80.4738 50.8943 75.5762 51.4019 73.2124C53.6115 62.9256 61.8363 55.4304 72.3891 54.0869C73.898 53.8948 78.5427 54.1653 80.2145 54.5427ZM60.553 55.0147C60.7717 55.373 60.9509 55.7673 60.9513 55.8904C60.9517 56.0137 60.5684 56.3671 60.0993 56.6759C59.6302 56.9847 58.8158 57.5989 58.289 58.041L57.3315 58.8447L56.6383 58.173C56.0887 57.6408 55.9928 57.4435 56.1766 57.2223C56.4912 56.8433 59.8096 54.363 60.0018 54.363C60.0863 54.363 60.3343 54.6564 60.553 55.0147ZM91.6648 55.4877C92.5243 56.1064 93.4144 56.811 93.6426 57.0537L94.0573 57.4948L93.3719 58.1585L92.6865 58.8225L91.6068 57.9462C91.0131 57.4643 90.1938 56.8445 89.7865 56.5688C89.3792 56.2931 89.0453 55.9879 89.0445 55.8906C89.0427 55.6596 89.8453 54.363 89.9899 54.363C90.0513 54.363 90.805 54.8691 91.6648 55.4877ZM68.9008 64.2816C65.7534 67.4208 63.0473 70.1957 62.8871 70.4477C62.7013 70.7407 62.6544 71.0511 62.7573 71.3074C63.0182 71.9569 67.4738 76.2202 67.8918 76.2202C68.1153 76.2202 69.6549 74.8394 71.6345 72.8637L74.9976 69.5071L78.3878 72.8907C81.298 75.7953 81.8446 76.2571 82.2503 76.1539C82.5099 76.0877 83.7497 75.0025 85.005 73.7424C86.7601 71.9807 87.2874 71.329 87.2874 70.9216C87.2874 70.4942 86.1413 69.2478 81.367 64.4829C77.4577 60.5811 75.307 58.574 75.0351 58.574C74.7638 58.574 72.6738 60.5187 68.9008 64.2816ZM54.9944 61.316C54.5521 61.8482 53.9392 62.6671 53.632 63.136C53.3248 63.6048 52.9726 63.9878 52.8492 63.9874C52.5651 63.9866 51.3209 63.2348 51.3209 63.0642C51.3209 62.8831 53.0635 60.4648 53.7891 59.6386L54.3964 58.9474L55.0973 59.6478L55.7982 60.3481L54.9944 61.316ZM97.5488 61.3681C98.1678 62.2274 98.6743 62.9892 98.6743 63.0612C98.6743 63.234 97.4329 63.9864 97.1459 63.9874C97.0225 63.9878 96.6704 63.6048 96.3632 63.136C96.056 62.6671 95.4444 61.85 95.0042 61.3198L94.2034 60.3559L94.872 59.6665L95.5405 58.9771L95.9819 59.3916C96.2247 59.6196 96.9298 60.5091 97.5488 61.3681ZM80.0118 66.0917L84.9227 71.0028L83.5256 72.4099L82.1283 73.8171L78.8115 70.5069C76.3086 68.0087 75.3728 67.1966 74.9976 67.1966C74.6224 67.1966 73.6865 68.0087 71.1836 70.5069L67.8669 73.8171L66.4695 72.4099L65.0724 71.0028L69.9833 66.0917C72.6843 63.3908 74.9408 61.1809 74.9976 61.1809C75.0544 61.1809 77.3109 63.3908 80.0118 66.0917ZM51.1584 65.443L51.8987 65.8932L51.3413 67.0963C51.0347 67.7581 50.6214 68.728 50.4232 69.252C50.0335 70.2807 49.9841 70.3045 48.8758 69.9969L48.1362 69.7916L48.4981 68.7449C49.0307 67.2048 50.067 64.9906 50.2548 64.9918C50.3445 64.9924 50.751 65.1954 51.1584 65.443ZM100.519 66.3444C100.858 67.0889 101.298 68.169 101.497 68.7449L101.859 69.7916L101.119 69.9969C100.011 70.3045 99.9616 70.2807 99.572 69.252C99.3737 68.728 98.9604 67.7581 98.6538 67.0963L98.0964 65.8932L98.8368 65.443C99.2441 65.1954 99.6506 64.9924 99.7403 64.9918C99.83 64.9912 100.181 65.5998 100.519 66.3444ZM48.7327 72.0389C49.1077 72.1656 49.4436 72.2922 49.4787 72.3202C49.514 72.3483 49.4494 72.8989 49.335 73.5438C49.2209 74.1887 49.0726 75.2353 49.0058 75.8693L48.8842 77.0223H47.8809H46.8777L47.0041 75.8693C47.296 73.2025 47.5717 71.8087 47.8071 71.8087C47.9409 71.8087 48.3575 71.9124 48.7327 72.0389ZM102.648 73.2625C102.767 74.0622 102.922 75.2353 102.991 75.8693L103.117 77.0223H102.114H101.111L100.989 75.8693C100.923 75.2353 100.774 74.1887 100.66 73.5438C100.546 72.8989 100.481 72.3473 100.516 72.318C100.552 72.2885 100.851 72.1692 101.182 72.0525C102.352 71.6402 102.414 71.6916 102.648 73.2625ZM57.961 75.2234C56.5215 76.6546 55.5345 77.794 55.5345 78.025C55.5345 78.587 60.2596 83.2386 60.8307 83.2386C61.3169 83.2386 66.169 78.4998 66.169 78.025C66.169 77.5501 61.3169 72.8113 60.8307 72.8113C60.5327 72.8113 59.5927 73.6016 57.961 75.2234ZM72.1351 75.1705C70.3866 76.9225 69.7807 77.6588 69.7807 78.0312C69.7807 78.742 74.2853 83.2386 74.9976 83.2386C75.7149 83.2386 80.2145 78.7418 80.2145 78.025C80.2145 77.3033 75.7145 72.8113 74.9914 72.8113C74.6179 72.8113 73.8874 73.4149 72.1351 75.1705ZM86.2739 75.2856C84.9275 76.6466 83.8262 77.8792 83.8262 78.025C83.8262 78.1707 84.9275 79.4034 86.2739 80.7643C88.048 82.5578 88.8535 83.2386 89.2014 83.2386C89.8543 83.2386 94.4606 78.6723 94.4606 78.025C94.4606 77.3777 89.8543 72.8113 89.2014 72.8113C88.8535 72.8113 88.048 73.4921 86.2739 75.2856ZM62.2563 79.4286L60.859 80.8359L59.4544 79.4323L58.0499 78.0286L59.4472 76.6213L60.8445 75.214L62.2491 76.6177L63.6536 78.0214L62.2563 79.4286ZM76.5043 76.6231L77.8998 78.0286L76.4487 79.479L74.9976 80.9292L73.5465 79.479L72.0954 78.0286L73.4909 76.6231C74.2584 75.8501 74.9364 75.2176 74.9976 75.2176C75.0588 75.2176 75.7368 75.8501 76.5043 76.6231ZM90.5479 79.4286L89.1506 80.8359L87.7461 79.4323L86.3415 78.0286L87.7388 76.6213L89.1362 75.214L90.5407 76.6177L91.9453 78.0214L90.5479 79.4286ZM49.0058 80.1806C49.0726 80.8147 49.2209 81.8612 49.335 82.5061C49.4494 83.151 49.514 83.7016 49.4787 83.7297C49.3366 83.8426 48.0344 84.2412 47.8071 84.2412C47.5717 84.2412 47.296 82.8474 47.0041 80.1806L46.8777 79.0276H47.8809H48.8842L49.0058 80.1806ZM102.991 80.1806C102.699 82.8474 102.423 84.2412 102.188 84.2412C101.961 84.2412 100.659 83.8426 100.516 83.7297C100.481 83.7016 100.546 83.151 100.66 82.5061C100.774 81.8612 100.923 80.8147 100.989 80.1806L101.111 79.0276H102.114H103.117L102.991 80.1806ZM65.2151 82.0856C63.952 83.3265 62.846 84.522 62.7573 84.7426C62.6544 84.9988 62.7013 85.3092 62.8871 85.6022C63.0473 85.8543 65.7534 88.6291 68.9008 91.7684C72.654 95.5116 74.7644 97.4759 75.0331 97.4759C75.3018 97.4759 77.3909 95.5288 81.1114 91.8111C84.2291 88.6953 86.9194 85.9206 87.0895 85.6449C87.2898 85.3205 87.3422 85.0022 87.2378 84.7426C86.977 84.0931 82.5213 79.8297 82.1034 79.8297C81.8799 79.8297 80.3413 81.2095 78.3633 83.1835L75.003 86.5373L71.6261 83.1835C69.7169 81.2875 68.0888 79.8297 67.8805 79.8297C67.6779 79.8297 66.4784 80.845 65.2151 82.0856ZM74.9976 88.8533C75.3728 88.8533 76.3086 88.0412 78.8115 85.5431L82.1283 82.2328L83.526 83.6405L84.9239 85.0482L79.9606 90.0084L74.9976 94.9683L70.0345 90.0084L65.0712 85.0482L66.4691 83.6405L67.8669 82.2328L71.1836 85.5431C73.6865 88.0412 74.6224 88.8533 74.9976 88.8533ZM50.4232 86.7979C50.6214 87.3219 51.0347 88.2919 51.3413 88.9536L51.8987 90.1567L51.1584 90.6069C50.751 90.8546 50.3445 91.0575 50.2548 91.0581C50.068 91.0593 49.0317 88.8479 48.5042 87.3229L48.1484 86.2936L48.7815 86.0901C49.9021 85.7295 50.0413 85.7897 50.4232 86.7979ZM101.119 86.053L101.859 86.2583L101.497 87.3051C100.964 88.8451 99.9281 91.0593 99.7403 91.0581C99.6506 91.0575 99.2441 90.8546 98.8368 90.6069L98.0964 90.1567L98.6538 88.9536C98.9604 88.2919 99.3737 87.3219 99.572 86.7979C99.9616 85.7692 100.011 85.7454 101.119 86.053ZM53.6352 92.914C53.9442 93.3826 54.5588 94.1967 55.0012 94.7231L55.8054 95.68L55.1182 96.3921L54.431 97.1041L53.7584 96.3375C52.9706 95.4398 51.3209 93.171 51.3209 92.9857C51.3209 92.8151 52.5651 92.0633 52.8492 92.0625C52.9726 92.0621 53.3262 92.4453 53.6352 92.914ZM98.0222 92.4606C98.3809 92.6791 98.6743 92.9168 98.6743 92.9888C98.6743 93.1961 96.4705 96.1996 95.9819 96.6584L95.5405 97.0728L94.8651 96.3764L94.1897 95.68L94.9939 94.7231C95.4364 94.1967 96.051 93.3826 96.36 92.914C96.669 92.4453 97.0225 92.0621 97.1459 92.0625C97.2691 92.0629 97.6634 92.242 98.0222 92.4606ZM58.3308 98.044C58.8344 98.4669 59.6302 99.0653 60.0993 99.3741C60.5684 99.6829 60.9517 100.036 60.9513 100.16C60.9505 100.438 60.1996 101.687 60.0329 101.687C59.8499 101.687 58.8107 100.948 57.2728 99.725L55.9011 98.6337L56.5598 97.9546C56.922 97.581 57.2627 97.2754 57.3167 97.2754C57.3707 97.2754 57.827 97.6213 58.3308 98.044ZM93.4353 97.9546L94.094 98.6337L92.7224 99.725C91.1844 100.948 90.1452 101.687 89.9622 101.687C89.7921 101.687 89.0447 100.436 89.0439 100.149C89.0435 100.02 89.3587 99.72 89.7445 99.4816C90.1304 99.2433 90.9204 98.6514 91.5002 98.1661C92.0801 97.681 92.6044 97.282 92.6656 97.2798C92.7266 97.2774 93.0731 97.581 93.4353 97.9546ZM64.0306 101.663C64.5652 101.908 65.4906 102.29 66.0873 102.513C67.2491 102.948 67.2784 103.002 66.9646 104.131L66.7591 104.87L65.7117 104.508C64.2722 104.011 61.9553 102.945 61.9553 102.78C61.9553 102.526 62.8221 101.101 62.9407 101.161C63.0057 101.193 63.4961 101.419 64.0306 101.663ZM88.0388 102.752C88.04 102.94 85.8244 103.976 84.2835 104.508L83.2361 104.87L83.0306 104.131C82.9176 103.724 82.8247 103.299 82.8241 103.186C82.8235 103.073 83.7935 102.572 84.9799 102.072L87.1369 101.163L87.5874 101.876C87.8352 102.268 88.0382 102.663 88.0388 102.752ZM70.5999 103.686C71.1977 103.793 72.2061 103.935 72.8406 104.001L73.9943 104.122V105.125V106.127L72.8406 106.001C70.3706 105.731 68.7774 105.433 68.7774 105.242C68.7774 104.853 69.2441 103.492 69.3778 103.492C69.4522 103.492 70.0022 103.579 70.5999 103.686ZM80.9854 104.267C81.1132 104.693 81.2177 105.132 81.2177 105.242C81.2177 105.433 79.6246 105.731 77.1546 106.001L76.0008 106.127V105.125V104.122L77.1546 103.999C77.789 103.931 78.7146 103.8 79.2112 103.707C80.7109 103.428 80.7362 103.436 80.9854 104.267Z" fill="white"/>
<defs>
<linearGradient id="paint0_linear_1_618" x1="73.1788" y1="145.856" x2="172.244" y2="95.7609" gradientUnits="userSpaceOnUse">
<stop stop-color="#FEBE01"/>
<stop offset="1" stop-color="#F37502"/>
</linearGradient>
</defs>
</svg>
