<svg width="349" height="572" viewBox="0 0 349 572" fill="none" xmlns="http://www.w3.org/2000/svg">
<path d="M305.487 551.241C305.487 551.241 274.594 561.514 236.427 561.514C198.259 561.514 167.366 551.241 167.366 551.241C167.366 551.241 198.259 540.968 236.427 540.968C274.594 540.968 305.487 551.241 305.487 551.241Z" fill="#678217"/>
<path d="M164.066 179.842C130.173 189.215 112.627 226.708 77.1591 230.907C76.7842 238.255 77.2341 245.454 78.9587 252.652C80.0835 257.301 81.8082 262.175 79.5586 266.899C82.2581 272.223 102.054 271.548 107.528 270.648C118.476 268.924 131.298 263.525 139.846 256.326C150.119 247.628 156.718 228.732 160.092 216.36C163.241 204.812 161.817 191.315 164.066 179.842Z" fill="#C73736"/>
<path d="M97.63 330.711C102.654 363.779 120.725 388.674 151.694 399.922C196.31 416.119 246.099 407.87 275.268 365.879C286.516 349.682 292.365 330.261 295.364 310.765C304.737 250.403 286.441 185.166 243.175 142.05C242.125 141 241.076 139.95 239.651 139.575C238.151 139.2 236.576 139.575 235.077 140.025C202.084 149.773 168.865 164.995 145.32 190.49C123.275 214.41 106.778 244.029 99.7296 275.897C95.7554 293.819 94.8556 312.49 97.63 330.711Z" fill="#EE4542"/>
<path d="M250.524 224.983C246.549 224.308 253.748 250.553 254.348 252.352C257.497 262.025 262.071 271.548 270.02 278.147C272.119 279.872 298.664 293.069 298.964 290.369C299.489 284.896 292.365 276.722 289.666 272.448C283.142 262.1 276.618 251.677 269.945 241.479C264.771 233.681 259.897 226.483 250.524 224.983Z" fill="#C73736"/>
<path d="M265.745 331.311L246.474 253.777C247.974 228.957 264.321 183.441 268.07 173.319C266.345 170.469 264.471 167.77 262.596 164.995C235.452 190.34 228.253 232.706 222.254 268.624C206.508 260.376 187.012 259.626 169.765 255.127C157.618 235.256 149.669 212.46 146.52 189.14C146.145 189.515 145.845 189.89 145.47 190.265C142.171 202.712 140.596 215.685 137.522 228.882C132.273 254.377 126.274 277.622 124.025 303.117C120.95 328.912 120.5 354.556 120.8 380.201C129.049 388.674 139.322 395.273 151.619 399.772C196.235 415.969 246.024 407.72 275.193 365.729C279.618 359.355 283.217 352.457 286.066 345.333L265.745 331.311Z" fill="#C73736"/>
<path d="M234.777 259.101C200.209 241.105 160.467 233.156 121.475 235.031C110.377 243.504 104.453 274.248 104.603 288.87C101.754 291.419 99.0546 294.119 96.5051 296.968C95.6053 308.216 95.9052 319.538 97.5549 330.711C102.579 363.779 120.65 388.674 151.619 399.922C196.235 416.119 246.024 407.87 275.193 365.879C279.467 359.73 282.992 353.057 285.841 346.158C276.018 345.708 266.12 343.833 256.672 341.734C247.149 315.114 239.726 286.92 234.777 259.101Z" fill="#2F506F"/>
<path d="M136.322 254.977L127.699 297.793L160.092 325.912C160.092 325.912 197.209 322.838 208.607 311.59C208.607 311.59 211.457 293.519 208.607 277.397L136.322 254.977Z" fill="#3A7893"/>
<path d="M127.699 297.793L160.092 325.912C160.092 325.912 197.209 322.838 208.607 311.59C208.607 311.59 211.457 293.519 208.607 277.397L208.232 277.322C182.587 288.42 155.593 293.069 128.374 294.269L127.699 297.793Z" fill="#275A75"/>
<path d="M147.795 185.391C134.147 202.188 126.874 224.083 127.774 245.754C131.448 246.653 135.497 248.228 139.246 248.378C143.821 218.459 153.868 188.24 170.815 163.196C162.417 168.744 154.243 177.518 147.795 185.391Z" fill="#565F7C"/>
<path d="M147.795 185.391C146.22 187.266 144.795 189.29 143.371 191.315C140.971 199.788 142.771 224.983 143.071 228.582C148.619 205.337 157.543 182.692 170.815 163.121C162.417 168.744 154.243 177.518 147.795 185.391Z" fill="#305170"/>
<path d="M242.125 121.654C244.45 130.277 246.924 138.826 249.549 147.299C240.925 162.221 229.753 175.868 217.005 187.416C219.63 164.395 226.153 138.451 242.125 121.654Z" fill="#9B1D20"/>
<path d="M284.941 187.416C294.014 197.089 298.814 209.986 306.237 221.009C313.585 232.031 323.558 241.255 329.857 252.877C336.156 264.5 337.881 280.247 329.032 290.07C319.884 300.192 303.088 299.593 291.465 292.469C280.067 285.495 274.968 274.398 267.395 263.975C259.522 253.102 250.224 242.379 247.374 228.882C244.825 216.735 247.749 178.417 263.721 174.743C271.594 173.019 280.217 182.317 284.941 187.416Z" fill="#EE4542"/>
<path d="M212.506 261.275C209.657 222.733 233.277 180.517 261.471 159.746C263.721 163.196 266.57 167.92 268.82 171.369C246.624 198.888 232.602 234.056 231.852 269.299L212.506 261.275Z" fill="#565F7C"/>
<path d="M261.471 159.746C259.897 160.946 258.322 162.146 256.747 163.421C236.501 197.464 236.277 224.983 234.852 242.604C240.176 216.66 252.248 191.84 268.745 171.369C266.57 167.92 263.721 163.196 261.471 159.746Z" fill="#305170"/>
<path d="M208.607 277.397C185.062 268.249 160.917 260.751 136.322 254.977C149.894 264.425 200.659 275.373 208.607 277.397Z" fill="#58A2BC"/>
<path d="M138.271 382.301C149.744 400.597 157.992 420.918 162.342 442.063C163.991 450.162 165.191 458.41 167.665 466.283C171.94 479.706 179.963 491.628 187.911 503.326C192.485 503.401 195.635 503.251 200.209 504.001C195.11 465.983 188.361 427.891 178.463 390.849C164.366 387.325 152.369 385.525 138.271 382.301Z" fill="#186F80"/>
<path d="M208.382 396.248C221.354 431.715 222.329 470.632 233.952 506.625C241.075 506.1 248.199 505.65 255.397 505.125C256.672 454.961 260.346 403.371 267.17 353.656C249.324 369.553 229.828 385.6 208.382 396.248Z" fill="#186F80"/>
<path d="M204.708 551.166H169.24C176.589 546.817 183.937 542.468 191.361 538.044C192.186 537.594 194.135 538.119 193.985 537.219C192.86 527.621 191.361 518.098 189.411 508.65C192.11 509.099 195.56 507.975 198.184 507.225C199.759 520.497 202.683 537.894 204.708 551.166Z" fill="#5A3628"/>
<path d="M271.369 560.839H244.975C243.025 556.565 242.95 552.366 247.149 548.316C245.95 537.144 243.25 526.046 239.201 515.323C243.625 512.774 248.124 511.649 253.523 512.324C254.498 518.473 255.998 524.546 256.972 530.695C257.347 532.945 257.647 535.269 257.722 537.519C257.797 541.268 257.047 545.017 257.872 548.691C262.821 551.616 267.62 557.24 271.369 560.839Z" fill="#5A3628"/>
<path d="M160.542 349.082C186.262 357.931 214.906 353.132 240.101 342.859C245.05 340.834 250.074 338.435 254.573 335.51C253.223 331.611 251.948 327.637 250.674 323.588C240.926 331.461 228.928 336.71 216.93 340.534C198.634 346.308 179.588 349.157 160.542 349.082Z" fill="#343A5A"/>
<path d="M217.98 360.705C190.761 367.978 161.067 365.504 135.497 353.806C158.817 366.254 183.487 378.026 209.882 379.226C187.162 382.076 163.916 378.551 141.946 371.878C128.674 367.828 115.326 362.355 104.079 354.406C112.777 375.627 128.599 391.449 151.619 399.847C196.235 416.044 246.024 407.795 275.193 365.804C279.468 359.655 282.992 352.982 285.841 346.083C276.393 345.633 266.795 343.833 257.647 341.884C245.649 350.432 232.227 356.881 217.98 360.705Z" fill="#343A5A"/>
<path d="M214.831 330.261C184.162 341.434 148.844 339.184 119.9 324.188C132.798 335.135 147.72 340.909 164.591 341.209C181.538 341.509 199.084 336.41 214.831 330.261Z" fill="#343A5A"/>
<path d="M170.29 461.484C171.415 464.859 174.564 467.108 177.938 468.233C181.313 469.358 184.912 469.508 188.511 469.583C192.785 480.98 196.609 492.303 199.834 503.851C199.984 503.851 200.059 503.851 200.209 503.926C195.11 465.908 188.361 427.816 178.463 390.774C164.441 387.25 152.369 385.525 138.271 382.226C144.12 391.449 149.069 401.272 153.118 411.395C165.041 425.267 174.639 441.013 181.313 458.035C178.688 460.509 173.589 462.609 170.29 461.484Z" fill="#343A5A"/>
<path d="M267.245 353.656C249.399 369.478 229.828 385.6 208.457 396.248C210.707 402.321 212.581 408.545 214.156 414.769C223.454 422.117 232.677 429.616 241.3 437.864C245.799 442.138 250.523 447.612 249.774 453.761C249.099 460.06 243.1 464.409 237.326 467.033C240.325 469.508 244.225 470.782 248.049 470.557C248.124 471.007 250.523 488.254 251.648 505.35C252.923 505.275 254.198 505.2 255.397 505.05C256.747 454.961 260.421 403.371 267.245 353.656Z" fill="#343A5A"/>
<path d="M203.883 512.549C198.934 513.299 193.01 513.374 188.136 512.399C185.662 507 184.012 501.601 181.538 496.202C188.136 495.977 194.81 495.977 201.409 496.427C201.708 501.676 202.683 507.45 203.883 512.549Z" fill="#F7C6A8"/>
<path d="M259.147 516.073C259.522 510.074 260.422 505.35 259.222 499.427C249.474 501.676 239.351 501.601 229.528 499.876C231.702 507.075 234.777 513.974 238.751 520.422C244.675 520.347 253.748 518.623 259.147 516.073Z" fill="#F7C6A8"/>
<path d="M209.882 258.426L233.277 268.399V273.498L209.882 263.75V258.426Z" fill="#58A2BC"/>
<path d="M125.674 242.529L142.396 246.503L141.271 250.927L125.674 246.728V242.529Z" fill="#58A2BC"/>
<path d="M287.791 212.46C282.767 212.46 279.842 212.385 276.393 216.21C271.894 221.159 271.294 228.207 267.32 233.606C263.496 238.78 267.32 242.379 273.094 242.604C281.942 242.904 296.339 241.18 299.638 233.006C301.663 227.757 297.089 216.585 287.791 212.46Z" fill="url(#paint0_linear_131_4760)"/>
<path d="M345.454 265.924C356.177 290.444 339.755 314.964 317.335 312.865C293.94 310.615 280.592 269.074 305.037 259.551C319.359 253.927 333.457 247.778 345.454 265.924Z" fill="#C73736"/>
<path d="M77.0842 240.955C71.9103 233.381 62.0873 227.682 58.3381 219.209C51.6645 204.137 41.5415 188.165 41.0916 171.219C47.9902 170.544 52.1893 159.446 53.9889 153.822C56.2385 146.774 58.1131 141.075 63.437 135.601C67.1113 131.777 72.9601 127.203 64.7118 124.579C55.7886 121.729 42.2914 131.777 38.6171 138.901C24.595 138.076 18.2213 160.946 20.6208 170.619C14.0972 182.167 15.3719 196.189 15.3719 208.861C15.3719 258.426 52.7892 283.546 73.41 278.747C88.5569 275.148 83.233 249.953 77.0842 240.955Z" fill="#F7A89B"/>
<path d="M77.0841 240.955C73.8598 236.231 68.9108 232.256 64.6367 227.907C64.1118 244.404 62.0122 261.575 56.5383 277.172C62.6121 279.347 68.4609 279.872 73.3349 278.747C88.5568 275.148 83.2329 249.953 77.0841 240.955Z" fill="url(#paint1_linear_131_4760)"/>
<path d="M0 151.273C2.17455 152.623 1.19979 157.422 1.72468 160.421C2.54951 165.37 4.34914 170.694 7.72345 174.518C11.9226 179.242 20.3958 181.942 26.6195 180.967C30.9686 168.969 40.4167 150.148 29.6939 138.601C21.9705 130.352 1.64966 138.676 0 151.273Z" fill="#F7A89B"/>
<path d="M100.704 281.146C101.229 261.2 94.4056 245.079 88.5568 227.082C81.1333 227.082 70.2606 226.033 65.3116 233.906C64.4118 247.703 71.0854 264.8 66.9612 277.997C71.6853 281.821 98.9047 284.221 100.704 281.146Z" fill="#F24242"/>
<path d="M313.286 235.181C326.408 242.979 343.579 251.977 346.054 269.074C348.903 288.42 332.407 310.615 313.136 296.143C302.638 288.27 296.414 274.173 289.74 263.375C298.964 255.727 302.863 241.255 313.286 235.181Z" fill="url(#paint2_linear_131_4760)"/>
<path d="M14.922 130.802C1.94971 118.43 1.57477 143.85 3.74932 150.448C5.69892 156.447 12.0726 164.995 17.7714 158.472C23.4703 151.798 18.5213 140.85 14.922 130.802Z" fill="url(#paint3_linear_131_4760)"/>
<path d="M27.3693 123.304C23.995 118.13 18.8961 119.105 15.3718 123.304C10.1978 129.527 12.5974 137.551 14.9219 144.374C16.9465 150.223 21.3706 162.746 27.9692 151.423C31.7934 145.049 28.5691 134.476 27.3693 123.304Z" fill="url(#paint4_linear_131_4760)"/>
<path d="M41.0165 141.975C41.0165 134.027 40.4916 123.229 35.5426 116.48C31.8683 111.381 27.7442 111.981 25.4197 118.355C22.7202 125.703 25.1947 136.351 27.8942 143.325C30.6686 150.073 36.1425 151.723 41.0165 141.975Z" fill="url(#paint5_linear_131_4760)"/>
<path d="M333.607 109.207L255.923 443.113L241.301 437.864L318.385 105.682C319.509 100.883 324.608 98.3339 329.107 100.209C332.557 101.708 334.506 105.532 333.607 109.207Z" fill="#F38C87"/>
<path d="M320.409 109.582C320.409 109.582 319.509 113.706 318.01 121.054C317.26 124.729 316.285 129.078 315.235 134.177C314.185 139.276 312.911 144.974 311.561 151.198C310.211 157.422 308.711 164.17 307.137 171.294C305.562 178.417 303.912 185.991 302.188 193.714C298.664 209.236 294.914 225.808 291.24 242.454C287.416 259.026 283.592 275.598 279.992 291.119C278.193 298.918 276.393 306.341 274.743 313.465C273.019 320.588 271.444 327.262 269.944 333.486C268.445 339.709 267.095 345.333 265.895 350.432C264.695 355.456 263.571 359.88 262.746 363.479C260.946 370.678 259.896 374.802 259.896 374.802C259.896 374.802 260.796 370.678 262.296 363.329C263.046 359.655 264.021 355.306 265.07 350.207C266.12 345.108 267.395 339.409 268.745 333.186C270.094 326.962 271.594 320.213 273.169 313.09C274.743 305.966 276.393 298.393 278.118 290.669C281.642 275.148 285.391 258.576 289.066 241.929C292.89 225.358 296.714 208.786 300.313 193.264C302.113 185.466 303.912 178.043 305.562 170.919C307.287 163.795 308.861 157.122 310.361 150.898C311.861 144.674 313.211 139.051 314.41 133.952C315.61 128.928 316.735 124.504 317.56 120.904C319.359 113.706 320.409 109.582 320.409 109.582Z" fill="white"/>
<path d="M224.354 430.141L282.917 445.813L279.093 457.06L224.354 443.113V430.141Z" fill="#600707"/>
<path d="M231.777 440.563C231.777 440.563 231.477 442.513 230.953 445.962C230.428 449.412 229.603 454.211 228.628 460.059C226.603 471.682 223.604 487.204 219.855 502.501C218.88 506.325 217.98 510.149 216.93 513.898C215.881 517.648 214.831 521.322 213.781 524.846C213.256 526.646 212.731 528.37 212.131 530.02C211.607 531.745 211.007 533.394 210.407 534.969C209.882 536.544 209.282 538.118 208.682 539.618C208.157 541.118 207.482 542.543 206.957 543.892C206.433 545.242 205.758 546.517 205.233 547.791C204.708 548.991 204.108 550.116 203.508 551.241C203.208 551.766 202.983 552.291 202.683 552.815C202.383 553.265 202.084 553.79 201.859 554.24C201.334 555.14 200.884 555.965 200.359 556.64C199.834 557.314 199.459 557.989 199.084 558.514C198.634 559.039 198.259 559.489 198.034 559.789C197.434 560.464 197.135 560.839 197.135 560.839C197.135 560.839 197.434 560.464 198.034 559.714C198.334 559.339 198.634 558.889 199.084 558.364C199.459 557.839 199.834 557.165 200.284 556.415C200.734 555.74 201.184 554.84 201.709 553.94C201.934 553.49 202.233 553.04 202.458 552.515C202.683 551.991 202.983 551.466 203.208 550.941C203.733 549.891 204.258 548.691 204.783 547.491C205.308 546.292 205.833 544.942 206.358 543.592C206.883 542.243 207.407 540.818 207.932 539.318C208.457 537.819 208.982 536.244 209.507 534.669C210.032 533.094 210.557 531.445 211.007 529.72C211.532 527.995 211.981 526.271 212.431 524.471C213.406 520.947 214.306 517.198 215.206 513.449C216.106 509.699 216.93 505.875 217.68 501.976C220.83 486.604 223.229 471.082 224.804 459.385C225.629 453.536 226.229 448.662 226.604 445.288C226.978 441.913 227.203 439.964 227.203 439.964L231.777 440.563Z" fill="#600707"/>
<path d="M254.573 443.638C254.573 443.638 254.498 445.738 254.273 449.337C254.048 452.936 253.598 458.11 252.998 464.334C252.398 470.482 251.573 477.756 250.524 485.404C249.999 489.229 249.399 493.203 248.724 497.252C248.049 501.301 247.299 505.35 246.549 509.399C245.725 513.449 244.9 517.498 243.925 521.472C243.475 523.422 243.025 525.446 242.5 527.321C241.975 529.27 241.525 531.145 240.926 533.02C240.401 534.894 239.876 536.694 239.276 538.493C238.751 540.293 238.151 542.018 237.551 543.667C237.026 545.392 236.351 546.967 235.827 548.541C235.227 550.116 234.627 551.616 234.027 553.04C233.727 553.79 233.427 554.465 233.127 555.14C232.827 555.815 232.527 556.49 232.227 557.09C231.628 558.364 231.103 559.639 230.503 560.689C229.903 561.814 229.378 562.863 228.928 563.838C228.403 564.813 227.878 565.638 227.428 566.463C227.203 566.838 226.978 567.213 226.753 567.587C226.529 567.962 226.304 568.262 226.154 568.562C225.779 569.162 225.479 569.687 225.179 570.062C224.654 570.887 224.354 571.337 224.354 571.337C224.354 571.337 224.654 570.887 225.104 570.062C225.329 569.612 225.629 569.162 226.004 568.562C226.154 568.262 226.379 567.962 226.604 567.587C226.754 567.213 226.978 566.838 227.203 566.463C227.653 565.638 228.103 564.813 228.628 563.838C229.078 562.863 229.603 561.814 230.128 560.689C230.653 559.564 231.178 558.289 231.702 557.015C232.002 556.34 232.227 555.665 232.527 554.99C232.752 554.315 233.052 553.565 233.352 552.891C233.877 551.466 234.477 549.966 234.927 548.316C235.452 546.742 235.977 545.092 236.501 543.442C237.026 541.718 237.551 539.993 238.001 538.194C238.526 536.394 238.976 534.594 239.426 532.72C239.876 530.845 240.326 528.97 240.776 527.021C241.225 525.071 241.6 523.122 242.05 521.097C242.875 517.123 243.55 513.074 244.225 509.025C244.9 504.975 245.5 500.926 245.95 496.877C246.474 492.828 246.924 488.929 247.299 485.029C248.124 477.381 248.649 470.183 249.024 464.034C249.399 457.885 249.624 452.711 249.774 449.187C249.924 445.588 249.924 443.563 249.924 443.563L254.573 443.638Z" fill="#600707"/>
<path d="M278.418 450.611C278.418 450.611 278.568 451.061 278.868 451.886C279.168 452.711 279.543 453.986 279.993 455.56C280.892 458.71 282.167 463.209 283.442 468.608C284.042 471.307 284.717 474.307 285.316 477.456C285.916 480.605 286.516 483.905 287.041 487.354C287.566 490.803 288.016 494.402 288.391 498.002C288.466 498.902 288.541 499.801 288.691 500.776C288.766 501.676 288.841 502.651 288.916 503.551C289.066 505.425 289.141 507.225 289.291 509.099C289.366 510.974 289.441 512.849 289.441 514.648C289.441 516.523 289.441 518.323 289.441 520.197C289.366 523.871 289.216 527.471 288.841 530.92C288.691 532.645 288.541 534.369 288.241 536.019C288.016 537.669 287.791 539.318 287.491 540.893C286.966 544.042 286.291 546.967 285.541 549.666C285.167 551.016 284.792 552.291 284.417 553.49C284.042 554.69 283.592 555.815 283.217 556.865C282.842 557.914 282.467 558.889 282.092 559.789C281.717 560.689 281.417 561.514 281.042 562.264C280.368 563.763 279.768 564.888 279.393 565.638C279.018 566.388 278.793 566.838 278.793 566.838C278.793 566.838 278.943 566.388 279.318 565.638C279.693 564.813 280.218 563.688 280.817 562.189C281.117 561.439 281.417 560.614 281.717 559.639C282.017 558.739 282.392 557.764 282.692 556.64C282.992 555.59 283.367 554.39 283.742 553.19C284.042 551.991 284.342 550.641 284.717 549.366C285.317 546.667 285.841 543.742 286.291 540.593C286.516 539.018 286.666 537.444 286.816 535.794C287.041 534.144 287.041 532.42 287.191 530.695C287.416 527.246 287.416 523.721 287.341 520.047C287.266 518.248 287.191 516.448 287.116 514.573C286.966 512.774 286.891 510.899 286.741 509.099C286.591 507.3 286.441 505.425 286.141 503.626C286.066 502.726 285.916 501.826 285.841 500.926C285.691 500.026 285.616 499.126 285.466 498.227C284.942 494.627 284.342 491.103 283.667 487.729C282.992 484.355 282.317 481.13 281.567 478.056C280.817 474.981 280.068 472.132 279.318 469.433C277.818 464.109 276.468 459.76 275.419 456.76C274.894 455.261 274.444 454.061 274.144 453.236C273.844 452.411 273.694 452.036 273.694 452.036L278.418 450.611Z" fill="#600707"/>
<path d="M172.164 54.9179C172.164 71.8644 173.364 90.1606 168.64 106.357C163.316 124.654 145.095 139.126 144.87 158.921C144.645 180.067 169.54 184.791 186.187 182.992C220.53 179.317 236.951 150.073 240.55 118.43C243.025 96.6093 249.024 64.8908 229.528 48.9941C219.33 40.5958 202.758 36.5466 189.861 40.2959C185.137 41.6456 172.764 48.2442 172.164 54.9179Z" fill="#F7A89B"/>
<path d="M172.164 75.7636C175.539 74.0389 178.763 71.7894 182.737 72.0143C182.887 73.589 183.562 75.1637 184.312 76.5884C184.612 74.8638 185.137 72.9891 184.912 71.1895C186.561 74.5638 186.562 78.613 187.686 81.9123C182.587 80.7125 173.514 80.7125 169.165 84.1618C169.165 81.3124 170.59 78.2381 172.164 75.7636Z" fill="#FAD9C6"/>
<path d="M201.708 130.427C200.884 135.151 201.634 139.126 198.634 143.175C196.16 146.549 191.96 149.399 187.911 150.298C181.088 151.798 174.789 149.773 168.49 147.524C168.49 141.15 167.366 134.851 167.216 128.553C177.863 122.929 190.911 129.678 201.708 130.427Z" fill="#C92F6E"/>
<path d="M173.514 149.249C178.163 150.673 182.887 151.423 187.911 150.298C191.96 149.398 196.16 146.549 198.634 143.175C199.009 142.65 199.384 142.125 199.609 141.6C190.311 141.525 180.863 143.85 173.514 149.249Z" fill="#E25D99"/>
<path d="M220.005 91.5853C217.755 87.1612 207.632 83.7869 202.608 82.8871C202.308 79.7377 204.108 74.2639 206.357 72.3143C205.983 74.1889 205.907 75.8385 205.758 77.7881C207.107 75.8385 207.782 73.814 210.182 73.589C212.656 73.3641 216.18 75.9885 218.13 77.2632C219.255 78.0131 221.879 79.4378 222.254 80.7125C223.079 83.187 220.529 88.8858 220.005 91.5853Z" fill="#FAD9C6"/>
<path d="M244.6 125.178C241.975 145.874 238.676 166.12 228.928 184.791C225.179 191.99 221.654 198.963 215.506 204.512C210.182 209.311 204.108 212.91 198.034 216.585C194.735 218.534 188.886 222.358 184.987 221.834C188.136 217.784 193.01 211.036 192.785 205.712C187.686 211.411 182.437 216.81 176.664 221.834C173.289 224.683 169.165 226.183 165.791 228.432C157.767 224.233 151.919 216.36 147.87 208.561C145.695 204.437 143.745 200.238 141.721 196.039C140.896 194.314 139.396 192.215 139.396 190.19C137.672 191.915 138.047 195.439 139.096 197.614C133.922 192.74 127.549 186.366 126.199 179.017C123.875 166.795 132.273 132.452 163.691 125.928C157.093 133.877 154.468 149.248 156.493 159.296C158.142 167.545 170.44 172.869 173.964 162.896C171.79 163.046 169.09 160.046 168.715 157.947C174.864 161.546 184.237 160.571 190.761 158.547C189.411 160.421 185.887 162.821 183.637 163.196C183.862 166.42 182.063 168.894 185.812 170.394C189.636 171.969 195.035 170.394 198.709 168.969C223.004 159.521 237.476 129.827 242.05 105.982C239.051 103.658 235.601 101.633 233.652 97.884C229.678 90.2356 229.603 81.1625 229.603 72.6892C232.752 74.2639 240.775 72.3143 244.675 72.8392C247.824 73.2891 251.348 73.514 254.123 75.1637C252.623 84.3868 253.673 92.8601 251.573 102.233C250.373 107.482 249.474 113.256 247.449 118.28C246.399 120.304 244.825 123.529 244.6 125.178Z" fill="#FAD9C6"/>
<path d="M163.241 181.117C156.793 186.441 154.168 199.113 154.768 206.912C149.669 194.014 140.896 183.516 140.596 169.044C138.421 173.469 135.572 179.617 134.597 185.016C131.298 178.193 133.098 166.12 137.297 159.671C134.672 162.671 131.823 165.37 130.698 169.344C134.147 154.497 142.246 139.201 154.018 128.778C130.173 139.351 123.65 167.995 125.749 178.942C127.099 186.291 133.398 192.665 138.646 197.539C137.672 195.439 137.297 191.915 138.946 190.115C138.946 192.065 140.446 194.164 141.271 195.964C143.295 200.163 145.245 204.362 147.42 208.486C151.469 216.21 157.243 224.008 165.116 228.207C162.342 213.585 161.367 196.864 163.241 181.117Z" fill="white"/>
<path d="M202.458 208.336C200.434 209.536 198.109 210.511 196.309 212.011C199.984 207.961 198.559 199.263 197.134 194.389C196.01 190.64 190.686 185.841 187.611 183.367C191.061 193.34 191.96 198.588 192.335 205.637C192.56 211.036 187.761 217.784 184.537 221.759C188.436 222.209 194.285 218.459 197.584 216.51C203.658 212.91 209.732 209.311 215.056 204.437C221.204 198.888 224.729 191.99 228.478 184.716C229.003 183.666 229.528 182.617 230.053 181.492C226.903 186.291 223.379 190.715 219.705 194.614C214.756 200.088 208.832 204.662 202.458 208.336Z" fill="white"/>
<path d="M180.263 116.78C177.489 116.255 172.764 116.405 170.29 114.906C164.516 115.43 160.842 114.606 155.743 118.43C151.469 121.654 148.245 123.454 143.371 125.103C150.869 134.177 163.916 135.601 173.139 128.853C180.263 132.077 185.287 135.076 193.46 135.076C200.734 135.076 207.482 132.152 212.131 126.678C204.708 127.203 199.084 121.279 192.785 118.43C188.811 116.705 184.537 117.53 180.263 116.78Z" fill="#FAD9C6"/>
<path d="M185.362 102.833C186.646 102.833 187.686 100.315 187.686 97.2092C187.686 94.1033 186.646 91.5854 185.362 91.5854C184.078 91.5854 183.037 94.1033 183.037 97.2092C183.037 100.315 184.078 102.833 185.362 102.833Z" fill="#282B34"/>
<path opacity="0.5" d="M166.766 114.456C170.515 123.904 189.261 126.753 195.71 119.255C197.434 117.305 199.459 110.556 196.684 108.457C195.485 107.557 192.185 109.282 190.761 109.657C185.662 111.081 180.563 112.431 175.464 113.781C173.214 114.456 168.865 116.18 166.766 114.456Z" fill="#99320E"/>
<path d="M192.485 102.008C181.238 94.9597 158.142 92.9351 160.242 106.582C161.517 114.906 168.115 118.955 176.139 119.33C182.662 119.63 192.185 119.78 196.834 114.231C200.509 109.732 197.809 105.308 192.485 102.008Z" fill="url(#paint6_linear_131_4760)"/>
<path d="M206.807 105.308C208.091 105.308 209.132 102.79 209.132 99.6837C209.132 96.5777 208.091 94.0598 206.807 94.0598C205.524 94.0598 204.483 96.5777 204.483 99.6837C204.483 102.79 205.524 105.308 206.807 105.308Z" fill="#282B34"/>
<path d="M245.199 97.1342C249.024 93.7599 256.147 90.1607 259.821 95.4846C264.545 102.383 257.872 112.506 253.523 117.905C248.724 124.054 238.301 132.077 229.828 128.553C229.903 118.055 238.901 102.683 245.199 97.1342Z" fill="#F7A89B"/>
<path d="M239.276 112.731C240.325 108.457 246.249 100.209 250.898 99.0838C254.048 98.334 256.372 100.958 255.697 103.958C252.173 99.0088 248.349 105.907 246.099 108.607C254.348 111.981 243.325 122.329 238.076 119.855C240.625 118.28 245.05 115.88 244.225 112.206C242.65 111.831 240.925 112.356 239.276 112.731Z" fill="#ED6861"/>
<path d="M173.514 126.378C157.543 137.776 143.371 125.178 143.371 125.178C150.869 134.252 163.916 135.676 173.139 128.928C180.263 132.152 185.287 135.151 193.46 135.151C200.734 135.151 207.482 132.227 212.131 126.753C190.536 139.5 173.514 126.378 173.514 126.378Z" fill="white"/>
<path d="M228.703 107.407C229.978 112.506 224.354 118.355 216.181 120.454C208.007 122.554 200.284 120.08 199.009 114.906C197.734 109.807 203.358 103.958 211.531 101.858C219.705 99.7587 227.428 102.233 228.703 107.407Z" fill="url(#paint7_linear_131_4760)"/>
<path d="M320.484 84.7618C320.484 84.7618 267.02 92.4852 207.332 77.4883C147.57 62.4914 104.154 30.398 104.154 30.398C104.154 30.398 157.618 22.6745 217.305 37.6715C276.993 52.6684 320.484 84.7618 320.484 84.7618Z" fill="#CE654F"/>
<path d="M125.074 30.3979C125.074 30.3979 134.372 29.0482 149.594 28.5983C122.375 27.7735 104.079 30.3979 104.079 30.3979C104.079 30.3979 147.495 62.4913 207.257 77.4882C242.05 86.2614 274.668 87.2362 295.889 86.6363C276.693 86.0365 252.998 83.7119 228.253 77.4882C168.49 62.4163 125.074 30.3979 125.074 30.3979Z" fill="#ECC7AD"/>
<path d="M306.237 85.8866C301.513 86.1115 296.714 86.2615 291.99 86.2615C289.59 86.2615 287.266 86.2615 284.866 86.2615L277.743 86.1115L270.619 85.8116C268.22 85.7366 265.895 85.5116 263.496 85.3617L259.972 85.1367L256.447 84.7618C254.123 84.5368 251.723 84.3119 249.399 84.0869C244.675 83.487 240.026 82.9622 235.302 82.1373C232.977 81.7624 230.652 81.4625 228.328 81.0126L221.354 79.6628C220.23 79.4379 219.03 79.2129 217.905 78.988L214.456 78.1631L207.557 76.5885L200.734 74.7139L197.284 73.739C196.16 73.4391 195.035 73.0642 193.91 72.6893L187.161 70.5147C184.912 69.7649 182.662 68.94 180.488 68.1902C175.989 66.6905 171.64 64.8159 167.216 63.1662C165.041 62.2664 162.866 61.2916 160.692 60.3918L157.393 58.9671L154.168 57.4674C151.994 56.4926 149.819 55.5178 147.72 54.468L141.346 51.3187L135.047 48.0193C132.948 46.8946 130.923 45.7698 128.823 44.645C124.699 42.3205 120.575 39.921 116.601 37.4465C113.227 35.3469 109.852 33.1724 106.553 30.9228C107.378 30.8479 108.203 30.6979 108.953 30.6229C110.527 30.4729 112.027 30.323 113.602 30.173C116.751 29.8731 119.825 29.6481 122.975 29.4981C124.549 29.4232 126.124 29.3482 127.699 29.2732C129.273 29.1982 130.848 29.1232 132.423 29.1232L137.147 29.0482H141.871C143.445 29.0482 145.02 29.0482 146.595 29.0482C148.169 29.0482 149.744 29.0482 151.319 29.1232L156.043 29.2732C157.617 29.3482 159.192 29.4232 160.767 29.4981C162.342 29.5731 163.916 29.6481 165.491 29.7231L170.215 30.023C171.79 30.098 173.364 30.248 174.939 30.398L179.663 30.8479L175.014 30.248C173.439 30.023 171.865 29.8731 170.365 29.7231L165.641 29.2732C164.066 29.1232 162.491 29.0482 160.917 28.8983C159.342 28.8233 157.768 28.6733 156.193 28.5983L151.469 28.3734C149.894 28.2984 148.319 28.2234 146.745 28.1484C145.17 28.0734 143.595 27.9985 142.021 27.9985L137.297 27.9235H132.573C130.998 27.9235 129.423 27.9985 127.849 27.9985C126.274 27.9985 124.699 28.0734 123.125 28.1484C119.975 28.2984 116.826 28.4484 113.677 28.6733C112.102 28.8233 110.527 28.8983 108.953 29.0482C107.378 29.1982 105.803 29.3482 104.228 29.5731L102.054 29.8731L103.779 31.1478C107.678 33.9972 111.652 36.6217 115.626 39.1712C119.675 41.6456 123.799 44.1201 127.924 46.4447C130.023 47.5694 132.048 48.7692 134.147 49.8939L140.446 53.1933L146.82 56.3426C148.919 57.3924 151.169 58.3672 153.268 59.417L156.493 60.9167L159.792 62.3414C161.967 63.2412 164.141 64.216 166.391 65.1158C170.815 66.8405 175.239 68.6401 179.738 70.1398C181.988 70.8896 184.237 71.7895 186.487 72.4643L193.31 74.5639C194.435 74.9388 195.56 75.3137 196.759 75.6137L200.209 76.5135L207.107 78.3881L214.081 79.9628L217.53 80.7876C218.655 81.0875 219.855 81.2375 221.055 81.4625L228.103 82.8122C229.303 83.0371 230.428 83.1871 231.627 83.4121L235.152 83.937C239.876 84.6868 244.6 85.1367 249.324 85.6616C251.723 85.8865 254.048 86.0365 256.447 86.2615L259.972 86.5614L263.571 86.7114C265.97 86.7864 268.295 87.0113 270.694 87.0113L277.818 87.1613C282.542 87.2363 287.341 87.1613 292.065 87.0113C296.789 86.8613 301.588 86.5614 306.312 86.2615C311.036 85.8866 315.76 85.3617 320.484 84.6868C315.76 85.2867 310.961 85.5866 306.237 85.8866Z" fill="white"/>
<path d="M254.348 66.6155C254.797 54.8429 258.697 34.1472 251.873 24.0243C244.974 13.7514 227.278 -4.46988 214.606 1.004C195.56 9.2523 181.463 27.8485 168.64 43.2953C179.963 54.543 232.002 70.9646 254.348 66.6155Z" fill="#E4AD8E"/>
<path d="M210.781 2.80359C193.61 11.7268 180.563 28.8982 168.565 43.2203C174.789 49.369 193.16 57.0924 212.206 62.1164C214.756 42.5454 214.306 22.5995 210.781 2.80359Z" fill="#ECC7AD"/>
<path d="M251.873 24.0242C245.649 14.8761 230.877 -0.64569 218.805 0.0291716C220.83 13.0015 227.503 26.7237 238.076 33.2473C240.55 34.747 245.124 36.3217 247.074 38.4213C249.849 41.4207 248.574 47.4944 247.599 51.6936C246.024 58.5172 242.5 63.5411 238.001 66.9904C244.3 67.5903 249.924 67.5153 254.423 66.6905C254.873 54.7679 258.772 34.1472 251.873 24.0242Z" fill="#CC977D"/>
<path d="M315.76 224.308C312.386 221.159 310.211 217.484 306.162 214.935C301.663 212.16 297.464 209.911 292.215 209.386C288.691 209.011 283.892 208.861 282.842 213.285C281.717 217.784 286.891 221.159 289.291 224.008C285.016 223.633 279.992 225.883 279.243 230.457C278.343 235.856 283.142 237.055 286.816 239.23C282.167 239.155 278.268 239.38 276.693 244.479C274.818 250.628 279.692 254.227 284.192 256.326C275.043 256.101 275.493 264.275 282.692 267.724C287.941 270.274 296.864 274.998 302.413 271.173C306.687 268.249 307.962 264.35 309.236 259.701C310.661 254.602 313.361 250.403 315.385 245.679C317.785 239.98 320.259 230.157 315.76 224.308Z" fill="#F7A89B"/>
<path d="M289.365 224.083C292.89 224.533 306.987 229.032 309.536 231.282C308.037 231.582 289.365 224.008 289.365 224.083Z" fill="#ED6861"/>
<path d="M285.766 239.08C288.691 239.38 300.013 242.679 302.188 244.254C300.913 244.404 285.841 239.005 285.766 239.08Z" fill="#ED6861"/>
<path d="M283.742 255.802C286.666 256.101 297.989 259.401 300.163 260.975C298.889 261.2 283.817 255.802 283.742 255.802Z" fill="#ED6861"/>
<path d="M237.851 434.64L251.873 382.301L271.369 389.874L259.822 443.488L237.851 434.64Z" fill="#600707"/>
<path d="M271.369 389.874C268.22 388.449 264.995 387.025 261.771 385.675C258.547 384.25 255.323 382.975 252.173 381.626L251.423 381.326L251.198 382.151L249.324 388.674L247.449 395.198C246.174 399.547 245.05 403.896 243.85 408.245C242.65 412.594 241.525 416.943 240.401 421.368L238.751 427.966C238.301 429.841 237.776 431.715 237.326 433.59L231.477 431.79L224.729 429.766L223.979 429.541V430.291L224.204 436.814C224.279 438.989 224.429 441.164 224.504 443.338C224.654 441.164 224.729 438.989 224.804 436.814L225.029 431.116L230.953 433.29L237.626 435.69L238.526 435.99L238.826 435.015C239.501 432.84 240.026 430.666 240.701 428.491L242.5 421.967C243.7 417.618 244.9 413.269 246.024 408.92C247.149 404.571 248.349 400.222 249.474 395.798L251.123 389.199L252.548 383.425C255.547 384.475 258.547 385.6 261.546 386.65C264.696 387.624 267.995 388.749 271.369 389.874Z" fill="white"/>
<defs>
<linearGradient id="paint0_linear_131_4760" x1="264.993" y1="222.875" x2="285.347" y2="229.386" gradientUnits="userSpaceOnUse">
<stop stop-color="#F7A89B"/>
<stop offset="0.3284" stop-color="#F7A599"/>
<stop offset="0.533" stop-color="#F79D92"/>
<stop offset="0.7036" stop-color="#F68E86"/>
<stop offset="0.8547" stop-color="#F57A76"/>
<stop offset="0.9932" stop-color="#F46060"/>
<stop offset="1" stop-color="#F45E5F"/>
</linearGradient>
<linearGradient id="paint1_linear_131_4760" x1="76.0668" y1="234.525" x2="67.4297" y2="283.263" gradientUnits="userSpaceOnUse">
<stop stop-color="#F45E5F"/>
<stop offset="0.2439" stop-color="#F56B6A"/>
<stop offset="0.6933" stop-color="#F68D85"/>
<stop offset="1" stop-color="#F7A89B"/>
</linearGradient>
<linearGradient id="paint2_linear_131_4760" x1="304.692" y1="257.051" x2="344.608" y2="289.833" gradientUnits="userSpaceOnUse">
<stop stop-color="#F45E5F"/>
<stop offset="0.00678498" stop-color="#F46060"/>
<stop offset="0.1453" stop-color="#F57A76"/>
<stop offset="0.2964" stop-color="#F68E86"/>
<stop offset="0.467" stop-color="#F79D92"/>
<stop offset="0.6716" stop-color="#F7A599"/>
<stop offset="1" stop-color="#F7A89B"/>
</linearGradient>
<linearGradient id="paint3_linear_131_4760" x1="2.75083" y1="144.109" x2="20.3722" y2="144.109" gradientUnits="userSpaceOnUse">
<stop stop-color="#F7A89B"/>
<stop offset="0.3284" stop-color="#F7A599"/>
<stop offset="0.533" stop-color="#F79D92"/>
<stop offset="0.7036" stop-color="#F68E86"/>
<stop offset="0.8547" stop-color="#F57A76"/>
<stop offset="0.9932" stop-color="#F46060"/>
<stop offset="1" stop-color="#F45E5F"/>
</linearGradient>
<linearGradient id="paint4_linear_131_4760" x1="12.3091" y1="137.883" x2="29.7913" y2="137.883" gradientUnits="userSpaceOnUse">
<stop stop-color="#F7A89B"/>
<stop offset="0.3284" stop-color="#F7A599"/>
<stop offset="0.533" stop-color="#F79D92"/>
<stop offset="0.7036" stop-color="#F68E86"/>
<stop offset="0.8547" stop-color="#F57A76"/>
<stop offset="0.9932" stop-color="#F46060"/>
<stop offset="1" stop-color="#F45E5F"/>
</linearGradient>
<linearGradient id="paint5_linear_131_4760" x1="35.3602" y1="150.495" x2="30.3612" y2="115.253" gradientUnits="userSpaceOnUse">
<stop stop-color="#F45E5F"/>
<stop offset="0.00678498" stop-color="#F46060"/>
<stop offset="0.1453" stop-color="#F57A76"/>
<stop offset="0.2964" stop-color="#F68E86"/>
<stop offset="0.467" stop-color="#F79D92"/>
<stop offset="0.6716" stop-color="#F7A599"/>
<stop offset="1" stop-color="#F7A89B"/>
</linearGradient>
<linearGradient id="paint6_linear_131_4760" x1="160.082" y1="107.95" x2="198.49" y2="107.95" gradientUnits="userSpaceOnUse">
<stop stop-color="#F45E5F"/>
<stop offset="1" stop-color="#F7A89B"/>
</linearGradient>
<linearGradient id="paint7_linear_131_4760" x1="211.087" y1="102.956" x2="216.523" y2="119.078" gradientUnits="userSpaceOnUse">
<stop stop-color="#F45E5F"/>
<stop offset="0.00678498" stop-color="#F46060"/>
<stop offset="0.1453" stop-color="#F57A76"/>
<stop offset="0.2964" stop-color="#F68E86"/>
<stop offset="0.467" stop-color="#F79D92"/>
<stop offset="0.6716" stop-color="#F7A599"/>
<stop offset="1" stop-color="#F7A89B"/>
</linearGradient>
</defs>
</svg>
