<svg width="1920" height="1278" viewBox="0 0 1920 1278" fill="none" xmlns="http://www.w3.org/2000/svg">
<path fill-rule="evenodd" clip-rule="evenodd" d="M966.999 31.1197C766.012 60.3237 538.632 93.3625 181.935 46.0698C154.212 42.4256 129.403 39.0427 106.659 35.9414C-42.3044 15.6289 -102.715 7.39138 -313.454 16.8857C-556.37 27.8297 -589 89.9977 -589 89.9977L-1 89.9977V1278H1919V89.9977L2707 89.998C2707 89.998 2612.73 -6.82601 2410.69 10.198C2339.11 16.115 2307.91 22.6301 2269.35 30.683C2232.62 38.3521 2189.22 47.4159 2097.9 58.6859C2089.9 59.6663 2082.24 60.6149 2074.87 61.5273C1908.6 82.1169 1891.33 84.2563 1484.18 16.4299C1288.92 -15.656 1137.45 6.35283 966.999 31.1197Z" fill="url(#paint0_linear_6_6572)"/>
<defs>
<linearGradient id="paint0_linear_6_6572" x1="1059" y1="0.413086" x2="1059" y2="1278" gradientUnits="userSpaceOnUse">
<stop stop-color="#F7DF74"/>
<stop offset="1" stop-color="white" stop-opacity="0"/>
</linearGradient>
</defs>
</svg>
