<svg width="1920" height="658" viewBox="0 0 1920 658" fill="none" xmlns="http://www.w3.org/2000/svg">
<path fill-rule="evenodd" clip-rule="evenodd" d="M967.999 31.1199C767.012 60.3239 539.632 93.3628 182.935 46.07C155.212 42.4258 130.403 39.043 107.659 35.9416C-41.3045 15.6292 -101.715 7.39162 -312.455 16.886C-555.37 27.83 -588 89.998 -588 89.998L0 89.9979V1278H1920V89.9979L2708 89.9982C2708 89.9982 2613.73 -6.82576 2411.69 10.1982C2340.11 16.1152 2308.91 22.6304 2270.35 30.6832C2233.62 38.3524 2190.22 47.4162 2098.9 58.6862C2090.9 59.6666 2083.24 60.6152 2075.87 61.5276C1909.6 82.1172 1892.33 84.2566 1485.18 16.4301C1289.92 -15.6557 1138.45 6.35307 967.999 31.1199Z" fill="url(#paint0_linear_1_951)"/>
<defs>
<linearGradient id="paint0_linear_1_951" x1="1060" y1="0.41333" x2="1060" y2="1278" gradientUnits="userSpaceOnUse">
<stop stop-color="#F7DF74"/>
<stop offset="1" stop-color="white" stop-opacity="0"/>
</linearGradient>
</defs>
</svg>
