<svg width="111" height="111" viewBox="0 0 111 111" fill="none" xmlns="http://www.w3.org/2000/svg">
<path fill-rule="evenodd" clip-rule="evenodd" d="M36.385 90.3828C25.8228 86.1442 14.7864 79.9328 11.3976 69.068C7.93262 57.9589 13.8197 46.61 19.5779 36.4975C25.3824 26.3035 32.2198 15.627 43.5525 12.5973C54.8812 9.56867 67.2914 13.7725 76.2418 21.3488C84.0283 27.9399 84.0951 39.0305 86.494 48.946C88.7935 58.4508 94.3102 68.3585 89.7016 76.9834C85.0273 85.7314 74.0003 87.9125 64.381 90.33C54.9723 92.6946 45.3883 93.9958 36.385 90.3828Z" fill="url(#paint0_linear_1_3697)"/>
<path d="M49.7579 41.3091C49.7576 41.3094 49.7572 41.3097 49.7569 41.3101L44.3053 46.821C43.8969 47.2339 43.8984 47.9016 44.3089 48.3126C44.7192 48.7235 45.383 48.7219 45.7915 48.3091L49.4516 44.609V66.9451C49.4516 67.5276 49.921 67.9998 50.5 67.9998C51.079 67.9998 51.5484 67.5276 51.5484 66.9451V44.6091L55.2085 48.309C55.617 48.7219 56.2808 48.7235 56.6911 48.3125C57.1016 47.9016 57.1031 47.2338 56.6947 46.821L51.2431 41.31C51.2428 41.3097 51.2424 41.3094 51.2421 41.3091C50.8323 40.896 50.1664 40.8973 49.7579 41.3091Z" fill="white"/>
<defs>
<linearGradient id="paint0_linear_1_3697" x1="50.2751" y1="99.8217" x2="118.542" y2="65.3013" gradientUnits="userSpaceOnUse">
<stop stop-color="#FEBE01"/>
<stop offset="1" stop-color="#F37502"/>
</linearGradient>
</defs>
</svg>
