<svg width="40" height="41" viewBox="0 0 40 41" fill="none" xmlns="http://www.w3.org/2000/svg">
<rect y="0.997314" width="40" height="40" rx="20" fill="#55ACE3"/>
<path d="M30.6 15.8973C29.9 16.1973 29.1 16.3973 28.3 16.4973C29.1 15.9973 29.8 15.1973 30.1 14.2973C29.3 14.7973 28.5 15.0973 27.5 15.2973C26.8 14.4973 25.7 13.9973 24.6 13.9973C22.4 13.9973 20.6 15.7973 20.6 17.9973C20.6 18.2973 20.6 18.5973 20.7 18.8973C17.4 18.6973 14.4 17.0973 12.4 14.6973C12.1 15.2973 11.9 15.9973 11.9 16.6973C11.9 18.0973 12.6 19.2973 13.7 19.9973C13 19.9973 12.4 19.7973 11.9 19.4973C11.9 21.3973 13.3 23.0973 15.1 23.3973C14.8 23.4973 14.4 23.4973 14 23.4973C13.7 23.4973 13.5 23.4973 13.2 23.3973C13.7 24.9973 15.2 26.1973 17 26.1973C15.6 27.2973 13.9 27.8973 12 27.8973C11.7 27.8973 11.4 27.8973 11 27.7973C12.8 28.8973 14.9 29.5973 17.2 29.5973C24.6 29.5973 28.6 23.4973 28.6 18.1973V17.6973C29.4 17.3973 30.1 16.6973 30.6 15.8973Z" fill="white"/>
</svg>
