<svg width="88" height="88" viewBox="0 0 88 88" fill="none" xmlns="http://www.w3.org/2000/svg">
<g clip-path="url(#clip0_1_802)">
<path d="M50.1875 36.0942H37.8125C36.8632 36.0942 36.0938 36.8639 36.0938 37.813V50.188C36.0938 51.1371 36.8632 51.9067 37.8125 51.9067H50.1875C51.1368 51.9067 51.9062 51.1371 51.9062 50.188V37.813C51.9062 36.8639 51.1368 36.0942 50.1875 36.0942ZM48.4688 48.4692H39.5312V39.5317H48.4688V48.4692Z" fill="black"/>
<path d="M82.1562 9.28174C78.9339 9.28174 76.3125 11.9032 76.3125 15.1255C76.3125 18.3478 78.9339 20.9692 82.1562 20.9692C85.3786 20.9692 88 18.3478 88 15.1255C88 11.9032 85.3786 9.28174 82.1562 9.28174ZM82.1562 17.5317C80.8294 17.5317 79.75 16.4524 79.75 15.1255C79.75 13.7986 80.8294 12.7192 82.1562 12.7192C83.4831 12.7192 84.5625 13.7986 84.5625 15.1255C84.5625 16.4524 83.4831 17.5317 82.1562 17.5317Z" fill="black"/>
<path d="M73.3202 13.9052C73.0005 13.5857 72.557 13.4016 72.105 13.4016C71.6512 13.4016 71.2078 13.5855 70.8881 13.9052C70.5684 14.2249 70.3862 14.6683 70.3862 15.1204C70.3862 15.5724 70.5684 16.0158 70.8881 16.3355C71.2095 16.655 71.6512 16.8391 72.105 16.8391C72.557 16.8391 73.0005 16.6552 73.3202 16.3355C73.6398 16.0158 73.8237 15.5724 73.8237 15.1204C73.8237 14.6683 73.6398 14.2249 73.3202 13.9052Z" fill="black"/>
<path d="M71.4199 45.7192C72.1557 48.1054 74.3811 49.8442 77.0053 49.8442C80.2276 49.8442 82.8491 47.2228 82.8491 44.0005C82.8491 40.7782 80.2275 38.1567 77.0053 38.1567C74.381 38.1567 72.1555 39.8956 71.4199 42.2817H60.8438V28.8755C60.8438 27.9264 60.0743 27.1567 59.125 27.1567H56.375V16.8391H66.0038C66.953 16.8391 67.7225 16.0694 67.7225 15.1203C67.7225 14.1712 66.953 13.4016 66.0038 13.4016H54.6562C53.707 13.4016 52.9375 14.1712 52.9375 15.1203V27.1567H45.7188V16.5808C48.1047 15.845 49.8438 13.6197 49.8438 10.9953C49.8438 7.77302 47.2223 5.15158 44 5.15158C40.7777 5.15158 38.1562 7.77302 38.1562 10.9953C38.1562 13.6197 39.8953 15.8451 42.2812 16.5808V27.1567H28.875C27.9257 27.1567 27.1562 27.9264 27.1562 28.8755V31.6255H16.8384V11.4312C19.2271 10.6971 20.9687 8.47049 20.9687 5.84424C20.9687 2.62193 18.3473 0.000488281 15.125 0.000488281C11.9027 0.000488281 9.28125 2.62193 9.28125 5.84424C9.28125 8.46671 11.0177 10.6908 13.4009 11.4281V33.3442C13.4009 34.2933 14.1704 35.063 15.1197 35.063H27.1562V42.2817H16.5801C15.8443 39.8956 13.6189 38.1567 10.9947 38.1567C7.77236 38.1567 5.15092 40.7782 5.15092 44.0005C5.15092 47.2228 7.77236 49.8442 10.9947 49.8442C13.619 49.8442 15.8445 48.1054 16.5801 45.7192H27.1562V59.1255C27.1562 60.0746 27.9257 60.8442 28.875 60.8442H31.625V71.1619H21.9962C21.047 71.1619 20.2775 71.9316 20.2775 72.8806C20.2775 73.8297 21.047 74.5994 21.9962 74.5994H33.3438C34.293 74.5994 35.0625 73.8297 35.0625 72.8806V60.8442H42.2812V71.4202C39.8953 72.156 38.1562 74.3813 38.1562 77.0056C38.1562 80.228 40.7777 82.8494 44 82.8494C47.2223 82.8494 49.8438 80.228 49.8438 77.0056C49.8438 74.3813 48.1047 72.1558 45.7188 71.4202V60.8442H59.125C60.0743 60.8442 60.8438 60.0746 60.8438 59.1255V56.3755H71.1616V76.5698C68.7729 77.3038 67.0312 79.5305 67.0312 82.1567C67.0312 85.3791 69.6527 88.0005 72.875 88.0005C76.0973 88.0005 78.7188 85.3791 78.7188 82.1567C78.7188 79.5343 76.9823 77.3102 74.5991 76.5729V54.6567C74.5991 53.7076 73.8296 52.938 72.8803 52.938H60.8438V45.7192H71.4199ZM77.0053 41.5942C78.3322 41.5942 79.4116 42.6736 79.4116 44.0005C79.4116 45.3274 78.332 46.4067 77.0053 46.4067C75.6785 46.4067 74.5991 45.3274 74.5991 44.0005C74.5991 42.6736 75.6785 41.5942 77.0053 41.5942ZM15.125 8.25049C13.7981 8.25049 12.7187 7.17111 12.7187 5.84424C12.7187 4.51736 13.7981 3.43799 15.125 3.43799C16.4519 3.43799 17.5312 4.51736 17.5312 5.84424C17.5312 7.17111 16.4519 8.25049 15.125 8.25049ZM10.9947 46.4067C9.6678 46.4067 8.58842 45.3274 8.58842 44.0005C8.58842 42.6736 9.6678 41.5942 10.9947 41.5942C12.3215 41.5942 13.4009 42.6736 13.4009 44.0005C13.4009 45.3274 12.3215 46.4067 10.9947 46.4067ZM41.5938 10.9953C41.5938 9.66846 42.6731 8.58908 44 8.58908C45.3269 8.58908 46.4062 9.66846 46.4062 10.9953C46.4062 12.3222 45.3269 13.4016 44 13.4016C42.6731 13.4016 41.5938 12.3222 41.5938 10.9953ZM46.4062 77.0056C46.4062 78.3325 45.3269 79.4119 44 79.4119C42.6731 79.4119 41.5938 78.3325 41.5938 77.0056C41.5938 75.6788 42.6731 74.5994 44 74.5994C45.3269 74.5994 46.4062 75.6788 46.4062 77.0056ZM57.4062 57.4067H30.5938V30.5942H57.4062V57.4067ZM72.875 79.7505C74.2019 79.7505 75.2812 80.8299 75.2812 82.1567C75.2812 83.4836 74.2019 84.563 72.875 84.563C71.5481 84.563 70.4688 83.4836 70.4688 82.1567C70.4688 80.8299 71.5481 79.7505 72.875 79.7505Z" fill="black"/>
<path d="M5.84375 67.0317C2.62144 67.0317 0 69.6532 0 72.8755C0 76.0978 2.62144 78.7192 5.84375 78.7192C9.06606 78.7192 11.6875 76.0978 11.6875 72.8755C11.6875 69.6532 9.06606 67.0317 5.84375 67.0317ZM5.84375 75.2817C4.51688 75.2817 3.4375 74.2024 3.4375 72.8755C3.4375 71.5486 4.51688 70.4692 5.84375 70.4692C7.17062 70.4692 8.25 71.5486 8.25 72.8755C8.25 74.2024 7.17062 75.2817 5.84375 75.2817Z" fill="black"/>
<path d="M17.1136 71.6655C16.7939 71.3458 16.3505 71.1619 15.8984 71.1619C15.4464 71.1619 15.003 71.3456 14.6833 71.6655C14.3636 71.985 14.1797 72.4284 14.1797 72.8806C14.1797 73.3326 14.3636 73.7761 14.6833 74.0956C15.003 74.4153 15.4464 74.5994 15.8984 74.5994C16.3505 74.5994 16.7939 74.4155 17.1136 74.0956C17.4333 73.7761 17.6172 73.3326 17.6172 72.8806C17.6172 72.4284 17.4333 71.985 17.1136 71.6655Z" fill="black"/>
</g>
<defs>
<clipPath id="clip0_1_802">
<rect width="88" height="88" fill="white" transform="translate(0 0.000488281)"/>
</clipPath>
</defs>
</svg>
